<svg xmlns="http://www.w3.org/2000/svg" width="234" height="580" viewBox="0 0 234 580" fill="none">
  <g opacity="0.05">
    <path d="M146.842 65.3437L146.842 83.1002L230.803 51.1386L230.803 32.1984L146.842 1.1449e-05L146.842 17.283L166.026 24.2672L166.026 58.3595L146.842 65.3437ZM212.684 41.3133L180.947 52.9142L180.947 29.7125L212.684 41.3133Z" fill="#23415D"/>
    <path d="M205.105 145.415L205.105 124.818L183.434 104.694L232.579 104.694L232.579 88.9499L146.842 88.9499L146.842 104.694L162.237 104.694L169.105 111.205L146.842 126.594L146.842 145.889L180.592 122.095L205.105 145.415Z" fill="#23415D"/>
    <path d="M162.711 146.435C153.592 146.435 145.184 154.011 145.184 166.44C145.184 175.082 149.211 180.646 153.829 183.605C151.579 183.605 148.382 183.842 146.842 184.197L146.842 198.639C148.855 198.284 153 197.929 156.079 197.929L184.737 197.929C196.461 197.929 206.882 191.063 206.882 172.596C206.882 156.97 196.816 148.566 187.697 147.619L184.737 161.587C189.829 162.061 194.211 165.849 194.211 172.714C194.211 179.343 190.776 182.54 186.632 182.54C184.618 182.54 182.961 181.474 182.487 178.16L180.355 163.836C178.934 154.129 173.132 146.435 162.711 146.435ZM156.908 169.755C156.908 164.665 160.224 162.179 163.658 162.179C168.158 162.179 170.408 165.375 171 169.4L173.013 182.54L170.408 182.54C160.105 182.54 156.908 176.384 156.908 169.755Z" fill="#23415D"/>
    <path d="M232.579 265.385L232.579 249.878L199.303 249.878C202.382 248.22 206.526 243.485 206.526 233.423C206.526 216.969 193.145 205.486 176.092 205.486C158.447 205.486 145.421 217.324 145.421 233.897C145.421 241.71 148.974 247.628 153.592 250.233C150.868 250.233 148.026 250.588 146.842 250.825L146.842 265.858C149.211 265.622 153.474 265.385 157.382 265.385L232.579 265.385ZM176.092 221.349C186.513 221.349 192.434 227.741 192.434 235.791C192.434 243.84 186.632 250.114 176.211 250.114C165.671 250.114 159.513 243.84 159.513 235.791C159.513 227.504 165.671 221.349 176.092 221.349Z" fill="#23415D"/>
    <path d="M182.605 290.246C187.934 290.601 194.092 295.099 194.092 303.267C194.092 312.264 188.408 316.052 182.605 316.289L182.605 290.246ZM167.447 317.828C162.237 315.934 158.566 311.909 158.566 304.57C158.566 296.757 164.132 290.246 171.829 289.891L171.829 331.559C172.066 331.559 174.434 331.796 176.684 331.796C195.395 331.796 206.882 321.024 206.882 303.031C206.882 288.115 194.803 274.384 176.211 274.384C156.553 274.384 145.066 288.47 145.066 304.451C145.066 318.775 153.474 328.008 163.539 330.967L167.447 317.828Z" fill="#23415D"/>
    <path d="M146.842 356.237L180.947 356.237C187.342 356.237 192.434 360.262 192.434 367.128C192.434 374.231 187.697 377.427 181.421 377.427L146.842 377.427L146.842 393.052L180.947 393.052C187.224 393.052 192.434 397.077 192.434 403.825C192.434 411.046 187.697 414.123 181.421 414.123L146.842 414.123L146.842 429.394L184.618 429.394C200.25 429.394 206.763 419.095 206.763 408.323C206.763 400.629 204.158 394.473 197.053 389.856C203.329 386.897 206.763 380.505 206.763 372.573C206.763 366.181 203.684 358.723 198 355.527L205.105 355.527L205.105 340.493L146.842 340.493L146.842 356.237Z" fill="#23415D"/>
    <path d="M146.842 457.387L205.105 457.387L205.105 441.643L146.842 441.643L146.842 457.387ZM224.171 439.749C218.961 439.749 214.579 444.129 214.579 449.456C214.579 454.902 218.961 459.163 224.171 459.163C229.618 459.163 234 454.902 234 449.456C234 444.129 229.618 439.749 224.171 439.749Z" fill="#23415D"/>
    <path d="M123.868 490.666L205.105 527.245L205.105 510.435L171 496.112L205.105 480.604L205.105 462.966L154.184 487.707L123.868 473.975L123.868 490.666Z" fill="#23415D"/>
    <path d="M162.711 527.796C153.592 527.796 145.184 535.372 145.184 547.802C145.184 556.443 149.211 562.007 153.829 564.966C151.579 564.966 148.382 565.203 146.842 565.558L146.842 580C148.855 579.645 153 579.29 156.079 579.29L184.737 579.29C196.461 579.29 206.882 572.424 206.882 553.957C206.882 538.332 196.816 529.927 187.697 528.98L184.737 542.948C189.829 543.422 194.21 547.21 194.21 554.076C194.21 560.705 190.776 563.901 186.632 563.901C184.618 563.901 182.961 562.835 182.487 559.521L180.355 545.197C178.934 535.49 173.132 527.796 162.711 527.796ZM156.908 551.116C156.908 546.026 160.224 543.54 163.658 543.54C168.158 543.54 170.408 546.736 171 550.761L173.013 563.901L170.408 563.901C160.105 563.901 156.908 557.745 156.908 551.116Z" fill="#23415D"/>
    <path d="M56.7237 22.965C63.1184 23.3201 68.0921 27.2266 68.0921 33.8556C68.0921 41.4317 63 44.6279 56.4868 44.6279L22.5 44.6279L22.5 60.3719L59.2105 60.3719C72 60.3719 82.3026 53.5061 82.3026 38.7091C82.3026 33.1454 80.4079 26.7531 75.9079 22.965L108.237 22.965L108.237 7.22096L22.5 7.22096L22.5 22.965L56.7237 22.965Z" fill="#23415D"/>
    <path d="M38.3684 69.0988C29.25 69.0988 20.8421 76.6748 20.8421 89.1044C20.8421 97.7458 24.8684 103.31 29.4869 106.269C27.2369 106.269 24.0395 106.506 22.5 106.861L22.5 121.303C24.5132 120.948 28.6579 120.592 31.7369 120.592L60.3947 120.592C72.1184 120.592 82.5395 113.727 82.5395 95.2599C82.5395 79.6343 72.4737 71.2295 63.3553 70.2825L60.3947 84.2509C65.4868 84.7244 69.8684 88.5125 69.8684 95.3783C69.8684 102.007 66.4342 105.204 62.2895 105.204C60.2763 105.204 58.6184 104.138 58.1447 100.824L56.0132 86.5001C54.5921 76.7932 48.7895 69.0988 38.3684 69.0988ZM32.5658 92.4189C32.5658 87.3287 35.8816 84.8428 39.3158 84.8428C43.8158 84.8428 46.0658 88.039 46.6579 92.0638L48.6711 105.204L46.0658 105.204C35.7632 105.204 32.5658 99.048 32.5658 92.4189Z" fill="#23415D"/>
    <path d="M2.22925e-05 188.167L80.7632 188.167L80.7632 173.133L74.0132 173.133C77.329 171.476 82.1842 166.268 82.1842 156.087C82.1842 139.159 68.8026 128.15 51.75 128.15C34.2237 128.15 21.0789 139.988 21.0789 156.561C21.0789 164.255 23.9211 170.056 28.3026 172.778L2.29652e-05 172.778L2.22925e-05 188.167ZM51.75 144.013C62.1711 144.013 68.0921 150.405 68.0921 158.455C68.0921 166.504 62.1711 172.897 51.75 172.897C41.329 172.897 35.1711 166.504 35.1711 158.455C35.1711 150.405 41.329 144.013 51.75 144.013Z" fill="#23415D"/>
    <path d="M22.5 216.593L80.7632 216.593L80.7632 200.849L22.5 200.849L22.5 216.593ZM99.829 198.955C94.6184 198.955 90.2368 203.335 90.2368 208.662C90.2368 214.108 94.6184 218.369 99.829 218.369C105.276 218.369 109.658 214.108 109.658 208.662C109.658 203.335 105.276 198.955 99.829 198.955Z" fill="#23415D"/>
    <path d="M108.237 285.267L108.237 269.76L74.9605 269.759C78.0395 268.102 82.1842 263.367 82.1842 253.305C82.1842 236.851 68.8026 225.368 51.75 225.368C34.1053 225.368 21.0789 237.206 21.0789 253.779C21.0789 261.592 24.6316 267.51 29.25 270.115C26.5263 270.115 23.6842 270.47 22.5 270.706L22.5 285.74C24.8684 285.504 29.1316 285.267 33.0395 285.267L108.237 285.267ZM51.75 241.231C62.1711 241.231 68.0921 247.623 68.0921 255.673C68.0921 263.722 62.2895 269.996 51.8684 269.996C41.329 269.996 35.1711 263.722 35.1711 255.673C35.1711 247.386 41.329 241.231 51.75 241.231Z" fill="#23415D"/>
    <path d="M38.3684 294.747C29.25 294.747 20.8421 302.323 20.8421 314.753C20.8421 323.394 24.8684 328.958 29.4868 331.918C27.2368 331.918 24.0395 332.154 22.5 332.509L22.5 346.951C24.5132 346.596 28.6579 346.241 31.7368 346.241L60.3947 346.241C72.1184 346.241 82.5395 339.375 82.5395 320.909C82.5395 305.283 72.4737 296.878 63.3553 295.931L60.3947 309.9C65.4868 310.373 69.8684 314.161 69.8684 321.027C69.8684 327.656 66.4342 330.852 62.2895 330.852C60.2763 330.852 58.6184 329.787 58.1447 326.472L56.0132 312.149C54.5921 302.442 48.7895 294.747 38.3684 294.747ZM32.5658 318.068C32.5658 312.977 35.8816 310.491 39.3158 310.491C43.8158 310.491 46.0658 313.688 46.6579 317.712L48.6711 330.852L46.0658 330.852C35.7632 330.852 32.5658 324.697 32.5658 318.068Z" fill="#23415D"/>
  </g>
</svg>