<svg xmlns="http://www.w3.org/2000/svg" width="68" height="68" viewBox="0 0 68 68" fill="none">
  <g clip-path="url(#clip0_5_66710)">
    <path d="M48.7531 24.9136C47.6481 23.8071 45.8518 23.8071 44.7468 24.9136L32.5833 37.0756L27.5031 31.9969C26.3981 30.8905 24.6018 30.8905 23.4968 31.9969C22.3904 33.1033 22.3904 34.8968 23.4968 36.0032L30.5801 43.0866C31.1326 43.6405 31.858 43.9167 32.5833 43.9167C33.3086 43.9167 34.034 43.6405 34.5865 43.0866L48.7531 28.9199C49.8596 27.8135 49.8596 26.02 48.7531 24.9136Z" fill="#3DC17A"/>
    <path d="M65.1667 31.1667C63.6027 31.1667 62.3333 32.436 62.3333 34C62.3333 49.623 49.623 62.3333 34 62.3333C18.377 62.3333 5.66667 49.623 5.66667 34C5.66667 18.377 18.377 5.66667 34 5.66667C41.6061 5.66667 48.7461 8.63883 54.1068 14.0363C55.2075 15.1484 57.0024 15.1541 58.1131 14.0505C59.2237 12.9483 59.2294 11.1548 58.1272 10.0442C51.6956 3.56717 43.1262 0 34 0C15.2518 0 0 15.2518 0 34C0 52.7482 15.2518 68 34 68C52.7482 68 68 52.7482 68 34C68 32.436 66.7307 31.1667 65.1667 31.1667Z" fill="#3DC17A"/>
  </g>
  <defs>
    <clipPath id="clip0_5_66710">
      <rect width="68" height="68" fill="white"/>
    </clipPath>
  </defs>
</svg>