<svg xmlns="http://www.w3.org/2000/svg" width="20" height="20" viewBox="0 0 32 32" fill="none">
<path d="M26.6666 5.33325L16 15.9999M26.6666 5.33325V11.3333M26.6666 5.33325H20.6666M25.3333 16.6666V22.3999C25.3333 23.8934 25.3333 24.6401 25.0427 25.2106C24.787 25.7123 24.3791 26.1203 23.8773 26.3759C23.3069 26.6666 22.5601 26.6666 21.0666 26.6666H9.59998C8.10651 26.6666 7.35977 26.6666 6.78934 26.3759C6.28757 26.1203 5.87962 25.7123 5.62396 25.2106C5.33331 24.6401 5.33331 23.8934 5.33331 22.3999V10.9333C5.33331 9.43978 5.33331 8.69304 5.62396 8.12261C5.87962 7.62085 6.28757 7.2129 6.78934 6.95723C7.35977 6.66659 8.10651 6.66659 9.59998 6.66659H15.3333" stroke="white" stroke-width="2" stroke-linecap="round" stroke-linejoin="round"/>
</svg>