<svg xmlns="http://www.w3.org/2000/svg" width="209" height="48" viewBox="0 0 209 48" fill="none">
  <path d="M0.015625 48.0001V39.338C0.0468575 40.3531 0.140017 41.0136 0.417892 41.5615C0.785592 42.2865 1.37231 42.8759 2.09396 43.2454C2.91437 43.6653 3.98835 43.6653 6.1363 43.6653H17.0668H17.0668C18.1408 43.6653 18.6778 43.6653 19.088 43.8753C19.4488 44.06 19.7422 44.3547 19.926 44.7172C20.135 45.1294 20.135 45.6688 20.135 46.7478V48.0001H0.015625Z" fill="white"/>
  <path d="M47.2059 39.3357V48.0001H27.0864V46.7478C27.0864 45.6688 27.0864 45.1294 27.2954 44.7172C27.4793 44.3547 27.7726 44.06 28.1335 43.8753C28.5437 43.6653 29.0807 43.6653 30.1546 43.6653H30.1546H41.0851C43.2331 43.6653 44.3071 43.6653 45.1275 43.2454C45.8491 42.8759 46.4358 42.2865 46.8035 41.5615C47.0816 41.0132 47.1747 40.3521 47.2059 39.3357Z" fill="white"/>
  <path d="M6.71159 32.106H40.5099V36.9224H29.6273C27.4793 36.9224 26.4054 36.9224 25.585 37.3423C24.8633 37.7117 24.2766 38.3012 23.9089 39.0262C23.7665 39.3069 23.6726 39.6172 23.6107 39.9896C23.5488 39.6172 23.4549 39.3069 23.3126 39.0262C22.9449 38.3012 22.3581 37.7117 21.6365 37.3423C20.8161 36.9224 19.7421 36.9224 17.5942 36.9224H6.71159V32.106Z" fill="white"/>
  <path d="M3.70477e-06 0.556152H6.71172H17.5943C19.7422 0.556152 20.8162 0.556152 21.6366 0.976117C22.3583 1.34553 22.945 1.93498 23.3127 2.65999C23.4551 2.94072 23.549 3.25101 23.6109 3.62341C23.6728 3.25101 23.7667 2.94072 23.909 2.65999C24.2767 1.93498 24.8634 1.34553 25.5851 0.976117C26.4055 0.556152 27.4795 0.556152 29.6274 0.556152H40.51H47.2217L47.2217 32.1271H40.51L40.51 7.29911H29.6274C27.4795 7.29911 26.4055 7.29911 25.5851 7.71908C24.8634 8.08849 24.2767 8.67794 23.909 9.40295C23.7667 9.68369 23.6728 9.99397 23.6109 10.3664C23.549 9.99397 23.4551 9.68369 23.3127 9.40295C22.945 8.67794 22.3583 8.08849 21.6366 7.71908C20.8162 7.29911 19.7422 7.29911 17.5943 7.29911H6.71172L6.71171 32.1271H0L3.70477e-06 0.556152Z" fill="white"/>
  <path d="M65.3898 26.4714H71.2943V0.519046H65.3898V26.4714Z" fill="white"/>
  <path d="M101.491 13.4952C101.491 9.67651 100.199 6.48808 97.5793 3.89285C94.9591 1.29762 91.7855 0 88.0583 0C84.3311 0 81.1574 1.29762 78.5373 3.89285C75.9172 6.48808 74.6256 9.67651 74.6256 13.4952C74.6256 17.3139 75.9172 20.5023 78.5373 23.0976C81.1574 25.6928 84.3311 26.9904 88.0583 26.9904C90.1618 26.9904 92.1914 26.5085 94.1104 25.5816L96.8781 28.5105L101.122 24.7289L98.5387 21.9853C100.495 19.5384 101.491 16.7207 101.491 13.4952ZM88.0583 21.2068C85.9179 21.2068 84.1097 20.5023 82.6705 19.0564C81.2313 17.6105 80.5301 15.7568 80.5301 13.4952C80.5301 11.2337 81.2313 9.37991 82.6705 7.934C84.1097 6.48808 85.9179 5.78366 88.0583 5.78366C90.1987 5.78366 91.97 6.48808 93.4092 7.934C94.8484 9.37991 95.5865 11.2337 95.5865 13.4952C95.5865 15.0153 95.2175 16.387 94.5163 17.6847L91.35 14.2441L87.1061 18.0257L89.8665 21.0214C89.2023 21.1326 88.6118 21.2068 88.0583 21.2068Z" fill="white"/>
  <path d="M101.673 0.519046V6.22856H108.315V26.4714H114.22V6.22856H120.862V0.519046H101.673Z" fill="white"/>
  <path d="M123.447 26.4714H129.352V0.519046H123.447V26.4714Z" fill="white"/>
  <path d="M133.79 0.519046V26.4714H144.123C147.702 26.4714 150.655 25.2479 153.053 22.7639C155.452 20.2799 156.67 17.1656 156.67 13.4952C156.67 9.82481 155.452 6.74761 153.053 4.2636C150.655 1.77959 147.702 0.519046 144.123 0.519046H133.79ZM139.694 20.7619V6.22856H144.123C146.152 6.22856 147.813 6.89591 149.068 8.2306C150.359 9.52821 150.987 11.3078 150.987 13.4952C150.987 15.6826 150.359 17.4622 149.068 18.7969C147.813 20.0945 146.152 20.7619 144.123 20.7619H139.694Z" fill="white"/>
  <path d="M181.836 23.0976C184.456 20.5023 185.748 17.3139 185.748 13.4952C185.748 9.67651 184.456 6.48808 181.836 3.89285C179.216 1.29762 176.042 0 172.315 0C168.588 0 165.414 1.29762 162.794 3.89285C160.174 6.48808 158.883 9.67651 158.883 13.4952C158.883 17.3139 160.174 20.5023 162.794 23.0976C165.414 25.6928 168.588 26.9904 172.315 26.9904C176.042 26.9904 179.216 25.6928 181.836 23.0976ZM166.927 19.0564C165.488 17.6105 164.787 15.7568 164.787 13.4952C164.787 11.2337 165.488 9.37991 166.927 7.934C168.367 6.48808 170.175 5.78366 172.315 5.78366C174.456 5.78366 176.227 6.48808 177.666 7.934C179.105 9.37991 179.843 11.2337 179.843 13.4952C179.843 15.7568 179.105 17.6105 177.666 19.0564C176.227 20.5023 174.456 21.2068 172.315 21.2068C170.175 21.2068 168.367 20.5023 166.927 19.0564Z" fill="white"/>
  <path d="M209 26.4714L203.501 16.9432C206.343 15.4602 208.262 12.5683 208.262 9.41699C208.262 6.93298 207.413 4.85679 205.679 3.11428C203.944 1.37177 201.878 0.519046 199.405 0.519046H189.072V26.4714H194.977V17.9442H197.781L202.653 26.4714H209ZM199.405 6.08026C201.029 6.08026 202.357 7.52618 202.357 9.41699C202.357 11.3078 201.029 12.7537 199.405 12.7537H194.977V6.08026H199.405Z" fill="white"/>
  <path d="M67.0131 39.5021C67.0131 38.8405 67.6256 38.4713 68.376 38.4713C69.1876 38.4713 69.7389 38.7944 70.0145 39.4559L71.1324 38.8252C70.6423 37.8252 69.6163 37.2252 68.376 37.2252C67.595 37.2252 66.9518 37.4405 66.4312 37.8713C65.9259 38.3021 65.6655 38.8559 65.6655 39.5175C65.6655 41.1482 67.2275 41.5482 68.4372 41.8713C69.2795 42.0713 69.9532 42.4098 69.9532 43.0097C69.9532 43.7328 69.3101 44.0559 68.4372 44.0559C67.5031 44.0559 66.7834 43.5944 66.5384 42.8559L65.3899 43.5174C65.834 44.6097 66.9518 45.3174 68.4372 45.3174C69.2795 45.3174 69.9532 45.102 70.4892 44.6867C71.0252 44.2713 71.3008 43.7021 71.3008 43.0097C71.3161 41.3636 69.7235 40.9175 68.5291 40.6559C67.6869 40.4251 67.0131 40.1021 67.0131 39.5021Z" fill="white"/>
  <path d="M77.1046 37.2252C75.8336 37.2252 74.8689 37.7329 74.2104 38.7482V37.4252H72.8782V47.9999H74.2104V43.7944C74.8689 44.8097 75.8336 45.3174 77.1046 45.3174C78.1766 45.3174 79.0954 44.9328 79.8457 44.1482C80.5961 43.3636 80.9789 42.3944 80.9789 41.2713C80.9789 40.1482 80.5961 39.1944 79.8457 38.4098C79.0954 37.6252 78.1766 37.2252 77.1046 37.2252ZM76.9362 44.0251C76.1552 44.0251 75.5121 43.7636 74.9914 43.2405C74.4708 42.7021 74.2104 42.0559 74.2104 41.2713C74.2104 40.4867 74.4708 39.8405 74.9914 39.3175C75.5121 38.779 76.1552 38.5175 76.9362 38.5175C77.7019 38.5175 78.345 38.779 78.8657 39.3175C79.3863 39.8405 79.6466 40.4867 79.6466 41.2713C79.6466 42.0559 79.3863 42.7021 78.8657 43.2405C78.345 43.7636 77.7019 44.0251 76.9362 44.0251Z" fill="white"/>
  <path d="M89.9189 41.8867C89.9496 41.6867 89.9649 41.4867 89.9649 41.2867C89.9649 40.1636 89.6127 39.2098 88.893 38.4252C88.1886 37.6252 87.2698 37.2252 86.1519 37.2252C84.9728 37.2252 84.008 37.6098 83.2577 38.379C82.5073 39.1482 82.1398 40.1175 82.1398 41.2713C82.1398 42.4405 82.5227 43.4097 83.273 44.179C84.0387 44.9328 85.034 45.3174 86.2438 45.3174C87.7445 45.3174 88.8623 44.7328 89.6127 43.579L88.4795 42.9328C88.0201 43.6867 87.2851 44.0559 86.2744 44.0559C84.8196 44.0559 83.763 43.2559 83.5027 41.8867H89.9189ZM86.1519 38.4867C87.3769 38.4867 88.3876 39.2559 88.6173 40.7175H83.5027C83.7324 39.3636 84.7278 38.4867 86.1519 38.4867Z" fill="white"/>
  <path d="M95.08 45.3174C96.5654 45.3174 97.867 44.5328 98.5255 43.3174L97.3923 42.6559C96.9635 43.4713 96.106 43.9944 95.08 43.9944C94.3143 43.9944 93.6712 43.7328 93.1505 43.2097C92.6452 42.6867 92.3849 42.0405 92.3849 41.2713C92.3849 40.4867 92.6452 39.8405 93.1505 39.3175C93.6712 38.7944 94.3143 38.5328 95.08 38.5328C96.106 38.5328 96.9635 39.0713 97.3463 39.8867L98.4642 39.2405C97.867 38.0098 96.596 37.2252 95.08 37.2252C93.9315 37.2252 92.9668 37.6098 92.2011 38.3944C91.4354 39.1636 91.0526 40.1175 91.0526 41.2713C91.0526 42.4251 91.4354 43.379 92.2011 44.1636C92.9668 44.9328 93.9315 45.3174 95.08 45.3174Z" fill="white"/>
  <path d="M100.515 36.0252C101.005 36.0252 101.403 35.6252 101.403 35.1329C101.403 34.6406 101.005 34.2252 100.515 34.2252C100.009 34.2252 99.6111 34.6406 99.6111 35.1329C99.6111 35.6252 100.009 36.0252 100.515 36.0252ZM101.173 45.1174V37.4252H99.8408V45.1174H101.173Z" fill="white"/>
  <path d="M109.545 38.7482C108.887 37.7329 107.922 37.2252 106.651 37.2252C105.579 37.2252 104.66 37.6252 103.91 38.4098C103.16 39.1944 102.777 40.1482 102.777 41.2713C102.777 42.3944 103.16 43.3636 103.91 44.1482C104.66 44.9328 105.579 45.3174 106.651 45.3174C107.922 45.3174 108.887 44.8097 109.545 43.7944V45.1174H110.878V37.4252H109.545V38.7482ZM106.819 44.0251C106.054 44.0251 105.411 43.7636 104.89 43.2405C104.369 42.7021 104.109 42.0559 104.109 41.2713C104.109 40.4867 104.369 39.8405 104.89 39.3175C105.411 38.779 106.054 38.5175 106.819 38.5175C107.6 38.5175 108.244 38.779 108.764 39.3175C109.285 39.8405 109.545 40.4867 109.545 41.2713C109.545 42.0559 109.285 42.7021 108.764 43.2405C108.244 43.7636 107.6 44.0251 106.819 44.0251Z" fill="white"/>
  <path d="M114.228 45.1174V33.8867H112.896V45.1174H114.228Z" fill="white"/>
  <path d="M121.238 39.5021C121.238 38.8405 121.85 38.4713 122.6 38.4713C123.412 38.4713 123.963 38.7944 124.239 39.4559L125.357 38.8252C124.867 37.8252 123.841 37.2252 122.6 37.2252C121.819 37.2252 121.176 37.4405 120.656 37.8713C120.15 38.3021 119.89 38.8559 119.89 39.5175C119.89 41.1482 121.452 41.5482 122.662 41.8713C123.504 42.0713 124.178 42.4098 124.178 43.0097C124.178 43.7328 123.534 44.0559 122.662 44.0559C121.728 44.0559 121.008 43.5944 120.763 42.8559L119.614 43.5174C120.058 44.6097 121.176 45.3174 122.662 45.3174C123.504 45.3174 124.178 45.102 124.714 44.6867C125.25 44.2713 125.525 43.7021 125.525 43.0097C125.541 41.3636 123.948 40.9175 122.754 40.6559C121.911 40.4251 121.238 40.1021 121.238 39.5021Z" fill="white"/>
  <path d="M130.492 45.3174C131.977 45.3174 133.279 44.5328 133.937 43.3174L132.804 42.6559C132.375 43.4713 131.518 43.9944 130.492 43.9944C129.726 43.9944 129.083 43.7328 128.562 43.2097C128.057 42.6867 127.797 42.0405 127.797 41.2713C127.797 40.4867 128.057 39.8405 128.562 39.3175C129.083 38.7944 129.726 38.5328 130.492 38.5328C131.518 38.5328 132.375 39.0713 132.758 39.8867L133.876 39.2405C133.279 38.0098 132.008 37.2252 130.492 37.2252C129.343 37.2252 128.379 37.6098 127.613 38.3944C126.847 39.1636 126.464 40.1175 126.464 41.2713C126.464 42.4251 126.847 43.379 127.613 44.1636C128.379 44.9328 129.343 45.3174 130.492 45.3174Z" fill="white"/>
  <path d="M139.066 37.2252C137.948 37.2252 137.121 37.6559 136.585 38.5328V34.3483H135.253V45.1174H136.585V41.0405C136.585 39.3175 137.473 38.5021 138.805 38.5021C139.984 38.5021 140.704 39.2252 140.704 40.4713V45.1174H142.036V40.3944C142.036 38.4405 140.857 37.2252 139.066 37.2252Z" fill="white"/>
  <path d="M150.358 44.1482C151.139 43.3636 151.538 42.4098 151.538 41.2713C151.538 40.1328 151.139 39.179 150.358 38.3944C149.578 37.6098 148.613 37.2252 147.495 37.2252C146.377 37.2252 145.412 37.6098 144.631 38.3944C143.85 39.179 143.468 40.1328 143.468 41.2713C143.468 42.4098 143.85 43.3636 144.631 44.1482C145.412 44.9328 146.377 45.3174 147.495 45.3174C148.613 45.3174 149.578 44.9328 150.358 44.1482ZM147.495 44.0097C146.745 44.0097 146.101 43.7482 145.581 43.2251C145.06 42.7021 144.8 42.0559 144.8 41.2713C144.8 40.4867 145.06 39.8405 145.581 39.3175C146.101 38.7944 146.745 38.5328 147.495 38.5328C148.261 38.5328 148.904 38.7944 149.424 39.3175C149.945 39.8405 150.205 40.4867 150.205 41.2713C150.205 42.0559 149.945 42.7021 149.424 43.2251C148.904 43.7482 148.261 44.0097 147.495 44.0097Z" fill="white"/>
  <path d="M159.57 44.1482C160.351 43.3636 160.749 42.4098 160.749 41.2713C160.749 40.1328 160.351 39.179 159.57 38.3944C158.789 37.6098 157.825 37.2252 156.707 37.2252C155.589 37.2252 154.624 37.6098 153.843 38.3944C153.062 39.179 152.679 40.1328 152.679 41.2713C152.679 42.4098 153.062 43.3636 153.843 44.1482C154.624 44.9328 155.589 45.3174 156.707 45.3174C157.825 45.3174 158.789 44.9328 159.57 44.1482ZM156.707 44.0097C155.956 44.0097 155.313 43.7482 154.793 43.2251C154.272 42.7021 154.012 42.0559 154.012 41.2713C154.012 40.4867 154.272 39.8405 154.793 39.3175C155.313 38.7944 155.956 38.5328 156.707 38.5328C157.472 38.5328 158.116 38.7944 158.636 39.3175C159.157 39.8405 159.417 40.4867 159.417 41.2713C159.417 42.0559 159.157 42.7021 158.636 43.2251C158.116 43.7482 157.472 44.0097 156.707 44.0097Z" fill="white"/>
  <path d="M163.652 45.1174V33.8867H162.32V45.1174H163.652Z" fill="white"/>
</svg>