<svg xmlns="http://www.w3.org/2000/svg" width="68" height="68" viewBox="0 0 68 68" fill="none">
  <g clip-path="url(#clip0_5_66828)">
    <path d="M65.1667 31.1667C63.6027 31.1667 62.3333 32.436 62.3333 34C62.3333 49.623 49.623 62.3333 34 62.3333C18.377 62.3333 5.66667 49.623 5.66667 34C5.66667 18.377 18.377 5.66667 34 5.66667C41.6061 5.66667 48.7461 8.63883 54.1068 14.0363C55.2075 15.1484 57.0024 15.1541 58.1131 14.0505C59.2237 12.9483 59.2294 11.1548 58.1272 10.0442C51.6956 3.56717 43.1262 0 34 0C15.2518 0 0 15.2518 0 34C0 52.7482 15.2518 68 34 68C52.7482 68 68 52.7482 68 34C68 32.436 66.7307 31.1667 65.1667 31.1667Z" fill="#E05858"/>
    <path fill-rule="evenodd" clip-rule="evenodd" d="M44.4667 23.1188C45.4382 24.0903 45.4382 25.6655 44.4667 26.6371L27.4667 43.6371C26.4951 44.6086 24.9199 44.6086 23.9484 43.6371C22.9768 42.6655 22.9768 41.0903 23.9484 40.1188L40.9484 23.1188C41.9199 22.1472 43.4951 22.1472 44.4667 23.1188Z" fill="#E05858"/>
    <path fill-rule="evenodd" clip-rule="evenodd" d="M23.9484 23.1188C24.9199 22.1472 26.4951 22.1472 27.4667 23.1188L44.4667 40.1188C45.4382 41.0903 45.4382 42.6655 44.4667 43.6371C43.4951 44.6086 41.9199 44.6086 40.9484 43.6371L23.9484 26.6371C22.9768 25.6655 22.9768 24.0903 23.9484 23.1188Z" fill="#E05858"/>
  </g>
  <defs>
    <clipPath id="clip0_5_66828">
      <rect width="68" height="68" fill="white"/>
    </clipPath>
  </defs>
</svg>