<svg width="467" height="467" viewBox="0 0 467 467" fill="none" xmlns="http://www.w3.org/2000/svg">
<circle cx="233.555" cy="233.548" r="117.797" stroke="#E2E7EB" stroke-dasharray="10 5"/>
<circle cx="233.555" cy="233.548" r="90.4974" stroke="#E2E7EB" stroke-dasharray="10 5"/>
<circle cx="233.555" cy="233.548" r="148.129" stroke="#D2D9DF" stroke-dasharray="10 5"/>
<circle cx="233.556" cy="233.548" r="176.945" stroke="#C4CCD5" stroke-opacity="0.7" stroke-dasharray="10 5"/>
<circle cx="233.555" cy="233.548" r="204.244" stroke="#B5C0CA" stroke-opacity="0.6" stroke-dasharray="10 5"/>
<circle cx="233.151" cy="232.25" r="62.1816" fill="#46A0DC" fill-opacity="0.16"/>
<g opacity="0.4" filter="url(#filter0_f_26_31015)">
<path d="M76.2573 261.401H89.1918V204.128H76.2573V261.401Z" fill="#46A0DC"/>
<path d="M155.342 232.765C155.342 224.337 152.512 217.301 146.772 211.573C141.033 205.846 134.081 202.982 125.916 202.982C117.751 202.982 110.798 205.846 105.059 211.573C99.319 217.301 96.4896 224.337 96.4896 232.765C96.4896 241.192 99.319 248.228 105.059 253.956C110.798 259.683 117.751 262.547 125.916 262.547C130.524 262.547 134.97 261.483 139.173 259.438L145.237 265.901L154.533 257.556L148.874 251.501C153.159 246.101 155.342 239.883 155.342 232.765ZM125.916 249.783C121.227 249.783 117.266 248.228 114.113 245.037C110.96 241.847 109.424 237.756 109.424 232.765C109.424 227.774 110.96 223.683 114.113 220.492C117.266 217.301 121.227 215.746 125.916 215.746C130.604 215.746 134.485 217.301 137.637 220.492C140.79 223.683 142.407 227.774 142.407 232.765C142.407 236.119 141.599 239.146 140.063 242.01L133.126 234.417L123.83 242.763L129.877 249.374C128.422 249.619 127.128 249.783 125.916 249.783Z" fill="#46A0DC"/>
<path d="M155.74 204.128V216.728H170.291V261.401H183.226V216.728H197.777V204.128H155.74Z" fill="#46A0DC"/>
<path d="M203.439 261.401H216.374V204.128H203.439V261.401Z" fill="#46A0DC"/>
<path d="M226.097 204.128V261.401H248.732C256.574 261.401 263.041 258.701 268.296 253.219C273.55 247.738 276.218 240.865 276.218 232.765C276.218 224.664 273.55 217.873 268.296 212.391C263.041 206.91 256.574 204.128 248.732 204.128H226.097ZM239.031 248.801V216.728H248.732C253.178 216.728 256.816 218.201 259.565 221.146C262.394 224.01 263.768 227.937 263.768 232.765C263.768 237.592 262.394 241.519 259.565 244.465C256.816 247.328 253.178 248.801 248.732 248.801H239.031Z" fill="#46A0DC"/>
<path d="M331.348 253.956C337.088 248.228 339.917 241.192 339.917 232.765C339.917 224.337 337.088 217.301 331.348 211.573C325.608 205.846 318.656 202.982 310.491 202.982C302.326 202.982 295.374 205.846 289.634 211.573C283.895 217.301 281.065 224.337 281.065 232.765C281.065 241.192 283.895 248.228 289.634 253.956C295.374 259.683 302.326 262.547 310.491 262.547C318.656 262.547 325.608 259.683 331.348 253.956ZM298.689 245.037C295.536 241.847 294 237.756 294 232.765C294 227.774 295.536 223.683 298.689 220.492C301.841 217.301 305.803 215.746 310.491 215.746C315.18 215.746 319.06 217.301 322.213 220.492C325.366 223.683 326.983 227.774 326.983 232.765C326.983 237.756 325.366 241.847 322.213 245.037C319.06 248.228 315.18 249.783 310.491 249.783C305.803 249.783 301.841 248.228 298.689 245.037Z" fill="#46A0DC"/>
<path d="M390.854 261.401L378.809 240.374C385.033 237.101 389.237 230.719 389.237 223.764C389.237 218.282 387.378 213.701 383.578 209.855C379.779 206.01 375.252 204.128 369.835 204.128H347.2V261.401H360.134V242.583H366.278L376.949 261.401H390.854ZM369.835 216.401C373.392 216.401 376.302 219.592 376.302 223.764C376.302 227.937 373.392 231.128 369.835 231.128H360.134V216.401H369.835Z" fill="#46A0DC"/>
</g>
<path d="M76.2573 261.401H89.1918V204.128H76.2573V261.401Z" fill="#46A0DC"/>
<path d="M155.342 232.765C155.342 224.337 152.512 217.301 146.772 211.573C141.033 205.846 134.08 202.982 125.916 202.982C117.751 202.982 110.798 205.846 105.059 211.573C99.319 217.301 96.4896 224.337 96.4896 232.765C96.4896 241.192 99.319 248.228 105.059 253.956C110.798 259.683 117.751 262.547 125.916 262.547C130.524 262.547 134.97 261.483 139.173 259.438L145.236 265.901L154.533 257.556L148.874 251.501C153.159 246.101 155.342 239.883 155.342 232.765ZM125.916 249.783C121.227 249.783 117.266 248.228 114.113 245.037C110.96 241.847 109.424 237.756 109.424 232.765C109.424 227.774 110.96 223.683 114.113 220.492C117.266 217.301 121.227 215.746 125.916 215.746C130.604 215.746 134.485 217.301 137.637 220.492C140.79 223.683 142.407 227.774 142.407 232.765C142.407 236.119 141.599 239.146 140.063 242.01L133.126 234.417L123.83 242.763L129.877 249.374C128.422 249.619 127.128 249.783 125.916 249.783Z" fill="#46A0DC"/>
<path d="M155.74 204.128V216.728H170.291V261.401H183.226V216.728H197.777V204.128H155.74Z" fill="#46A0DC"/>
<path d="M203.439 261.401H216.374V204.128H203.439V261.401Z" fill="#46A0DC"/>
<path d="M226.097 204.128V261.401H248.732C256.574 261.401 263.041 258.701 268.296 253.219C273.55 247.738 276.218 240.865 276.218 232.765C276.218 224.664 273.55 217.873 268.296 212.391C263.041 206.91 256.574 204.128 248.732 204.128H226.097ZM239.031 248.801V216.728H248.732C253.178 216.728 256.816 218.201 259.565 221.146C262.394 224.01 263.768 227.937 263.768 232.765C263.768 237.592 262.394 241.519 259.565 244.465C256.816 247.328 253.178 248.801 248.732 248.801H239.031Z" fill="#46A0DC"/>
<path d="M331.348 253.956C337.088 248.228 339.917 241.192 339.917 232.765C339.917 224.337 337.088 217.301 331.348 211.573C325.608 205.846 318.656 202.982 310.491 202.982C302.326 202.982 295.374 205.846 289.634 211.573C283.895 217.301 281.065 224.337 281.065 232.765C281.065 241.192 283.895 248.228 289.634 253.956C295.374 259.683 302.326 262.547 310.491 262.547C318.656 262.547 325.608 259.683 331.348 253.956ZM298.688 245.037C295.536 241.847 294 237.756 294 232.765C294 227.774 295.536 223.683 298.688 220.492C301.841 217.301 305.802 215.746 310.491 215.746C315.18 215.746 319.06 217.301 322.213 220.492C325.366 223.683 326.983 227.774 326.983 232.765C326.983 237.756 325.366 241.847 322.213 245.037C319.06 248.228 315.18 249.783 310.491 249.783C305.802 249.783 301.841 248.228 298.688 245.037Z" fill="#46A0DC"/>
<path d="M390.854 261.401L378.809 240.374C385.033 237.101 389.237 230.719 389.237 223.764C389.237 218.282 387.378 213.701 383.578 209.855C379.779 206.01 375.251 204.128 369.835 204.128H347.2V261.401H360.134V242.583H366.278L376.949 261.401H390.854ZM369.835 216.401C373.392 216.401 376.302 219.592 376.302 223.764C376.302 227.937 373.392 231.128 369.835 231.128H360.134V216.401H369.835Z" fill="#46A0DC"/>
<circle cx="233.555" cy="233.548" r="232.855" stroke="#B5C0CA" stroke-opacity="0.6" stroke-dasharray="10 5"/>
<defs>
<filter id="filter0_f_26_31015" x="56.2573" y="182.982" width="354.596" height="102.919" filterUnits="userSpaceOnUse" color-interpolation-filters="sRGB">
<feFlood flood-opacity="0" result="BackgroundImageFix"/>
<feBlend mode="normal" in="SourceGraphic" in2="BackgroundImageFix" result="shape"/>
<feGaussianBlur stdDeviation="10" result="effect1_foregroundBlur_26_31015"/>
</filter>
</defs>
</svg>
