<svg xmlns="http://www.w3.org/2000/svg" width="128" height="40" viewBox="0 0 128 40" fill="none">
  <path d="M0.0096817 30V24.5862C0.0288097 25.2207 0.0858643 25.6335 0.256046 25.9759C0.481239 26.4291 0.84057 26.7975 1.28254 27.0283C1.78499 27.2908 2.44273 27.2908 3.75822 27.2908H10.4525C11.1102 27.2908 11.4391 27.2908 11.6903 27.4221C11.9113 27.5375 12.091 27.7217 12.2036 27.9483C12.3316 28.2058 12.3316 28.543 12.3316 29.2174V30H0.0096817Z" fill="#46A0DC"/>
  <path d="M28.9108 24.5848V30H16.5889V29.2174C16.5889 28.543 16.5889 28.2058 16.7169 27.9483C16.8295 27.7217 17.0092 27.5375 17.2301 27.4221C17.4814 27.2908 17.8102 27.2908 18.468 27.2908H25.1622C26.4777 27.2908 27.1355 27.2908 27.6379 27.0283C28.0799 26.7975 28.4392 26.4291 28.6644 25.9759C28.8347 25.6332 28.8917 25.2201 28.9108 24.5848Z" fill="#46A0DC"/>
  <path d="M4.11055 20.0662H24.8099V23.0765H18.145C16.8295 23.0765 16.1718 23.0765 15.6693 23.339C15.2274 23.5698 14.868 23.9382 14.6428 24.3914C14.5556 24.5668 14.4981 24.7608 14.4602 24.9935C14.4223 24.7608 14.3648 24.5668 14.2776 24.3914C14.0524 23.9382 13.6931 23.5698 13.2511 23.339C12.7487 23.0765 12.0909 23.0765 10.7755 23.0765H4.11055V20.0662Z" fill="#46A0DC"/>
  <path d="M2.26894e-06 0.347534H4.11052H10.7754C12.0909 0.347534 12.7487 0.347534 13.2511 0.610012C13.6931 0.840894 14.0524 1.2093 14.2776 1.66243C14.3648 1.83789 14.4223 2.03182 14.4602 2.26457C14.4981 2.03182 14.5556 1.83789 14.6428 1.66243C14.868 1.2093 15.2273 0.840894 15.6693 0.610012C16.1718 0.347534 16.8295 0.347534 18.145 0.347534H24.8099H28.9204L28.9204 20.0794H24.8099L24.8099 4.56188H18.145C16.8295 4.56188 16.1718 4.56188 15.6693 4.82436C15.2273 5.05524 14.868 5.42365 14.6428 5.87678C14.5556 6.05224 14.4981 6.24617 14.4602 6.47892C14.4223 6.24617 14.3648 6.05224 14.2776 5.87678C14.0524 5.42365 13.6931 5.05524 13.2511 4.82436C12.7487 4.56188 12.0909 4.56188 10.7754 4.56188H4.11052L4.11051 20.0794H0L2.26894e-06 0.347534Z" fill="#46A0DC"/>
  <path d="M40.0476 16.5446H43.6637V0.324404H40.0476V16.5446Z" fill="#31475D"/>
  <path d="M62.1574 8.4345C62.1574 6.04782 61.3663 4.05505 59.7617 2.43303C58.157 0.811011 56.2134 0 53.9307 0C51.648 0 49.7043 0.811011 48.0997 2.43303C46.495 4.05505 45.704 6.04782 45.704 8.4345C45.704 10.8212 46.495 12.814 48.0997 14.436C49.7043 16.058 51.648 16.869 53.9307 16.869C55.2189 16.869 56.462 16.5678 57.6372 15.9885L59.3323 17.819L61.9314 15.4555L60.3493 13.7408C61.5471 12.2115 62.1574 10.4504 62.1574 8.4345ZM53.9307 13.2542C52.6198 13.2542 51.5124 12.814 50.631 11.9103C49.7495 11.0066 49.3201 9.84798 49.3201 8.4345C49.3201 7.02103 49.7495 5.86244 50.631 4.95875C51.5124 4.05505 52.6198 3.61479 53.9307 3.61479C55.2415 3.61479 56.3264 4.05505 57.2078 4.95875C58.0892 5.86244 58.5412 7.02103 58.5412 8.4345C58.5412 9.38454 58.3152 10.2419 57.8858 11.0529L55.9466 8.90254L53.3475 11.2661L55.0381 13.1384C54.6313 13.2079 54.2697 13.2542 53.9307 13.2542Z" fill="#31475D"/>
  <path d="M62.2688 0.324404V3.89285H66.3369V16.5446H69.953V3.89285H74.0212V0.324404H62.2688Z" fill="#31475D"/>
  <path d="M75.6041 16.5446H79.2202V0.324404H75.6041V16.5446Z" fill="#31475D"/>
  <path d="M81.9385 0.324404V16.5446H88.2667C90.459 16.5446 92.2671 15.7799 93.7361 14.2274C95.2052 12.6749 95.951 10.7285 95.951 8.4345C95.951 6.1405 95.2052 4.21725 93.7361 2.66475C92.2671 1.11224 90.459 0.324404 88.2667 0.324404H81.9385ZM85.5547 12.9762V3.89285H88.2667C89.5098 3.89285 90.5268 4.30994 91.2953 5.14412C92.0863 5.95513 92.4705 7.06737 92.4705 8.4345C92.4705 9.80163 92.0863 10.9139 91.2953 11.7481C90.5268 12.5591 89.5098 12.9762 88.2667 12.9762H85.5547Z" fill="#31475D"/>
  <path d="M111.364 14.436C112.969 12.814 113.76 10.8212 113.76 8.4345C113.76 6.04782 112.969 4.05505 111.364 2.43303C109.759 0.811011 107.816 0 105.533 0C103.25 0 101.307 0.811011 99.7019 2.43303C98.0972 4.05505 97.3062 6.04782 97.3062 8.4345C97.3062 10.8212 98.0972 12.814 99.7019 14.436C101.307 16.058 103.25 16.869 105.533 16.869C107.816 16.869 109.759 16.058 111.364 14.436ZM102.233 11.9103C101.352 11.0066 100.922 9.84798 100.922 8.4345C100.922 7.02103 101.352 5.86244 102.233 4.95875C103.115 4.05505 104.222 3.61479 105.533 3.61479C106.844 3.61479 107.929 4.05505 108.81 4.95875C109.691 5.86244 110.143 7.02103 110.143 8.4345C110.143 9.84798 109.691 11.0066 108.81 11.9103C107.929 12.814 106.844 13.2542 105.533 13.2542C104.222 13.2542 103.115 12.814 102.233 11.9103Z" fill="#31475D"/>
  <path d="M128 16.5446L124.632 10.5895C126.373 9.6626 127.548 7.85521 127.548 5.88562C127.548 4.33311 127.028 3.0355 125.966 1.94642C124.904 0.857353 123.638 0.324404 122.124 0.324404H115.796V16.5446H119.412V11.2151H121.129L124.113 16.5446H128ZM122.124 3.80016C123.118 3.80016 123.932 4.70386 123.932 5.88562C123.932 7.06737 123.118 7.97107 122.124 7.97107H119.412V3.80016H122.124Z" fill="#31475D"/>
  <path d="M41.0417 24.6888C41.0417 24.2753 41.4168 24.0446 41.8764 24.0446C42.3734 24.0446 42.711 24.2465 42.8799 24.6599L43.5645 24.2657C43.2644 23.6407 42.636 23.2657 41.8764 23.2657C41.3981 23.2657 41.0042 23.4003 40.6853 23.6696C40.3758 23.9388 40.2164 24.285 40.2164 24.6984C40.2164 25.7176 41.173 25.9676 41.9139 26.1696C42.4297 26.2946 42.8423 26.5061 42.8423 26.8811C42.8423 27.333 42.4484 27.5349 41.9139 27.5349C41.3418 27.5349 40.901 27.2465 40.751 26.7849L40.0476 27.1984C40.3195 27.8811 41.0042 28.3234 41.9139 28.3234C42.4297 28.3234 42.8423 28.1888 43.1706 27.9292C43.4988 27.6695 43.6676 27.3138 43.6676 26.8811C43.677 25.8523 42.7017 25.5734 41.9701 25.4099C41.4543 25.2657 41.0417 25.0638 41.0417 24.6888Z" fill="#31475D"/>
  <path d="M47.2221 23.2657C46.4437 23.2657 45.8529 23.583 45.4496 24.2176V23.3907H44.6337V30H45.4496V27.3715C45.8529 28.0061 46.4437 28.3234 47.2221 28.3234C47.8786 28.3234 48.4413 28.083 48.9009 27.5926C49.3604 27.1022 49.5949 26.4965 49.5949 25.7946C49.5949 25.0926 49.3604 24.4965 48.9009 24.0061C48.4413 23.5157 47.8786 23.2657 47.2221 23.2657ZM47.119 27.5157C46.6407 27.5157 46.2468 27.3522 45.9279 27.0253C45.609 26.6888 45.4496 26.2849 45.4496 25.7946C45.4496 25.3042 45.609 24.9003 45.9279 24.5734C46.2468 24.2369 46.6407 24.0734 47.119 24.0734C47.5879 24.0734 47.9818 24.2369 48.3007 24.5734C48.6195 24.9003 48.779 25.3042 48.779 25.7946C48.779 26.2849 48.6195 26.6888 48.3007 27.0253C47.9818 27.3522 47.5879 27.5157 47.119 27.5157Z" fill="#31475D"/>
  <path d="M55.0701 26.1792C55.0889 26.0542 55.0982 25.9292 55.0982 25.8042C55.0982 25.1023 54.8825 24.5061 54.4418 24.0157C54.0104 23.5157 53.4476 23.2657 52.763 23.2657C52.0409 23.2657 51.45 23.5061 50.9905 23.9869C50.531 24.4676 50.3059 25.0734 50.3059 25.7946C50.3059 26.5253 50.5403 27.1311 50.9999 27.6119C51.4688 28.083 52.0784 28.3234 52.8193 28.3234C53.7384 28.3234 54.423 27.958 54.8825 27.2369L54.1885 26.833C53.9072 27.3042 53.457 27.5349 52.838 27.5349C51.9471 27.5349 51.3 27.0349 51.1406 26.1792H55.0701ZM52.763 24.0542C53.5133 24.0542 54.1323 24.5349 54.2729 25.4484H51.1406C51.2812 24.6023 51.8908 24.0542 52.763 24.0542Z" fill="#31475D"/>
  <path d="M58.2309 28.3234C59.1406 28.3234 59.9378 27.833 60.3411 27.0734L59.6471 26.6599C59.3845 27.1696 58.8593 27.4965 58.2309 27.4965C57.762 27.4965 57.3681 27.333 57.0493 27.0061C56.7398 26.6792 56.5803 26.2753 56.5803 25.7946C56.5803 25.3042 56.7398 24.9003 57.0493 24.5734C57.3681 24.2465 57.762 24.083 58.2309 24.083C58.8593 24.083 59.3845 24.4196 59.6189 24.9292L60.3036 24.5253C59.9378 23.7561 59.1594 23.2657 58.2309 23.2657C57.5276 23.2657 56.9367 23.5061 56.4678 23.9965C55.9989 24.4773 55.7644 25.0734 55.7644 25.7946C55.7644 26.5157 55.9989 27.1119 56.4678 27.6022C56.9367 28.083 57.5276 28.3234 58.2309 28.3234Z" fill="#31475D"/>
  <path d="M61.5593 22.5157C61.8594 22.5157 62.1033 22.2657 62.1033 21.958C62.1033 21.6504 61.8594 21.3907 61.5593 21.3907C61.2498 21.3907 61.006 21.6504 61.006 21.958C61.006 22.2657 61.2498 22.5157 61.5593 22.5157ZM61.9626 28.1984V23.3907H61.1467V28.1984H61.9626Z" fill="#31475D"/>
  <path d="M67.09 24.2176C66.6868 23.583 66.0959 23.2657 65.3175 23.2657C64.661 23.2657 64.0983 23.5157 63.6388 24.0061C63.1792 24.4965 62.9448 25.0926 62.9448 25.7946C62.9448 26.4965 63.1792 27.1022 63.6388 27.5926C64.0983 28.083 64.661 28.3234 65.3175 28.3234C66.0959 28.3234 66.6868 28.0061 67.09 27.3715V28.1984H67.9059V23.3907H67.09V24.2176ZM65.4207 27.5157C64.9517 27.5157 64.5578 27.3522 64.239 27.0253C63.9201 26.6888 63.7607 26.2849 63.7607 25.7946C63.7607 25.3042 63.9201 24.9003 64.239 24.5734C64.5578 24.2369 64.9517 24.0734 65.4207 24.0734C65.899 24.0734 66.2929 24.2369 66.6117 24.5734C66.9306 24.9003 67.09 25.3042 67.09 25.7946C67.09 26.2849 66.9306 26.6888 66.6117 27.0253C66.2929 27.3522 65.899 27.5157 65.4207 27.5157Z" fill="#31475D"/>
  <path d="M69.9581 28.1984V21.1792H69.1421V28.1984H69.9581Z" fill="#31475D"/>
  <path d="M74.2508 24.6888C74.2508 24.2753 74.626 24.0446 75.0855 24.0446C75.5826 24.0446 75.9202 24.2465 76.089 24.6599L76.7736 24.2657C76.4735 23.6407 75.8451 23.2657 75.0855 23.2657C74.6072 23.2657 74.2133 23.4003 73.8944 23.6696C73.5849 23.9388 73.4255 24.285 73.4255 24.6984C73.4255 25.7176 74.3821 25.9676 75.123 26.1696C75.6388 26.2946 76.0515 26.5061 76.0515 26.8811C76.0515 27.333 75.6576 27.5349 75.123 27.5349C74.5509 27.5349 74.1101 27.2465 73.9601 26.7849L73.2567 27.1984C73.5287 27.8811 74.2133 28.3234 75.123 28.3234C75.6388 28.3234 76.0515 28.1888 76.3797 27.9292C76.708 27.6695 76.8768 27.3138 76.8768 26.8811C76.8862 25.8523 75.9108 25.5734 75.1793 25.4099C74.6635 25.2657 74.2508 25.0638 74.2508 24.6888Z" fill="#31475D"/>
  <path d="M79.9185 28.3234C80.8282 28.3234 81.6254 27.833 82.0287 27.0734L81.3347 26.6599C81.0721 27.1696 80.5469 27.4965 79.9185 27.4965C79.4496 27.4965 79.0557 27.333 78.7369 27.0061C78.4274 26.6792 78.2679 26.2753 78.2679 25.7946C78.2679 25.3042 78.4274 24.9003 78.7369 24.5734C79.0557 24.2465 79.4496 24.083 79.9185 24.083C80.5469 24.083 81.0721 24.4196 81.3065 24.9292L81.9912 24.5253C81.6254 23.7561 80.847 23.2657 79.9185 23.2657C79.2152 23.2657 78.6243 23.5061 78.1554 23.9965C77.6865 24.4773 77.452 25.0734 77.452 25.7946C77.452 26.5157 77.6865 27.1119 78.1554 27.6022C78.6243 28.083 79.2152 28.3234 79.9185 28.3234Z" fill="#31475D"/>
  <path d="M85.1695 23.2657C84.4849 23.2657 83.9784 23.535 83.6502 24.083V21.4677H82.8343V28.1984H83.6502V25.6503C83.6502 24.5734 84.1941 24.0638 85.0101 24.0638C85.7322 24.0638 86.173 24.5157 86.173 25.2946V28.1984H86.9889V25.2465C86.9889 24.0253 86.2668 23.2657 85.1695 23.2657Z" fill="#31475D"/>
  <path d="M92.0856 27.5926C92.5639 27.1022 92.8078 26.5061 92.8078 25.7946C92.8078 25.083 92.5639 24.4869 92.0856 23.9965C91.6073 23.5061 91.0165 23.2657 90.3319 23.2657C89.6473 23.2657 89.0564 23.5061 88.5781 23.9965C88.0998 24.4869 87.8653 25.083 87.8653 25.7946C87.8653 26.5061 88.0998 27.1022 88.5781 27.5926C89.0564 28.083 89.6473 28.3234 90.3319 28.3234C91.0165 28.3234 91.6073 28.083 92.0856 27.5926ZM90.3319 27.5061C89.8723 27.5061 89.4784 27.3426 89.1596 27.0157C88.8407 26.6888 88.6813 26.2849 88.6813 25.7946C88.6813 25.3042 88.8407 24.9003 89.1596 24.5734C89.4784 24.2465 89.8723 24.083 90.3319 24.083C90.8008 24.083 91.1947 24.2465 91.5136 24.5734C91.8324 24.9003 91.9919 25.3042 91.9919 25.7946C91.9919 26.2849 91.8324 26.6888 91.5136 27.0157C91.1947 27.3426 90.8008 27.5061 90.3319 27.5061Z" fill="#31475D"/>
  <path d="M97.7273 27.5926C98.2056 27.1022 98.4495 26.5061 98.4495 25.7946C98.4495 25.083 98.2056 24.4869 97.7273 23.9965C97.249 23.5061 96.6582 23.2657 95.9736 23.2657C95.289 23.2657 94.6981 23.5061 94.2198 23.9965C93.7415 24.4869 93.5071 25.083 93.5071 25.7946C93.5071 26.5061 93.7415 27.1022 94.2198 27.5926C94.6981 28.083 95.289 28.3234 95.9736 28.3234C96.6582 28.3234 97.249 28.083 97.7273 27.5926ZM95.9736 27.5061C95.514 27.5061 95.1201 27.3426 94.8013 27.0157C94.4824 26.6888 94.323 26.2849 94.323 25.7946C94.323 25.3042 94.4824 24.9003 94.8013 24.5734C95.1201 24.2465 95.514 24.083 95.9736 24.083C96.4425 24.083 96.8364 24.2465 97.1553 24.5734C97.4741 24.9003 97.6336 25.3042 97.6336 25.7946C97.6336 26.2849 97.4741 26.6888 97.1553 27.0157C96.8364 27.3426 96.4425 27.5061 95.9736 27.5061Z" fill="#31475D"/>
  <path d="M100.227 28.1984V21.1792H99.4114V28.1984H100.227Z" fill="#31475D"/>
</svg>