<svg width="1292" height="1024" viewBox="0 0 1292 1024" fill="none" xmlns="http://www.w3.org/2000/svg">
<path d="M90.9635 84.5743C88.8029 83.2239 86.9123 82.1436 85.0218 81.0633C84.7517 79.4428 84.7517 77.8224 84.4816 76.2019C82.8611 68.0996 80.4305 73.5011 79.3501 75.6617C79.0801 76.2019 77.1895 79.7129 76.9194 80.2531C76.1092 79.7129 67.1966 77.5523 66.1163 79.983C65.3061 81.8735 72.8683 85.3846 73.6785 87.5452C72.3281 90.516 69.8974 94.5672 68.547 97.5381C67.7368 99.1585 70.4376 98.0782 72.3281 97.5381C74.4887 96.9979 76.6494 95.9176 78.5399 95.1074C79.3501 96.1877 83.1312 101.319 84.2115 101.589C87.1824 104.02 85.832 92.9467 85.832 90.7861C87.4525 89.7058 88.8029 89.9759 90.9635 89.4357C95.2847 88.3554 94.7446 87.005 90.9635 84.5743Z" fill="#DDEDFF"/>
<path d="M1149.13 99.6993C1146.97 98.349 1145.08 97.2686 1143.19 96.1883C1142.92 94.5679 1142.92 92.9474 1142.65 91.3269C1141.03 83.2246 1138.6 88.6261 1137.52 90.7868C1137.25 91.3269 1135.35 94.8379 1135.08 95.3781C1134.27 94.8379 1125.36 92.6773 1124.28 95.108C1123.47 96.9986 1131.03 100.51 1131.84 102.67C1130.49 105.641 1128.06 109.692 1126.71 112.663C1125.9 114.284 1128.6 113.203 1130.49 112.663C1132.65 112.123 1134.81 111.043 1136.7 110.232C1137.52 111.313 1141.3 116.444 1142.38 116.714C1145.35 119.145 1144 108.072 1144 105.911C1145.62 104.831 1146.97 105.101 1149.13 104.561C1153.45 103.21 1152.64 101.86 1149.13 99.6993Z" fill="#DDEDFF"/>
<path d="M1013.82 489.691C1011.66 488.341 1009.77 487.261 1007.88 486.18C1007.61 484.56 1007.61 482.939 1007.34 481.319C1005.72 473.217 1003.29 478.618 1002.21 480.779C1001.94 481.319 1000.05 484.83 999.776 485.37C998.966 484.83 990.053 482.669 988.973 485.1C988.163 486.99 995.725 490.501 996.535 492.662C995.185 495.633 992.754 499.684 991.403 502.655C990.593 504.275 993.294 503.195 995.185 502.655C997.345 502.115 999.506 501.035 1001.4 500.224C1002.21 501.305 1005.99 506.436 1007.07 506.706C1010.04 509.137 1008.69 498.064 1008.69 495.903C1010.31 494.823 1011.66 495.093 1013.82 494.553C1018.14 493.472 1017.33 492.122 1013.82 489.691Z" fill="#DDEDFF"/>
<path d="M1245.82 713.047C1243.66 711.697 1241.77 710.617 1239.88 709.536C1239.61 707.916 1239.61 706.295 1239.34 704.675C1237.72 696.573 1235.28 701.974 1234.2 704.135C1233.93 704.675 1232.04 708.186 1231.77 708.726C1230.96 708.186 1222.05 706.025 1220.97 708.456C1220.16 710.347 1227.72 713.858 1228.53 716.018C1227.18 718.989 1224.75 723.04 1223.4 726.011C1222.59 727.632 1225.29 726.551 1227.18 726.011C1229.34 725.471 1231.5 724.391 1233.39 723.58C1234.2 724.661 1237.99 729.792 1239.07 730.062C1242.04 732.493 1240.69 721.42 1240.69 719.259C1242.31 718.179 1243.66 718.449 1245.82 717.909C1250.41 716.828 1249.6 715.478 1245.82 713.047Z" fill="#DDEDFF"/>
<path d="M222.491 934.51C220.33 933.16 218.44 932.08 216.549 930.999C216.279 929.379 216.279 927.758 216.009 926.138C214.389 918.036 211.958 923.437 210.877 925.598C210.607 926.138 208.717 929.649 208.447 930.189C207.637 929.649 198.724 927.488 197.644 929.919C196.833 931.809 204.396 935.321 205.206 937.481C203.855 940.452 201.425 944.503 200.074 947.474C199.264 949.094 201.965 948.014 203.855 947.474C206.016 946.934 208.177 945.854 210.067 945.043C210.877 946.124 214.659 951.255 215.739 951.525C218.71 953.956 217.359 942.883 217.359 940.722C218.98 939.642 220.33 939.912 222.491 939.372C226.812 938.291 226.002 936.941 222.491 934.51Z" fill="#DDEDFF"/>
<path d="M318.098 445.4C319.719 443.509 321.069 441.619 322.42 439.728C324.04 439.728 325.66 439.728 327.281 439.728C335.383 439.188 330.522 436.217 328.631 434.867C328.091 434.597 324.85 432.166 324.31 431.896C324.85 431.086 328.091 422.713 325.931 421.093C324.04 420.013 319.719 427.035 317.288 427.575C314.587 425.954 310.806 422.713 308.105 421.093C306.485 420.013 307.295 422.713 307.565 424.874C307.835 427.035 308.646 429.195 309.186 431.356C307.835 431.896 302.434 435.137 302.164 435.947C299.193 438.378 310.536 438.918 312.697 438.918C313.507 440.809 313.237 441.889 313.507 444.05C313.777 449.181 315.127 448.641 318.098 445.4Z" fill="#DDEDFF"/>
<path d="M650.836 23.807C652.456 22.4566 653.536 21.1062 655.157 19.7558C656.507 20.0259 657.858 20.296 659.208 20.296C665.96 20.8362 662.179 17.5952 660.829 16.5149C660.559 16.2448 657.858 13.8141 657.588 13.5441C658.128 13.0039 661.909 6.25194 660.018 4.90155C658.668 3.82124 654.347 9.2228 652.186 9.2228C650.296 7.60233 647.325 4.63147 645.434 2.74093C644.354 1.66061 644.624 4.09132 644.624 5.71178C644.624 7.60233 645.164 9.49288 645.164 11.3834C644.084 11.6535 639.222 13.8141 638.952 14.3543C636.251 15.9748 645.434 17.5952 647.325 18.1354C647.865 19.7558 647.325 20.5661 647.325 22.4566C647.055 26.2377 648.135 25.9676 650.836 23.807Z" fill="#DDEDFF"/>
<path d="M53.9627 711.157C55.5831 709.806 56.6634 708.456 58.2839 707.105C59.6343 707.376 60.9847 707.646 62.3351 707.646C69.087 708.186 65.3059 704.945 63.9555 703.865C63.6855 703.594 60.9847 701.164 60.7146 700.894C61.2548 700.354 65.0359 693.602 63.1453 692.251C61.7949 691.171 57.4737 696.572 55.313 696.572C53.4225 694.952 50.4516 691.981 48.5611 690.091C47.4808 689.01 47.7509 691.441 47.7509 693.061C47.7509 694.952 48.291 696.842 48.291 698.733C47.2107 699.003 42.3493 701.164 42.0792 701.704C39.3784 703.324 48.5611 704.945 50.4516 705.485C50.9918 707.105 50.4516 707.916 50.4516 709.806C49.9115 713.857 51.2619 713.587 53.9627 711.157Z" fill="#DDEDFF"/>
<path d="M965.746 845.114C967.637 843.494 969.257 841.603 971.148 839.983C972.768 840.253 974.389 840.523 976.279 840.793C984.652 841.333 980.061 837.552 978.44 835.932C977.9 835.392 974.929 832.691 974.389 832.151C974.929 831.611 979.79 822.968 977.63 821.348C976.009 819.997 970.338 826.749 967.907 827.019C965.476 824.859 961.965 821.077 959.265 818.917C957.644 817.566 958.184 820.537 958.184 822.698C958.184 825.129 958.724 827.559 958.994 829.72C957.644 830.26 951.432 832.691 950.892 833.501C947.651 835.662 958.994 837.552 961.425 838.092C961.965 839.983 961.425 841.333 961.425 843.494C960.885 848.625 962.506 848.085 965.746 845.114Z" fill="#DDEDFF"/>
<path d="M1253.11 1024.72C1254.73 1023.37 1255.81 1022.02 1257.43 1020.67C1258.78 1020.94 1260.13 1021.21 1261.48 1021.21C1268.23 1021.75 1264.45 1018.51 1263.1 1017.43C1262.83 1017.16 1260.13 1014.72 1259.86 1014.45C1260.4 1013.91 1264.18 1007.16 1262.29 1005.81C1260.94 1004.73 1256.62 1010.13 1254.46 1010.13C1252.57 1008.51 1249.6 1005.54 1247.71 1003.65C1246.63 1002.57 1246.9 1005 1246.9 1006.62C1246.9 1008.51 1247.44 1010.4 1247.44 1012.29C1246.36 1012.56 1241.5 1014.72 1241.23 1015.26C1238.52 1016.89 1247.71 1018.51 1249.6 1019.05C1250.14 1020.67 1249.6 1021.48 1249.6 1023.37C1249.06 1027.15 1250.41 1026.88 1253.11 1024.72Z" fill="#DDEDFF"/>
<path d="M1226.37 380.579C1227.45 379.769 1228.26 378.689 1229.34 377.609C1230.15 377.879 1231.23 377.879 1232.04 377.879C1236.63 378.149 1234.2 375.988 1233.12 375.178C1232.85 374.908 1231.23 373.287 1230.96 373.017C1231.23 372.747 1233.93 367.886 1232.85 367.076C1231.77 366.265 1228.8 370.046 1227.45 370.316C1226.1 369.236 1224.21 367.076 1222.59 365.725C1221.78 364.915 1222.05 366.535 1222.05 367.886C1222.05 369.236 1222.32 370.587 1222.59 371.937C1221.78 372.207 1218.27 373.557 1218 374.098C1216.11 375.178 1222.59 376.528 1223.94 376.798C1224.21 377.879 1223.94 378.689 1223.94 379.769C1223.67 382.47 1224.48 382.2 1226.37 380.579Z" fill="#DDEDFF"/>
<path d="M862.846 172.08C863.926 171.27 864.737 170.19 865.817 169.11C866.627 169.38 867.708 169.38 868.518 169.38C873.109 169.65 870.678 167.489 869.598 166.679C869.328 166.409 867.708 164.788 867.438 164.518C867.708 164.248 870.408 159.387 869.328 158.577C868.248 157.766 865.277 161.547 863.926 161.818C862.576 160.737 860.686 158.577 859.065 157.226C858.255 156.416 858.525 158.036 858.525 159.387C858.525 160.737 858.795 162.088 859.065 163.438C858.255 163.708 854.744 165.058 854.474 165.599C852.583 166.949 859.065 168.029 860.415 168.299C860.686 169.38 860.415 170.19 860.415 171.27C860.145 173.971 860.956 173.701 862.846 172.08Z" fill="#DDEDFF"/>
<path d="M1232.04 59.1877C1233.12 58.3775 1233.93 57.2972 1235.01 56.2169C1235.82 56.487 1236.9 56.487 1237.72 56.487C1242.31 56.757 1239.88 54.5964 1238.8 53.7862C1238.53 53.5161 1236.9 51.8956 1236.63 51.6256C1236.9 51.3555 1239.61 46.4941 1238.53 45.6838C1237.44 44.8736 1234.47 48.6547 1233.12 48.9248C1231.77 47.8445 1229.88 45.6838 1228.26 44.3335C1227.45 43.5232 1227.72 45.1437 1227.72 46.4941C1227.72 47.8445 1227.99 49.1949 1228.26 50.5452C1227.45 50.8153 1223.94 52.1657 1223.67 52.7059C1221.78 53.7862 1228.26 55.1366 1229.61 55.4067C1229.88 56.487 1229.61 57.2972 1229.61 58.3775C1229.34 61.0783 1230.15 60.8082 1232.04 59.1877Z" fill="#DDEDFF"/>
<path d="M1053.25 388.412C1054.33 387.602 1055.14 386.522 1056.22 385.441C1057.03 385.711 1058.11 385.711 1058.92 385.711C1063.51 385.981 1061.08 383.821 1060 383.011C1059.73 382.74 1058.11 381.12 1057.84 380.85C1058.11 380.58 1060.81 375.718 1059.73 374.908C1058.65 374.098 1055.68 377.879 1054.33 378.149C1052.98 377.069 1051.09 374.908 1049.47 373.558C1048.66 372.748 1048.93 374.368 1048.93 375.718C1048.93 377.069 1049.2 378.419 1049.47 379.77C1048.66 380.04 1045.15 381.39 1044.88 381.93C1042.99 383.011 1049.47 384.361 1050.82 384.631C1051.09 385.711 1050.82 386.522 1050.82 387.602C1050.55 390.303 1051.36 390.303 1053.25 388.412Z" fill="#DDEDFF"/>
<path d="M220.061 249.053C221.141 248.243 221.952 247.162 223.032 246.082C223.842 246.352 224.922 246.352 225.733 246.352C230.324 246.622 227.893 244.462 226.813 243.651C226.543 243.381 224.922 241.761 224.652 241.491C224.922 241.221 227.623 236.359 226.543 235.549C225.463 234.739 222.492 238.52 221.141 238.79C219.791 237.71 217.9 235.549 216.28 234.199C215.47 233.388 215.74 235.009 215.74 236.359C215.74 237.71 216.01 239.06 216.28 240.41C215.47 240.681 211.959 242.031 211.689 242.571C209.798 243.651 216.28 245.002 217.63 245.272C217.9 246.352 217.63 247.162 217.63 248.243C217.36 250.943 218.441 250.673 220.061 249.053Z" fill="#DDEDFF"/>
<path d="M272.726 666.863C273.806 666.053 274.617 664.972 275.697 663.892C276.507 664.162 277.587 664.162 278.398 664.162C282.989 664.432 280.558 662.271 279.478 661.461C279.208 661.191 277.587 659.571 277.317 659.301C277.587 659.031 280.288 654.169 279.208 653.359C278.128 652.549 275.157 656.33 273.806 656.6C272.456 655.519 270.565 653.359 268.945 652.008C268.135 651.198 268.405 652.819 268.405 654.169C268.405 655.519 268.675 656.87 268.945 658.22C268.135 658.49 264.624 659.841 264.354 660.381C262.463 661.731 268.945 662.812 270.295 663.082C270.565 664.162 270.295 664.972 270.295 666.053C270.025 668.753 270.835 668.483 272.726 666.863Z" fill="#DDEDFF"/>
<path d="M9.12936 421.091C10.2097 420.281 11.0199 419.201 12.1002 418.121C12.9105 418.391 13.9908 418.391 14.801 418.391C19.3923 418.661 16.9616 416.5 15.8813 415.69C15.6112 415.42 13.9908 413.799 13.7207 413.529C13.9908 413.259 16.6915 408.398 15.6112 407.588C14.5309 406.777 11.5601 410.558 10.2097 410.829C8.85928 409.748 6.96874 407.588 5.34827 406.237C4.53804 405.427 4.80811 407.047 4.80811 408.398C4.80811 409.748 5.07819 411.099 5.34827 412.449C4.53804 412.719 1.02702 414.069 0.756943 414.61C-1.1336 415.96 5.34827 417.04 6.69866 417.31C6.96874 418.391 6.69866 419.201 6.69866 420.281C6.1585 422.982 7.23882 422.712 9.12936 421.091Z" fill="#DDEDFF"/>
<path d="M378.326 67.2893C379.406 66.4791 380.216 65.3988 381.297 64.3185C382.107 64.5886 383.187 64.5886 383.997 64.5886C388.589 64.8586 386.158 62.698 385.078 61.8878C384.808 61.6177 383.187 59.9972 382.917 59.7272C383.187 59.4571 385.888 54.5957 384.808 53.7854C383.727 52.9752 380.756 56.7563 379.406 57.0264C378.056 55.9461 376.165 53.7854 374.545 52.435C373.734 51.6248 374.004 53.2453 374.004 54.5957C374.004 55.9461 374.274 57.2964 374.545 58.6468C373.734 58.9169 370.223 60.2673 369.953 60.8075C368.063 62.1579 374.545 63.2382 375.895 63.5082C376.165 64.5886 375.895 65.3988 375.895 66.4791C375.625 69.1799 376.435 68.9098 378.326 67.2893Z" fill="#DDEDFF"/>
<path d="M386.699 178.291C390.48 178.291 390.75 172.079 386.699 172.079C382.647 172.349 382.647 178.291 386.699 178.291Z" fill="#DDEDFF"/>
<path d="M835.838 64.3195C842.32 64.3195 842.32 54.0565 835.838 54.0565C829.356 54.0565 829.356 64.3195 835.838 64.3195Z" fill="#DDEDFF"/>
<path d="M1124.01 663.082C1127.79 663.082 1128.06 656.87 1124.01 656.87C1120.23 656.87 1120.23 663.082 1124.01 663.082Z" fill="#DDEDFF"/>
<path d="M1135.63 879.955C1142.11 879.955 1142.11 869.692 1135.63 869.692C1129.14 869.692 1129.14 879.955 1135.63 879.955Z" fill="#DDEDFF"/>
<path d="M20.2031 203.68C25.3346 203.68 25.3346 195.577 20.2031 195.577C15.0716 195.577 15.0716 203.68 20.2031 203.68Z" fill="#DDEDFF"/>
<path d="M86.9115 184.774C92.043 184.774 92.043 176.672 86.9115 176.672C81.51 176.672 81.51 184.774 86.9115 184.774Z" fill="#DDEDFF"/>
<path d="M1289.57 205.569C1290.38 205.569 1290.38 204.489 1289.57 204.489C1288.76 204.489 1288.76 205.569 1289.57 205.569Z" fill="#DDEDFF"/>
<path d="M917.672 656.06C922.804 656.06 922.804 647.958 917.672 647.958C912.271 647.958 912.271 656.06 917.672 656.06Z" fill="#DDEDFF"/>
<path d="M1115.1 6.52231C1120.23 6.52231 1120.23 -1.58003 1115.1 -1.58003C1109.7 -1.58003 1109.7 6.52231 1115.1 6.52231Z" fill="#DDEDFF"/>
<path d="M1278.77 841.064C1283.9 841.064 1283.9 832.962 1278.77 832.962C1273.64 832.962 1273.64 841.064 1278.77 841.064Z" fill="#DDEDFF"/>
<path d="M30.1957 878.875C35.3272 878.875 35.3272 870.773 30.1957 870.773C24.7941 870.773 24.7941 878.875 30.1957 878.875Z" fill="#DDEDFF"/>
<path d="M195.754 824.049C196.564 824.049 196.564 822.698 195.754 822.698C194.944 822.969 194.944 824.049 195.754 824.049Z" fill="#DDEDFF"/>
<path d="M147.14 402.727C147.95 402.727 147.95 401.377 147.14 401.377C146.33 401.647 146.33 402.727 147.14 402.727Z" fill="#DDEDFF"/>
<path d="M233.564 30.8299C238.696 30.8299 238.696 22.7275 233.564 22.7275C228.433 22.7275 228.433 30.8299 233.564 30.8299Z" fill="#DDEDFF"/>
<path d="M72.3271 155.065C77.4586 155.065 77.4586 146.962 72.3271 146.962C67.1956 146.962 67.1956 155.065 72.3271 155.065Z" fill="#DDEDFF"/>
<path d="M550.366 89.4364C555.498 89.4364 555.498 81.3341 550.366 81.3341C545.235 81.3341 545.235 89.4364 550.366 89.4364Z" fill="#DDEDFF"/>
<path d="M71.7363 150.507L19.6084 199.156L20.5298 200.143L72.6576 151.495L71.7363 150.507Z" fill="#DDEDFF"/>
<path d="M72.8479 150.557L71.6318 151.145L86.079 181.059L87.2951 180.472L72.8479 150.557Z" fill="#DDEDFF"/>
<path d="M937.927 30.8294C944.409 30.8294 944.409 20.5665 937.927 20.5665C931.175 20.8366 931.175 30.8294 937.927 30.8294Z" fill="#DDEDFF"/>
<path d="M995.994 49.4649C1002.48 49.4649 1002.48 39.2019 995.994 39.2019C989.512 39.2019 989.512 49.4649 995.994 49.4649Z" fill="#DDEDFF"/>
<path d="M939.66 26.0887L939.26 27.3783L996.003 45.0015L996.404 43.7118L939.66 26.0887Z" fill="#DDEDFF"/>
<path d="M171.717 341.419C178.199 341.419 178.199 331.156 171.717 331.156C165.235 331.156 165.235 341.419 171.717 341.419Z" fill="#DDEDFF"/>
<path d="M111.489 351.142C117.971 351.142 117.971 340.879 111.489 340.879C105.007 341.149 105.007 351.142 111.489 351.142Z" fill="#DDEDFF"/>
<path d="M169.844 335.631L111.271 345.607L111.497 346.938L170.071 336.962L169.844 335.631Z" fill="#DDEDFF"/>
<path d="M1208.28 463.494C1214.76 463.494 1214.76 453.231 1208.28 453.231C1201.8 453.231 1201.8 463.494 1208.28 463.494Z" fill="#DDEDFF"/>
<path d="M1148.05 473.487C1154.53 473.487 1154.53 463.225 1148.05 463.225C1141.57 463.225 1141.57 473.487 1148.05 473.487Z" fill="#DDEDFF"/>
<path d="M1206.39 457.714L1147.82 467.69L1148.05 469.021L1206.62 459.045L1206.39 457.714Z" fill="#DDEDFF"/>
<path d="M1287.14 523.181C1293.62 523.181 1293.62 512.918 1287.14 512.918C1280.66 513.189 1280.66 523.181 1287.14 523.181Z" fill="#DDEDFF"/>
<path d="M1226.91 533.175C1233.39 533.175 1233.39 522.912 1226.91 522.912C1220.16 523.182 1220.16 533.175 1226.91 533.175Z" fill="#DDEDFF"/>
<path d="M1285.23 517.384L1226.66 527.36L1226.88 528.692L1285.46 518.715L1285.23 517.384Z" fill="#DDEDFF"/>
<path d="M1209.01 458.284L1207.7 458.621L1226.14 530.008L1227.45 529.67L1209.01 458.284Z" fill="#DDEDFF"/>
</svg>
