<svg xmlns="http://www.w3.org/2000/svg" width="20" height="20" viewBox="0 0 20 20" fill="none">
  <path d="M17.6172 14.6093C16.9969 13.9843 15.4945 13.0722 14.7656 12.7047C13.8164 12.2265 13.7383 12.1875 12.9922 12.7418C12.4945 13.1117 12.1637 13.4422 11.5812 13.3179C10.9988 13.1937 9.73318 12.4933 8.62498 11.3886C7.51678 10.284 6.77576 8.98161 6.65115 8.40114C6.52654 7.82067 6.86248 7.49372 7.22889 6.99489C7.74529 6.29176 7.70623 6.17458 7.26482 5.22536C6.92068 4.48708 5.98201 2.99879 5.35467 2.38161C4.68357 1.71872 4.68357 1.8359 4.25115 2.01559C3.89911 2.16371 3.56137 2.34376 3.24217 2.55348C2.61717 2.96872 2.27029 3.31364 2.02771 3.832C1.78514 4.35036 1.67615 5.56559 2.92889 7.84137C4.18162 10.1172 5.06053 11.2808 6.87967 13.0949C8.69881 14.909 10.0976 15.8843 12.1426 17.0312C14.6722 18.448 15.6426 18.1718 16.1625 17.9297C16.6824 17.6875 17.0289 17.3437 17.4449 16.7187C17.6552 16.4001 17.8356 16.0627 17.984 15.7109C18.164 15.28 18.2812 15.28 17.6172 14.6093Z" stroke="#46A0DC" stroke-width="1.5" stroke-miterlimit="10"/>
</svg>