<svg width="279" height="223" viewBox="0 0 279 223" fill="none" xmlns="http://www.w3.org/2000/svg">
<rect x="-0.446441" y="-0.497123" width="132.027" height="86.4583" rx="10.5" transform="matrix(1 0 -0.107119 0.994246 103.998 0.99714)" fill="white" stroke="#B5DBFF"/>
<path d="M102.867 11.3625H233.962L226.996 75.9826C226.404 81.4737 221.447 85.9251 215.924 85.9251H104.83C99.3068 85.9251 95.3095 81.4737 95.9014 75.9826L102.867 11.3625Z" fill="#DDEDFF"/>
<rect x="-0.446414" y="-0.497123" width="127.28" height="69.8597" rx="6.5" transform="matrix(1 0 -0.107171 0.994246 104.893 14.4088)" fill="white" stroke="#B5DBFF"/>
<rect width="16.4777" height="3.18461" rx="1.5923" transform="matrix(1 0 -0.107171 0.994246 142.089 18.5503)" fill="#B5DBFF"/>
<rect width="16.4777" height="3.18461" rx="1.5923" transform="matrix(1 0 -0.107171 0.994246 165.196 18.5503)" fill="#B5DBFF"/>
<rect width="16.4777" height="3.18461" rx="1.5923" transform="matrix(1 0 -0.107171 0.994246 188.302 18.5503)" fill="#B5DBFF"/>
<rect x="-0.446414" y="-0.497123" width="27.471" height="7.46729" rx="3.5" transform="matrix(1 0 -0.107171 0.994246 108.345 18.9844)" fill="white" stroke="#B5DBFF"/>
<rect x="-0.446414" y="-0.497123" width="5.68719" height="5.69289" rx="2.84359" transform="matrix(1 0 -0.107171 0.994246 141.612 25.9647)" fill="white" stroke="#B5DBFF"/>
<rect x="-0.446414" y="-0.497123" width="5.68719" height="5.69289" rx="2.84359" transform="matrix(1 0 -0.107171 0.994246 140.796 33.5406)" fill="white" stroke="#B5DBFF"/>
<rect x="-0.446414" y="-0.497123" width="5.68719" height="5.69289" rx="2.84359" transform="matrix(1 0 -0.107171 0.994246 139.98 41.1163)" fill="white" stroke="#B5DBFF"/>
<rect x="-0.446414" y="-0.497123" width="5.68719" height="5.69289" rx="2.84359" transform="matrix(1 0 -0.107171 0.994246 139.163 48.6922)" fill="white" stroke="#B5DBFF"/>
<rect x="-0.446414" y="-0.497123" width="5.68719" height="5.69289" rx="2.84359" transform="matrix(1 0 -0.107171 0.994246 138.346 56.2676)" fill="white" stroke="#B5DBFF"/>
<rect x="-0.446414" y="-0.497123" width="5.68719" height="5.69289" rx="2.84359" transform="matrix(1 0 -0.107171 0.994246 137.53 63.8436)" fill="white" stroke="#B5DBFF"/>
<rect x="-0.446414" y="-0.497123" width="5.68719" height="5.69289" rx="2.84359" transform="matrix(1 0 -0.107171 0.994246 136.713 71.4195)" fill="white" stroke="#B5DBFF"/>
<rect width="16.7165" height="1.9945" rx="0.99725" transform="matrix(1 0 -0.107171 0.994246 149.358 27.3091)" fill="#DDEDFF"/>
<rect width="16.7165" height="1.9945" rx="0.99725" transform="matrix(1 0 -0.107171 0.994246 148.541 34.885)" fill="#DDEDFF"/>
<rect width="16.7165" height="1.9945" rx="0.99725" transform="matrix(1 0 -0.107171 0.994246 147.725 42.4604)" fill="#DDEDFF"/>
<rect width="16.7165" height="1.9945" rx="0.99725" transform="matrix(1 0 -0.107171 0.994246 146.908 50.0366)" fill="#DDEDFF"/>
<rect width="16.7165" height="1.9945" rx="0.99725" transform="matrix(1 0 -0.107171 0.994246 146.092 57.6123)" fill="#DDEDFF"/>
<rect width="16.7165" height="1.9945" rx="0.99725" transform="matrix(1 0 -0.107171 0.994246 145.275 65.188)" fill="#DDEDFF"/>
<rect width="16.7165" height="1.9945" rx="0.99725" transform="matrix(1 0 -0.107171 0.994246 144.458 72.7639)" fill="#DDEDFF"/>
<rect width="29.9122" height="1.9945" rx="0.99725" transform="matrix(1 0 -0.107171 0.994246 169.775 27.3091)" fill="#DDEDFF"/>
<rect width="29.9122" height="1.9945" rx="0.99725" transform="matrix(1 0 -0.107171 0.994246 168.959 34.885)" fill="#DDEDFF"/>
<rect width="29.9122" height="1.9945" rx="0.99725" transform="matrix(1 0 -0.107171 0.994246 168.142 42.4604)" fill="#DDEDFF"/>
<rect width="29.9122" height="1.9945" rx="0.99725" transform="matrix(1 0 -0.107171 0.994246 167.326 50.0366)" fill="#DDEDFF"/>
<rect width="29.9122" height="1.9945" rx="0.99725" transform="matrix(1 0 -0.107171 0.994246 166.509 57.6123)" fill="#DDEDFF"/>
<rect width="29.9122" height="1.9945" rx="0.99725" transform="matrix(1 0 -0.107171 0.994246 165.693 65.188)" fill="#DDEDFF"/>
<rect width="29.9122" height="1.9945" rx="0.99725" transform="matrix(1 0 -0.107171 0.994246 164.876 72.7639)" fill="#DDEDFF"/>
<rect width="20.2377" height="1.9945" rx="0.99725" transform="matrix(1 0 -0.107171 0.994246 204.606 27.3091)" fill="#DDEDFF"/>
<rect width="20.2377" height="1.9945" rx="0.99725" transform="matrix(1 0 -0.107171 0.994246 203.79 34.885)" fill="#DDEDFF"/>
<rect width="20.2377" height="1.9945" rx="0.99725" transform="matrix(1 0 -0.107171 0.994246 202.973 42.4604)" fill="#DDEDFF"/>
<rect width="20.2377" height="1.9945" rx="0.99725" transform="matrix(1 0 -0.107171 0.994246 202.157 50.0366)" fill="#DDEDFF"/>
<rect width="20.2377" height="1.9945" rx="0.99725" transform="matrix(1 0 -0.107171 0.994246 201.34 57.6123)" fill="#DDEDFF"/>
<rect width="20.2377" height="1.9945" rx="0.99725" transform="matrix(1 0 -0.107171 0.994246 200.523 65.188)" fill="#DDEDFF"/>
<rect width="20.2377" height="1.9945" rx="0.99725" transform="matrix(1 0 -0.107171 0.994246 199.707 72.7639)" fill="#DDEDFF"/>
<rect width="20.5469" height="2.92716" rx="1.46358" transform="matrix(1 0 -0.107171 0.994246 107.143 30.6333)" fill="#B5DBFF"/>
<rect width="17.0585" height="1.9945" rx="0.99725" transform="matrix(1 0 -0.107171 0.994246 106.441 37.146)" fill="#DDEDFF"/>
<rect width="17.0585" height="1.9945" rx="0.99725" transform="matrix(1 0 -0.107171 0.994246 105.838 42.7368)" fill="#DDEDFF"/>
<rect width="20.5469" height="2.92716" rx="1.46358" transform="matrix(1 0 -0.107171 0.994246 105.237 48.3223)" fill="#B5DBFF"/>
<rect width="17.0585" height="1.9945" rx="0.99725" transform="matrix(1 0 -0.107171 0.994246 104.534 54.835)" fill="#DDEDFF"/>
<rect width="17.0585" height="1.9945" rx="0.99725" transform="matrix(1 0 -0.107171 0.994246 103.932 60.4255)" fill="#DDEDFF"/>
<ellipse cx="0.45086" cy="0.451628" rx="0.45086" ry="0.451628" transform="matrix(1 0 -0.107171 0.994246 225.026 17.26)" fill="#D7E9FE"/>
<ellipse cx="0.45086" cy="0.451628" rx="0.45086" ry="0.451628" transform="matrix(1 0 -0.107171 0.994246 224.888 18.5391)" fill="#D7E9FE"/>
<ellipse cx="0.45086" cy="0.451628" rx="0.45086" ry="0.451628" transform="matrix(1 0 -0.107171 0.994246 224.751 19.8171)" fill="#D7E9FE"/>
<path d="M138.713 14.3601L131.327 82.8788" stroke="#B5DBFF"/>
<rect x="0.553579" y="-0.497123" width="6.45036" height="6.45698" rx="3.22518" transform="matrix(-1 0 -0.107158 0.994246 231.244 2.99519)" fill="white" stroke="#B5DBFF"/>
<rect width="56.3371" height="4.4219" rx="2.21095" transform="matrix(1 0 -0.107158 0.994246 143.71 3.51294)" fill="#DDEDFF"/>
<rect x="-0.446421" y="-0.497123" width="6.45036" height="6.45698" rx="3.22518" transform="matrix(1 0 -0.107158 0.994246 127.27 2.99519)" fill="white" stroke="#B5DBFF"/>
<path d="M130.549 4.10767L128.9 5.59008L130.229 7.0725" stroke="#B5DBFF" stroke-linecap="round" stroke-linejoin="round"/>
<rect x="0.553579" y="-0.497123" width="6.45036" height="6.45698" rx="3.22518" transform="matrix(-1 0 -0.107158 0.994246 141.438 2.99519)" fill="white" stroke="#B5DBFF"/>
<path d="M136.919 4.10767L138.247 5.59008L136.599 7.0725" stroke="#B5DBFF" stroke-linecap="round" stroke-linejoin="round"/>
<ellipse cx="1.69616" cy="1.69844" rx="1.69616" ry="1.69844" transform="matrix(1 0 -0.107158 0.994246 107.512 4.10742)" fill="#E55A9E"/>
<ellipse cx="1.69616" cy="1.69844" rx="1.69616" ry="1.69844" transform="matrix(1 0 -0.107158 0.994246 112.161 4.10742)" fill="#F4D179"/>
<ellipse cx="1.69616" cy="1.69844" rx="1.69616" ry="1.69844" transform="matrix(1 0 -0.107158 0.994246 116.81 4.10742)" fill="#B2CC6C"/>
<path d="M223.347 219.319L214.815 149.437H211.525L220.869 219.635C220.952 220.256 221.481 220.719 222.107 220.719C222.857 220.719 223.438 220.063 223.347 219.319Z" fill="#F77E7E"/>
<path d="M215.15 152.179L214.809 149.36L211.48 149.146L212.001 153.016L215.15 152.179Z" fill="#D74C4C"/>
<path d="M174.953 219.32L183.485 149.438H186.775L177.43 219.636C177.348 220.257 176.818 220.72 176.192 220.72C175.443 220.72 174.862 220.064 174.953 219.32Z" fill="#F77E7E"/>
<path d="M183.145 152.179L183.486 149.36L186.815 149.146L186.294 153.016L183.145 152.179Z" fill="#D74C4C"/>
<path d="M128.432 219.319L119.9 149.437H116.61L125.954 219.635C126.037 220.256 126.566 220.719 127.192 220.719C127.942 220.719 128.523 220.063 128.432 219.319Z" fill="#F77E7E"/>
<path d="M120.235 152.179L119.894 149.36L116.565 149.146L117.086 153.016L120.235 152.179Z" fill="#D74C4C"/>
<path d="M80.0377 219.32L88.57 149.438H91.8599L82.5153 219.636C82.4327 220.257 81.9034 220.72 81.2774 220.72C80.5276 220.72 79.9468 220.064 80.0377 219.32Z" fill="#F77E7E"/>
<path d="M88.23 152.179L88.5712 149.36L91.9 149.146L91.3785 153.016L88.23 152.179Z" fill="#D74C4C"/>
<path d="M178.271 145.155H81.2C80.0177 145.155 79.0593 146.114 79.0593 147.296C79.0593 148.478 80.0177 149.437 81.2 149.437H178.271V145.155Z" fill="#D7DCFE"/>
<path d="M222.309 147.297C222.309 146.114 221.35 145.156 220.168 145.156H177.379C176.196 145.156 175.238 146.114 175.238 147.297C175.238 148.479 176.196 149.437 177.379 149.437H220.168C221.35 149.437 222.309 148.479 222.309 147.297Z" fill="#B5BFFF"/>
<path d="M99.0869 211.996C97.442 211.845 95.9849 213.052 95.8275 214.697L95.5844 217.235L105.701 218.312L106.034 215.179L103.662 212.842L103.453 211.861C103.302 211.153 102.713 210.622 101.994 210.546L101.714 210.516C100.805 210.419 100.037 211.181 100.125 212.091L99.0869 211.996Z" fill="url(#paint0_linear_1_1615)"/>
<path d="M95.2087 217.48L95.1374 218.152C95.1195 218.32 95.2406 218.47 95.4083 218.488L109.729 219.941C109.907 219.96 110.064 219.829 110.083 219.655L110.164 218.922C110.164 218.922 110.512 216.591 108.147 215.856L106.027 215.183L105.694 218.316L95.5406 217.212C95.3768 217.188 95.2265 217.312 95.2087 217.48Z" fill="url(#paint1_linear_1_1615)"/>
<path d="M109.768 219.109L106.25 218.752C106.134 218.74 106.054 218.633 106.068 218.514C106.081 218.396 106.185 218.307 106.298 218.318L109.816 218.675C109.932 218.687 110.012 218.794 109.998 218.913C109.985 219.031 109.884 219.121 109.768 219.109Z" fill="url(#paint2_linear_1_1615)"/>
<path d="M104.014 212.986L103.421 213.384" stroke="#3B445E" stroke-width="1.5" stroke-linecap="round"/>
<path d="M104.673 213.715L104.079 214.113" stroke="#3B445E" stroke-width="1.5" stroke-linecap="round"/>
<path d="M105.331 214.357L104.738 214.755" stroke="#3B445E" stroke-width="1.5" stroke-linecap="round"/>
<path d="M106.057 214.955L105.464 215.353" stroke="#3B445E" stroke-width="1.5" stroke-linecap="round"/>
<path d="M97.2312 205.437L97.1913 211.021C97.1839 212.05 97.9575 212.916 98.98 213.025L100.051 213.139C101.165 213.258 102.159 212.437 102.255 211.321L102.707 206.02L97.2312 205.437Z" fill="url(#paint3_linear_1_1615)"/>
<path d="M102.166 166.056L67.2325 155.347C64.077 165.04 71.2407 175.178 81.4347 175.178H87.5522L108.385 203.728L115.079 199.348L102.166 166.056Z" fill="url(#paint4_linear_1_1615)"/>
<path d="M115.376 209.952C113.958 210.799 113.49 212.634 114.33 214.057L115.624 216.251L124.437 211.161L122.865 208.432L119.574 207.94L118.828 207.27C118.29 206.787 117.502 206.705 116.875 207.066L116.63 207.208C115.839 207.665 115.666 208.734 116.273 209.417L115.376 209.952Z" fill="url(#paint5_linear_1_1615)"/>
<path d="M115.465 216.67L115.802 217.256C115.886 217.402 116.072 217.452 116.218 217.367L128.651 210.103C128.805 210.014 128.856 209.816 128.768 209.664L128.403 209.024C128.403 209.024 127.315 206.934 124.971 207.733L122.861 208.438L124.433 211.167L115.575 216.258C115.429 216.335 115.38 216.524 115.465 216.67Z" fill="url(#paint6_linear_1_1615)"/>
<path d="M128.197 209.42L125.137 211.178C125.037 211.236 124.909 211.196 124.849 211.094C124.79 210.991 124.822 210.859 124.92 210.803L127.979 209.044C128.08 208.986 128.208 209.026 128.267 209.129C128.327 209.232 128.298 209.362 128.197 209.42Z" fill="url(#paint7_linear_1_1615)"/>
<path d="M119.943 207.848L119.697 208.52" stroke="#3B445E" stroke-width="1.5" stroke-linecap="round"/>
<path d="M120.904 208.05L120.658 208.721" stroke="#3B445E" stroke-width="1.5" stroke-linecap="round"/>
<path d="M121.813 208.18L121.567 208.852" stroke="#3B445E" stroke-width="1.5" stroke-linecap="round"/>
<path d="M122.752 208.236L122.506 208.908" stroke="#3B445E" stroke-width="1.5" stroke-linecap="round"/>
<path d="M110.022 205.742L113.271 210.28C113.87 211.116 115.004 211.361 115.895 210.847L116.828 210.307C117.799 209.747 118.12 208.497 117.541 207.538L114.791 202.987L110.022 205.742Z" fill="url(#paint8_linear_1_1615)"/>
<path d="M107.198 203.134L110.068 208.471L118.496 204.32L115.663 198.429L107.198 203.134Z" fill="url(#paint9_linear_1_1615)"/>
<path d="M95.9526 175.217H70.6621C58.0193 175.217 48.8829 163.128 52.3334 150.965H83.1717V155.264L92.1428 158.994C101.953 163.074 107.914 173.117 106.794 183.683L104.505 205.298H95.9526V175.217Z" fill="url(#paint10_linear_1_1615)"/>
<rect x="64.2824" y="159.624" width="9.48067" height="1.83255" fill="url(#paint11_linear_1_1615)"/>
<path d="M95.0557 200.441L95.0556 207.709L105.105 208.293L105.97 200.961L95.0557 200.441Z" fill="url(#paint12_linear_1_1615)"/>
<path d="M71.2463 97.0791H65.9105V107.77H71.2463V97.0791Z" fill="url(#paint13_linear_1_1615)"/>
<path d="M49.9431 129.793C51.0556 125.72 53.6569 123.252 55.0711 121.947C57.4129 119.784 59.7677 117.507 61.7171 116.754C62.1096 116.601 63.021 116.351 63.7476 116.773L65.2363 115.438L69.3362 119.939L67.8474 121.427C67.8474 121.427 67.935 123.483 66.5467 125.535C61.156 133.515 56.6169 142.939 51.2793 140.81C48.5191 139.709 48.7787 134.064 49.9431 129.793Z" fill="url(#paint14_linear_1_1615)"/>
<path d="M57.4364 135.887C57.4776 139.196 53.822 141.135 51.045 139.334C49.717 138.473 48.9794 136.95 49.14 135.375C49.6834 130.047 50.9601 117.971 51.7014 114.568C52.7167 109.901 55.7949 108.394 55.7949 108.394C57.0534 115.204 56.8296 121.914 57.0988 126.396C57.2888 129.575 57.3977 132.782 57.4364 135.887Z" fill="url(#paint15_linear_1_1615)"/>
<path d="M54.779 109.092C54.779 109.092 56.4786 107.26 60.3319 107.105C64.1853 106.949 76.6404 107.183 78.0254 107.722C79.4136 108.261 81.1684 109.54 81.7263 112.044C82.2809 114.548 83.2669 118.757 83.2669 120.764C83.2669 122.771 82.7512 125.597 82.7512 125.597L57.0268 132.42L54.779 119.049V109.092Z" fill="url(#paint16_linear_1_1615)"/>
<path d="M78.9465 108.183L78.9044 108.219C77.1074 109.638 76.3174 110.911 76.126 113.194L75.2827 123.246H71.0432L71.666 112.987C71.799 110.807 72.4463 109.596 74.0746 108.141L77.3896 107.589L78.9465 108.183Z" fill="url(#paint17_linear_1_1615)"/>
<path d="M62.9733 107.355L62.9312 107.391C61.1342 108.81 60.0054 110.911 59.814 113.194L59.5935 116.045H55.6784V112.987C55.8114 110.807 56.7974 108.768 58.4257 107.313H58.1014L62.9733 107.355Z" fill="url(#paint18_linear_1_1615)"/>
<path d="M80.2694 133.867C80.2694 133.867 82.931 140.249 83.2261 151.054H52.4839C53.8819 143.214 56.8127 134.233 56.8127 134.233L56.1283 127.048L54.9157 118.377L55.665 112.662H76.0344L79.2942 115.461L82.7804 125.558L80.2694 133.867Z" fill="url(#paint19_linear_1_1615)"/>
<path d="M70.0883 111.428C71.5609 111.428 72.7546 110.232 72.7546 108.758C72.7546 107.284 71.5609 106.088 70.0883 106.088C68.6158 106.088 67.422 107.284 67.422 108.758C67.422 110.232 68.6158 111.428 70.0883 111.428Z" fill="url(#paint20_linear_1_1615)"/>
<path d="M57.3409 107.19L57.2575 107.759C56.1419 110.07 56.0047 112.733 56.8768 115.146L57.2241 116.107C57.7409 117.537 59.0984 118.49 60.6189 118.49H60.9286C65.5741 118.49 69.9108 116.163 72.4791 112.292C73.2127 111.186 74.2483 110.314 75.4628 109.78L79.0597 108.197C78.9468 106.921 77.9944 105.877 76.7337 105.649L75.0198 105.338C74.5752 104.3 73.5377 103.641 72.4086 103.681L61.8222 104.056C60.678 104.096 59.6342 104.72 59.0558 105.708C58.1956 105.708 57.4656 106.338 57.3409 107.19Z" fill="url(#paint21_linear_1_1615)"/>
<path d="M108.188 107.35L107.131 108.302C106.842 108.562 106.823 109.013 107.092 109.296C107.316 109.533 107.676 109.582 107.955 109.41L109.171 108.669C109.612 108.4 109.703 107.795 109.359 107.412C109.051 107.074 108.529 107.045 108.188 107.35Z" fill="url(#paint22_linear_1_1615)"/>
<path d="M100.631 109.388L101.131 106.65L103.109 104.169L104.776 103.802C104.958 103.763 105.137 103.88 105.172 104.061C105.295 104.695 104.926 105.318 104.313 105.516L103.777 105.689C103.661 106.062 103.544 106.436 103.427 106.809C103.687 107.121 103.992 107.579 104.186 108.189C104.715 109.842 104.001 111.301 103.807 111.671C102.749 110.911 101.692 110.151 100.631 109.388Z" fill="url(#paint23_linear_1_1615)"/>
<path d="M105.759 104.369L104.41 106.227C104.189 106.529 104.222 106.945 104.488 107.211C104.78 107.504 105.247 107.51 105.545 107.228L107.209 105.649C107.618 105.263 107.611 104.61 107.199 104.226C106.771 103.833 106.1 103.902 105.759 104.369Z" fill="url(#paint24_linear_1_1615)"/>
<path d="M108.305 105.792C107.965 105.451 107.41 105.454 107.076 105.801L105.697 107.224C105.418 107.51 105.412 107.968 105.684 108.263C105.954 108.553 106.398 108.588 106.706 108.338L108.244 107.071C108.636 106.747 108.665 106.152 108.305 105.792Z" fill="url(#paint25_linear_1_1615)"/>
<path d="M109.223 109.478L106.586 112.616C105.915 113.414 104.977 113.947 103.946 114.116L102.035 116.997L97.809 113.976L100.248 111.076L100.968 107.897L104.264 103.334L109.561 107.903L109.564 108.543C109.564 108.884 109.444 109.215 109.223 109.478Z" fill="url(#paint26_linear_1_1615)"/>
<path d="M104.267 103.33L106.947 99.9329C107.206 99.6049 107.689 99.5627 108.001 99.842C108.267 100.082 108.322 100.479 108.124 100.781L105.266 105.171L104.267 103.33Z" fill="url(#paint27_linear_1_1615)"/>
<path d="M90.4529 119.513C92.9958 116.72 92.4639 117.162 95.0068 114.369C95.0068 114.369 96.3269 112.823 97.913 113.083L99.2331 111.592C101.296 111.224 103.3 112.486 103.861 114.505L104.186 115.678L103.594 116.771C103.594 116.771 104.261 118.378 102.872 120.983C101.961 122.824 91.5381 142.037 84.3115 137.272C83.9677 136.486 81.6013 130.993 84.4426 125.414C86.2785 121.809 89.282 120.101 90.4529 119.513Z" fill="url(#paint28_linear_1_1615)"/>
<path d="M79.1665 108.329C79.1665 108.329 82.2836 110.18 83.6134 113.827C84.3449 115.833 87.5658 121.012 90.3162 125.267C92.6975 128.95 92.1716 133.822 88.9928 136.844C87.2839 138.469 84.4996 138.033 83.369 135.964L75.1834 120.983C72.6788 116.399 74.4878 110.652 79.1665 108.329Z" fill="url(#paint29_linear_1_1615)"/>
<path fill-rule="evenodd" clip-rule="evenodd" d="M80.8741 87.6606C80.8741 87.6606 80.1341 87.2544 78.9956 87.7068L80.8741 87.6606Z" fill="#D8D8D8"/>
<path d="M80.8741 87.6606C80.8741 87.6606 80.1341 87.2544 78.9956 87.7068" stroke="#251D26" stroke-width="3.13416" stroke-linecap="round"/>
<path d="M71.7413 102.831C66.7625 102.831 62.7275 98.7909 62.7275 93.8057V88.6842C62.7275 83.699 66.7625 79.6589 71.7413 79.6589C76.7201 79.6589 80.755 83.699 80.755 88.6842V93.8057C80.755 98.7876 76.7168 102.831 71.7413 102.831Z" fill="url(#paint30_linear_1_1615)"/>
<path d="M80.7518 93.7989V93.8216C80.7518 95.715 80.1679 97.4719 79.1721 98.9236C78.2899 98.4722 77.6898 97.5564 77.6898 96.4977C77.6898 94.994 78.9062 93.7761 80.4112 93.7761C80.528 93.7761 80.6415 93.7826 80.7518 93.7989Z" fill="url(#paint31_linear_1_1615)"/>
<path d="M80.2776 91.507C80.0214 91.507 79.817 91.299 79.817 91.0456V90.165C79.817 89.9083 80.0246 89.7036 80.2776 89.7036C80.5338 89.7036 80.7382 89.9116 80.7382 90.165V91.0456C80.7414 91.3022 80.5338 91.507 80.2776 91.507Z" fill="black"/>
<path d="M74.9689 90.2834C74.7474 91.8169 76.2906 92.9511 76.9733 93.2835C76.9733 93.2835 75.9744 91.7933 76.3545 90.2834C76.6922 88.9423 77.9689 88.4131 77.9689 88.4131C76.9164 88.565 75.1903 88.75 74.9689 90.2834Z" fill="#FC9E7A"/>
<path d="M77.1291 93.3985C76.2801 92.5508 75.8182 89.5136 78.1001 88.3145" stroke="#FA7D6A" stroke-width="2.4068" stroke-linecap="round"/>
<path d="M78.5713 103.328C78.5713 103.328 73.4199 106.937 64.9828 105.89C56.2139 104.803 54.8483 99.3468 54.8483 99.3468C54.8483 99.3468 53.4056 90.8221 57.6537 82.5274C62.4775 73.1085 71.5093 74.5588 73.4403 75.0862C78.5713 76.4877 81.1446 81.3376 81.1446 81.3376L77.5552 85.8472C75.4527 88.4887 74.825 92.0128 75.8861 95.2178L78.5713 103.328Z" fill="url(#paint32_linear_1_1615)"/>
<path d="M75.4855 86.4064L76.0566 86.6806C78.9914 88.0899 82.4685 86.3601 83.1147 83.1692C83.4203 81.6602 82.4992 80.1738 81.0119 79.7759L74.9004 78.1409L75.4855 86.4064Z" fill="url(#paint33_linear_1_1615)"/>
<path d="M79.9954 219.105L75.5483 177.502H71.7202L76.9687 219.456C77.064 220.218 77.7121 220.79 78.4804 220.79C79.386 220.79 80.0916 220.005 79.9954 219.105Z" fill="#506D51"/>
<path d="M39.4432 135.182C38.4243 130.893 41.677 126.777 46.0855 126.777L70.6382 126.777C73.8009 126.777 76.5495 128.949 77.2805 132.026C78.2993 136.315 75.0466 140.431 70.6382 140.431H46.0855C42.9228 140.431 40.1742 138.259 39.4432 135.182Z" fill="#6C8B6E"/>
<rect x="46.013" y="177.331" width="20.115" height="6.12502" rx="2.35062" fill="#506D51"/>
<rect x="66.1274" y="177.331" width="22.0823" height="6.12502" rx="2.35062" fill="#506D51"/>
<path d="M95.072 219.05L88.8067 177.502H84.9785L92.0811 219.528C92.2043 220.257 92.8354 220.79 93.5744 220.79C94.5008 220.79 95.2101 219.966 95.072 219.05Z" fill="#506D51"/>
<rect x="45.5626" y="175.211" width="46.4789" height="2.29136" rx="1.14568" fill="#6C8B6E"/>
<path d="M76.3716 136.212C76.3716 136.212 75.1604 130.413 74.5049 129.511C73.2964 127.847 71.5719 127.952 71.5719 127.952" stroke="#506D51" stroke-width="1.56708" stroke-linecap="round"/>
<path d="M46.8233 139.815L45.5616 135.609C45.1511 134.24 46.1757 132.863 47.6043 132.863C48.5549 132.863 49.3908 133.492 49.6538 134.406L50.6277 137.789C51.6497 141.339 51.9233 145.062 51.4313 148.723L41.9472 219.289C41.8458 220.044 41.2016 220.607 40.4399 220.607C39.5296 220.607 38.8232 219.813 38.9295 218.909L47.4212 146.653C47.6911 144.356 47.4876 142.029 46.8233 139.815Z" fill="#506D51"/>
<rect x="42.8023" y="196.208" width="22.2234" height="2.74958" rx="1.37479" fill="#6C8B6E"/>
<rect x="64.106" y="196.397" width="26.924" height="2.74958" rx="1.37479" fill="#6C8B6E"/>
<path d="M67.0346 139.975L65.7249 135.609C65.3145 134.24 66.3391 132.863 67.7677 132.863C68.7183 132.863 69.5541 133.492 69.8171 134.406L70.8433 137.97C71.8322 141.405 72.1459 145 71.7671 148.554L64.2326 219.243C64.15 220.019 63.4956 220.607 62.7157 220.607C61.8193 220.607 61.1161 219.838 61.1962 218.945L67.6955 146.496C67.8925 144.3 67.6682 142.087 67.0346 139.975Z" fill="#506D51"/>
<path fill-rule="evenodd" clip-rule="evenodd" d="M147.937 113.365C150.101 113.365 151.855 115.119 151.855 117.282V144.376H139.247V117.282C139.247 115.119 141.001 113.365 143.164 113.365H147.937ZM145.551 120.829C146.704 120.829 147.638 121.764 147.638 122.917V129.738C147.638 130.89 146.704 131.825 145.551 131.825C144.398 131.825 143.463 130.89 143.463 129.738V122.917C143.463 121.764 144.398 120.829 145.551 120.829Z" fill="url(#paint34_linear_1_1615)"/>
<path fill-rule="evenodd" clip-rule="evenodd" d="M147.143 113.365C149.307 113.365 151.061 115.119 151.061 117.282V144.376H138.453V117.282C138.453 115.119 140.207 113.365 142.371 113.365H147.143ZM144.757 120.829C145.91 120.829 146.845 121.764 146.845 122.917V129.738C146.845 130.89 145.91 131.825 144.757 131.825C143.604 131.825 142.669 130.89 142.669 129.738V122.917C142.669 121.764 143.604 120.829 144.757 120.829Z" fill="url(#paint35_linear_1_1615)"/>
<rect x="124.888" y="144.002" width="30.1173" height="1.15427" fill="url(#paint36_linear_1_1615)"/>
<rect x="124.888" y="144.002" width="17.0226" height="1.15427" fill="url(#paint37_linear_1_1615)"/>
<path d="M116.593 104.157C116.89 101.807 118.889 100.046 121.257 100.046L163.231 100.046C166.062 100.046 168.251 102.53 167.895 105.338L164.869 129.22C164.572 131.57 162.573 133.331 160.205 133.331H118.231C115.4 133.331 113.211 130.847 113.567 128.039L116.593 104.157Z" fill="url(#paint38_linear_1_1615)"/>
<path d="M115.024 104.157C115.322 101.808 117.32 100.046 119.688 100.046L161.878 100.046C164.709 100.046 166.898 102.53 166.542 105.338L163.516 129.221C163.219 131.57 161.22 133.331 158.852 133.331H116.663C113.832 133.331 111.643 130.847 111.999 128.039L115.024 104.157Z" fill="url(#paint39_linear_1_1615)"/>
<path d="M116.317 103.254C116.456 102.07 117.459 101.177 118.651 101.177L162.99 101.177C164.396 101.177 165.488 102.404 165.324 103.802L162.266 129.892C162.127 131.076 161.124 131.969 159.932 131.969H115.593C114.187 131.969 113.095 130.741 113.259 129.344L116.317 103.254Z" fill="url(#paint40_linear_1_1615)"/>
<rect width="30.4204" height="18.9585" rx="1.44732" transform="matrix(1 0 -0.115317 0.993329 125.41 105.884)" fill="#EDEFFF"/>
<path d="M125.243 107.324C125.335 106.529 126.059 105.884 126.86 105.884H131.356L129.17 124.716H124.674C123.873 124.716 123.299 124.071 123.391 123.276L125.243 107.324Z" fill="#C7CEFF"/>
<ellipse cx="0.350637" cy="0.351233" rx="0.350637" ry="0.351233" transform="matrix(1 0 -0.115312 0.993329 126.371 106.59)" fill="#E55A9E"/>
<ellipse cx="0.350637" cy="0.351233" rx="0.350637" ry="0.351233" transform="matrix(1 0 -0.115312 0.993329 127.42 106.59)" fill="#F4BE01"/>
<ellipse cx="0.350637" cy="0.351233" rx="0.350637" ry="0.351233" transform="matrix(1 0 -0.115312 0.993329 128.47 106.59)" fill="#54973D"/>
<rect width="4.38294" height="0.706674" rx="0.353337" transform="matrix(1 0 -0.115317 0.993329 125.702 109.555)" fill="#B1BAFF"/>
<rect width="4.38294" height="0.706674" rx="0.353337" transform="matrix(1 0 -0.115317 0.993329 125.507 111.225)" fill="#B1BAFF"/>
<rect width="4.38294" height="0.706674" rx="0.353337" transform="matrix(1 0 -0.115317 0.993329 125.314 112.894)" fill="#B1BAFF"/>
<rect width="4.38294" height="0.706674" rx="0.353337" transform="matrix(1 0 -0.115317 0.993329 125.12 114.563)" fill="#B1BAFF"/>
<rect width="4.38294" height="0.706674" rx="0.353337" transform="matrix(1 0 -0.115317 0.993329 124.926 116.233)" fill="#B1BAFF"/>
<rect width="4.38294" height="0.706674" rx="0.353337" transform="matrix(1 0 -0.115317 0.993329 124.732 117.902)" fill="#B1BAFF"/>
<rect width="4.38294" height="0.706674" rx="0.353337" transform="matrix(1 0 -0.115317 0.993329 124.538 119.572)" fill="#B1BAFF"/>
<rect width="1.65854" height="3.15081" rx="0.829271" transform="matrix(1 0 -0.115312 0.993329 132.649 109.026)" fill="url(#paint41_linear_1_1615)"/>
<rect width="4.16001" height="3.15081" rx="1.56708" transform="matrix(1 0 -0.115312 0.993329 132.588 109.556)" fill="url(#paint42_linear_1_1615)"/>
<rect width="1.65854" height="3.15081" rx="0.829271" transform="matrix(1 0 -0.115312 0.993329 132.095 113.795)" fill="url(#paint43_linear_1_1615)"/>
<rect width="4.16001" height="3.15081" rx="1.56708" transform="matrix(1 0 -0.115312 0.993329 132.034 114.325)" fill="url(#paint44_linear_1_1615)"/>
<rect width="1.65854" height="3.15081" rx="0.829271" transform="matrix(1 0 -0.115312 0.993329 138.175 109.026)" fill="url(#paint45_linear_1_1615)"/>
<rect width="4.16001" height="3.15081" rx="1.56708" transform="matrix(1 0 -0.115312 0.993329 138.114 109.556)" fill="url(#paint46_linear_1_1615)"/>
<rect width="1.65854" height="3.15081" rx="0.829271" transform="matrix(1 0 -0.115312 0.993329 137.622 113.795)" fill="url(#paint47_linear_1_1615)"/>
<rect width="4.16001" height="3.15081" rx="1.56708" transform="matrix(1 0 -0.115312 0.993329 137.561 114.325)" fill="url(#paint48_linear_1_1615)"/>
<rect width="1.65854" height="3.15081" rx="0.829271" transform="matrix(1 0 -0.115312 0.993329 143.702 109.026)" fill="url(#paint49_linear_1_1615)"/>
<rect width="4.16001" height="3.15081" rx="1.56708" transform="matrix(1 0 -0.115312 0.993329 143.64 109.556)" fill="url(#paint50_linear_1_1615)"/>
<rect width="1.65854" height="3.15081" rx="0.829271" transform="matrix(1 0 -0.115312 0.993329 143.148 113.795)" fill="url(#paint51_linear_1_1615)"/>
<rect width="4.16001" height="3.15081" rx="1.56708" transform="matrix(1 0 -0.115312 0.993329 143.087 114.325)" fill="url(#paint52_linear_1_1615)"/>
<rect width="1.65854" height="3.15081" rx="0.829271" transform="matrix(1 0 -0.115312 0.993329 149.229 109.026)" fill="url(#paint53_linear_1_1615)"/>
<rect width="4.16001" height="3.15081" rx="1.56708" transform="matrix(1 0 -0.115312 0.993329 149.167 109.556)" fill="url(#paint54_linear_1_1615)"/>
<rect width="1.65854" height="3.15081" rx="0.829271" transform="matrix(1 0 -0.115312 0.993329 148.675 113.795)" fill="url(#paint55_linear_1_1615)"/>
<rect width="4.16001" height="3.15081" rx="1.56708" transform="matrix(1 0 -0.115312 0.993329 148.613 114.325)" fill="url(#paint56_linear_1_1615)"/>
<rect width="4.16001" height="3.68387" rx="1.56708" transform="matrix(1 0 -0.115312 0.993329 131.518 118.767)" fill="white"/>
<rect width="3.21485" height="2.84689" rx="0.783541" transform="matrix(1 0 -0.115312 0.993329 131.942 119.184)" fill="#B2CC6C"/>
<mask id="mask0_1_1615" style="mask-type:alpha" maskUnits="userSpaceOnUse" x="131" y="119" width="5" height="4">
<rect width="3.21485" height="2.84689" rx="0.783541" transform="matrix(1 0 -0.115312 0.993329 131.942 119.184)" fill="#B2CC6C"/>
</mask>
<g mask="url(#mask0_1_1615)">
<path d="M132.973 119.718L131.634 120.565L131.447 122.173H134.956L135.26 119.556L133.702 120.565L132.973 119.718Z" fill="#54973D"/>
</g>
<rect width="27.6924" height="3.40737" rx="1.70369" transform="matrix(1 0 -0.115317 0.993329 123.885 128.407)" fill="#D7DCFE" fill-opacity="0.7"/>
<rect width="2.48102" height="2.48435" rx="1.24051" transform="matrix(1 0 -0.115312 0.993329 142.454 128.865)" fill="#17181B"/>
<rect width="2.48102" height="2.48435" rx="1.24051" transform="matrix(1 0 -0.115317 0.993329 124.313 128.865)" fill="url(#paint57_linear_1_1615)"/>
<path d="M125.08 130.198L125.505 128.865H125.568C126.255 128.865 126.748 129.42 126.666 130.102L126.655 130.198C126.58 130.825 126.009 131.333 125.378 131.333L125.51 130.198H125.08Z" fill="#EFF1FF"/>
<rect width="2.48102" height="2.48435" rx="1.24051" transform="matrix(1 0 -0.115312 0.993329 127.352 128.865)" fill="#54973D"/>
<ellipse cx="0.803398" cy="0.701751" rx="0.803398" ry="0.701751" transform="matrix(1 0 -0.115312 0.993329 127.739 129.296)" fill="#EFF1FF"/>
<path d="M127.729 130.833L127.874 130.473L128.063 130.558L127.729 130.833Z" fill="#EFF1FF"/>
<rect width="2.48102" height="2.48435" rx="1.24051" transform="matrix(1 0 -0.115312 0.993329 130.373 128.865)" fill="url(#paint58_linear_1_1615)"/>
<rect width="1.59341" height="1.07445" rx="0.39177" transform="matrix(1 0 -0.115312 0.993329 130.741 129.519)" fill="#EFF1FF"/>
<rect width="2.48102" height="2.48435" rx="1.24051" transform="matrix(1 0 -0.115312 0.993329 139.434 128.865)" fill="#D05EED"/>
<path d="M141.092 130.101C141.056 130.409 140.776 130.658 140.467 130.658C140.159 130.658 139.936 130.409 139.972 130.101C140.008 129.792 140.288 129.543 140.597 129.543C140.905 129.543 141.128 129.792 141.092 130.101Z" stroke="white" stroke-width="0.783541"/>
<rect width="2.48102" height="2.48435" rx="1.24051" transform="matrix(1 0 -0.115312 0.993329 136.413 128.865)" fill="url(#paint59_linear_1_1615)"/>
<ellipse cx="1.08178" cy="1.08323" rx="1.08178" ry="1.08323" transform="matrix(1 0 -0.115312 0.993329 136.554 129.023)" fill="url(#paint60_linear_1_1615)"/>
<ellipse cx="0.580535" cy="0.581523" rx="0.580535" ry="0.581523" transform="matrix(1 0 -0.115312 0.993329 136.997 129.522)" fill="#97C3D5"/>
<rect width="2.48102" height="2.48435" rx="1.24051" transform="matrix(1 0 -0.115312 0.993329 133.393 128.865)" fill="#EFF1FF"/>
<ellipse cx="1.08178" cy="1.08323" rx="1.08178" ry="1.08323" transform="matrix(1 0 -0.115312 0.993329 133.534 129.023)" fill="url(#paint61_linear_1_1615)"/>
<path d="M134.363 129.956L134.62 130.246L135.304 129.377L134.363 129.956Z" fill="#E42938"/>
<path d="M134.619 130.244L134.362 129.955L133.678 130.823L134.619 130.244Z" fill="#EFF1FF"/>
<rect width="2.48102" height="2.48435" rx="1.24051" transform="matrix(1 0 -0.115312 0.993329 145.474 128.865)" fill="#77AE4B"/>
<rect width="1.08667" height="1.02107" rx="0.39177" transform="matrix(1 0 -0.115312 0.993329 145.82 129.592)" fill="#EFF1FF"/>
<path d="M146.915 130.159C146.88 130.128 146.887 130.07 146.929 130.039L147.251 129.8C147.307 129.758 147.38 129.794 147.372 129.86L147.317 130.338C147.309 130.404 147.228 130.44 147.182 130.399L146.915 130.159Z" fill="#EFF1FF"/>
<rect width="2.48102" height="2.48435" rx="1.24051" transform="matrix(1 0 -0.115312 0.993329 148.495 128.865)" fill="#FFFEFF"/>
<path d="M148.411 129.593C148.457 129.191 148.823 128.865 149.227 128.865H150.244C150.648 128.865 150.938 129.191 150.892 129.593H148.411Z" fill="#FED608"/>
<path d="M116.433 102.274C116.499 101.668 117.045 101.177 117.655 101.177H164.523C165.132 101.177 165.573 101.668 165.507 102.274H116.433Z" fill="#D7DCFE" fill-opacity="0.5"/>
<rect width="13.3092" height="1.1543" transform="matrix(-1 0 0 1 110.637 144.002)" fill="url(#paint62_linear_1_1615)"/>
<rect width="10.6344" height="1.1543" transform="matrix(-1 0 0 1 121.272 144.002)" fill="#677D85"/>
<path d="M47.265 164.864C44.879 165.97 41.6313 164.698 40.3058 163.924L33.457 163.592C35.7215 159.721 44.8348 158.283 48.4801 162.431C49.1905 160.614 50.8749 160.273 51.6283 160.329C51.1681 161.38 49.651 163.758 47.265 164.864Z" fill="#B2CC6C"/>
<path d="M25.7189 173.929C25.3612 172.017 24.9291 166.851 29.4232 163.335C34.9326 159.025 40.1663 163.946 40.1663 163.946C40.1663 163.946 35.2708 164.345 31.3858 168.084C28.8484 170.525 27.4213 172.845 26.6703 174.066C26.6539 174.198 24.7988 185.316 24.5211 188.296C24.2419 191.292 23.8683 197.353 23.8683 197.353H22.8504L25.7189 173.929Z" fill="url(#paint63_linear_1_1615)"/>
<path d="M0 166.325C0.489294 167.099 1.8229 168.949 3.243 170.153C4.6069 171.308 7.29755 171.085 8.61723 170.803C10.615 171.099 14.4194 171.506 13.6547 170.768C12.6989 169.845 11.0603 169.606 9.11453 169.845C7.16873 170.084 6.28118 168.751 4.64261 167.111C3.33176 165.798 1.00135 166.04 0 166.325Z" fill="#B2CC6C"/>
<path d="M18.8629 172.964C17.0248 168.704 11.7198 169.881 8.64655 170.858C8.64655 170.858 14.0158 172.33 16.0887 177.632C18.0056 182.536 18.8629 196.992 18.8629 196.992H19.8847C19.7036 195.339 19.0914 192.848 18.8629 190.321C18.6229 187.667 18.1154 184.985 18.1154 183.707C18.1154 180.588 20.701 177.223 18.8629 172.964Z" fill="url(#paint64_linear_1_1615)"/>
<path d="M42.9297 173.362C42.5089 174.029 41.3617 175.621 40.1402 176.656C38.967 177.65 36.6525 177.458 35.5174 177.215C33.7989 177.47 30.5265 177.82 31.1842 177.185C32.0064 176.391 33.4159 176.185 35.0896 176.391C36.7633 176.597 37.5268 175.45 38.9363 174.039C40.0638 172.91 42.0684 173.117 42.9297 173.362Z" fill="#B2CC6C"/>
<path d="M5.89775 184.799C6.22766 185.1 7.09307 185.796 7.91544 186.178C8.70527 186.544 9.93986 186.092 10.5231 185.789C11.4995 185.67 13.3386 185.37 12.8841 185.122C12.3159 184.812 11.5156 184.911 10.6328 185.275C9.75004 185.639 9.16095 185.127 8.17944 184.569C7.39423 184.122 6.33114 184.536 5.89775 184.799Z" fill="#B2CC6C"/>
<path d="M25.1797 179.676C26.7608 176.013 32.849 176.422 35.4926 177.263C35.4926 177.263 30.874 178.529 29.091 183.09C27.4421 187.307 26.7046 199.742 26.7046 199.742H25.7615C25.9161 198.331 26.509 194.427 26.7046 192.269C26.9131 189.968 27.3476 189.422 27.3476 188.315C27.3476 185.632 23.5986 183.34 25.1797 179.676Z" fill="url(#paint65_linear_1_1615)"/>
<path d="M16.5336 185.575C15.121 183.813 11.8592 184.952 10.5424 185.809C10.5424 185.809 13.2533 185.805 14.9108 188.027C16.4436 190.081 17.8938 196.731 17.8938 196.731L18.3848 196.589C18.0887 195.842 17.6966 193.948 17.266 192.799C16.8071 191.575 16.8123 191.221 16.6463 190.617C16.2438 189.152 17.9463 187.337 16.5336 185.575Z" fill="url(#paint66_linear_1_1615)"/>
<path d="M20.8659 152.038C19.7019 156.724 20.5123 161.392 21.6753 164.836L22.0492 165.853L28.8623 155.415C30.359 152.523 33.3008 145.98 33.0948 142.945C32.8888 139.909 33.4408 137.771 33.7426 137.081C32.1698 137.232 29.1807 138.058 29.807 140.159C25.941 141.097 26.2078 142.546 25.9219 144.485C25.6359 146.425 22.0299 147.353 20.8659 152.038Z" fill="#B2CC6C"/>
<path d="M29.2298 154.277C28.033 157.062 25.1898 163.783 23.3909 168.383C22.3412 171.067 22.3513 178.093 22.1452 184.924C21.9982 189.799 22.0898 194.516 22.1461 197.8L21.1727 197.8C21.2462 191.066 21.335 176.411 21.1026 171.654C20.812 165.707 21.7674 163.366 24.039 161.421C25.8563 159.866 28.2568 156.01 29.2298 154.277Z" fill="url(#paint67_linear_1_1615)"/>
<path d="M13.7548 194.624H31.2922V214.278C31.2922 217.875 28.3767 220.79 24.7803 220.79H20.2667C16.6703 220.79 13.7548 217.875 13.7548 214.278V194.624Z" fill="url(#paint68_linear_1_1615)"/>
<path d="M14.3957 199.173H30.6515" stroke="#89A68A" stroke-width="0.783541" stroke-linecap="round"/>
<rect x="66.1938" y="23.8345" width="52.6487" height="41.7436" rx="9.35815" fill="white" stroke="#62B3FF"/>
<rect x="75.0507" y="34.3347" width="34.9353" height="20.7792" rx="5" fill="#DDEDFF"/>
<path d="M89.6613 51.1633L75.1056 41.6439V41.168L109.973 35.7292V42.7057L97.3836 51.1239C95.0502 52.6842 92.0105 52.6997 89.6613 51.1633Z" fill="#62B3FF"/>
<path d="M88.4928 47.9094L75.055 41.0988V39.3005C75.055 36.5391 77.2936 34.3005 80.055 34.3005H104.978C107.764 34.3005 110.012 36.5765 109.978 39.3616L109.958 40.9786L96.714 47.8663C94.1407 49.2046 91.0801 49.2206 88.4928 47.9094Z" fill="#B5DBFF"/>
<path d="M76.1899 53.8647L87.5325 42.3855" stroke="#B5DBFF" stroke-linecap="round"/>
<path d="M108.847 53.8647L97.504 42.3855" stroke="#B5DBFF" stroke-linecap="round"/>
<ellipse cx="108.68" cy="34.2998" rx="4.5808" ry="4.58646" fill="#E55A9E"/>
<path d="M220.295 109.109L217.82 108.085L216.513 107.238C216.263 107.075 215.942 107.085 215.702 107.26C215.582 107.348 215.575 107.527 215.692 107.621L217.278 108.93L220.142 110.44L220.295 109.109Z" fill="url(#paint69_linear_1_1615)"/>
<path d="M233.866 115.669L228.167 113.291L224.089 110.385L220.294 109.108L219.165 114.318C220.301 115.058 220.009 114.902 221.728 115.62C223.486 116.351 225.098 116.802 226.444 117.085C228.478 117.926 230.508 118.77 232.542 119.611L233.866 115.669Z" fill="url(#paint70_linear_1_1615)"/>
<path d="M220.142 110.255L217.953 109.109L218.138 109.053C218.508 108.94 218.725 108.563 218.634 108.186C218.608 108.082 218.511 108.014 218.404 108.03L217.093 108.209C216.935 108.232 216.824 108.378 216.847 108.534L216.925 109.58C216.941 109.794 217.068 109.986 217.259 110.086L219.909 111.46L220.142 110.255Z" fill="url(#paint71_linear_1_1615)"/>
<path d="M218.845 108.706L217.278 108.933C217.126 108.956 217.022 109.095 217.041 109.248L217.291 110.979L219.701 112.948L220.145 111.525L218.738 110.421L218.572 109.862C218.978 109.794 219.25 109.404 219.166 108.998L219.15 108.923C219.12 108.78 218.987 108.686 218.845 108.706Z" fill="url(#paint72_linear_1_1615)"/>
<path d="M220.006 112.81L218.984 111.836L218.868 110.862L218.965 110.823C219.409 110.647 219.649 110.16 219.513 109.699C219.471 109.553 219.315 109.468 219.169 109.511L217.719 109.926C217.625 109.952 217.564 110.043 217.574 110.141L217.791 112.479L219.166 114.311L220.006 112.81Z" fill="url(#paint73_linear_1_1615)"/>
<path d="M225.296 112.931L225.108 113.353C225.063 113.457 224.965 113.531 224.855 113.551L220.135 114.395C220.003 114.418 219.87 114.356 219.801 114.239L214.054 104.142C214.015 104.071 214.005 103.99 214.028 103.912L214.177 103.396L225.296 112.931Z" fill="url(#paint74_linear_1_1615)"/>
<path d="M214.21 103.623L219.915 113.619C220.042 113.843 220.298 113.964 220.551 113.918L225.03 113.132C225.284 113.087 225.413 112.804 225.283 112.583L219.581 102.86C219.474 102.675 219.263 102.571 219.052 102.597L214.443 103.155C214.219 103.185 214.099 103.428 214.21 103.623Z" fill="url(#paint75_linear_1_1615)"/>
<path d="M220.444 113.603C220.46 113.603 220.476 113.603 220.492 113.6L224.972 112.814C224.978 112.814 224.994 112.811 225.004 112.791C225.014 112.772 225.004 112.755 225.001 112.752L219.299 103.029C219.26 102.964 219.188 102.921 219.114 102.921L214.573 103.47C214.527 103.477 214.505 103.525 214.527 103.561L220.194 113.46C220.246 113.548 220.34 113.603 220.444 113.603Z" fill="url(#paint76_linear_1_1615)"/>
<path d="M228.54 113.993L227.113 110.573C226.652 109.472 225.757 108.608 224.641 108.192L222.601 107.432L220.12 108.043C219.974 108.079 219.886 108.225 219.922 108.371C220.058 108.92 220.58 109.284 221.141 109.219L222.397 109.072L223.438 109.657C223.396 111.109 224.284 112.421 225.643 112.924L228.54 113.993Z" fill="url(#paint77_linear_1_1615)"/>
<path d="M217.963 102.957L218.067 103.354L216.159 103.594L215.861 103.243L217.963 102.957Z" fill="url(#paint78_linear_1_1615)"/>
<path d="M246.522 98.7124C245.338 102.418 244.508 105.468 243.966 107.588C243.486 109.826 242.948 112.057 242.351 114.275C235.3 112.401 233.632 111.93 232.744 111.745C232.507 111.697 231.968 111.599 231.466 111.839C231.08 112.025 230.759 112.349 230.59 112.775L228.031 111.833L226.104 118.224L228.738 119.075L228.712 119.199C228.521 120.053 228.984 120.92 229.802 121.232C231.962 122.209 249.746 127.785 249.746 127.785C249.746 127.785 247.099 109.42 246.522 98.7124Z" fill="url(#paint79_linear_1_1615)"/>
<path d="M251.844 65.1318C251.844 65.1318 255.701 60.7183 262.214 63.141C269.165 65.7261 270.67 71.2959 271.328 74.0466C271.987 76.8007 275.752 76.3362 276.589 80.9284C277.254 84.5788 275.392 85.4167 275.873 88.0505C276.349 90.6844 280.783 97.0011 272.885 103.789C264.877 110.67 248.5 108.741 246.707 97.6831C246.279 95.0427 247.696 93.4644 247.125 91.61C246.019 88.0181 244.19 87.6803 243.839 82.9322C243.525 78.7135 245.941 77.1871 246.035 72.6079C246.12 68.347 248.095 65.2942 251.844 65.1318Z" fill="url(#paint80_linear_1_1615)"/>
<path d="M255.522 89.9829H260.858V95.9976H255.522V89.9829Z" fill="url(#paint81_linear_1_1615)"/>
<path d="M267.299 83.9195C265.424 83.9195 263.903 82.3971 263.903 80.5192C263.903 78.6413 265.424 77.1189 267.299 77.1189C269.175 77.1189 270.696 78.6413 270.696 80.5192C270.696 82.3971 269.175 83.9195 267.299 83.9195Z" fill="url(#paint82_linear_1_1615)"/>
<path d="M269.619 80.7729C269.758 80.7729 269.872 80.6592 269.872 80.5196C269.872 79.1002 268.717 77.9438 267.3 77.9438C267.16 77.9438 267.047 78.0575 267.047 78.1972C267.047 78.3369 267.16 78.4505 267.3 78.4505C268.441 78.4505 269.369 79.3795 269.369 80.5228C269.369 80.6592 269.479 80.7729 269.619 80.7729Z" fill="url(#paint83_linear_1_1615)"/>
<path d="M258.26 91.0578C263.239 91.0578 267.274 87.0177 267.274 82.0325V76.911C267.274 71.9258 263.239 67.8857 258.26 67.8857C253.281 67.8857 249.246 71.9258 249.246 76.911V82.0325C249.246 87.0144 253.281 91.0578 258.26 91.0578Z" fill="url(#paint84_linear_1_1615)"/>
<path fill-rule="evenodd" clip-rule="evenodd" d="M251.199 74.6367C251.199 74.6367 251.939 74.2305 253.077 74.683L251.199 74.6367Z" fill="#D8D8D8"/>
<path d="M251.199 74.6367C251.199 74.6367 251.939 74.2305 253.077 74.683" stroke="#251D26" stroke-width="3.13416" stroke-linecap="round"/>
<path fill-rule="evenodd" clip-rule="evenodd" d="M259.084 74.6367C259.084 74.6367 259.824 74.2305 260.962 74.683L259.084 74.6367Z" fill="#D8D8D8"/>
<path d="M259.084 74.6367C259.084 74.6367 259.824 74.2305 260.962 74.683" stroke="#251D26" stroke-width="3.13416" stroke-linecap="round"/>
<path d="M262.752 87.4496C261.249 87.4496 260.031 86.2296 260.031 84.7248C260.031 83.2199 261.249 82 262.752 82C264.255 82 265.473 83.2199 265.473 84.7248C265.473 86.2296 264.255 87.4496 262.752 87.4496Z" fill="url(#paint85_linear_1_1615)"/>
<path d="M249.25 82.0259V82.0486C249.25 83.942 249.834 85.699 250.829 87.1507C251.712 86.6993 252.312 85.7834 252.312 84.7247C252.312 83.221 251.095 82.0032 249.59 82.0032C249.474 82.0032 249.36 82.0097 249.25 82.0259Z" fill="url(#paint86_linear_1_1615)"/>
<path d="M260.197 80.3839C260.453 80.3839 260.657 80.1759 260.657 79.9225V79.042C260.657 78.7853 260.45 78.5806 260.197 78.5806C259.94 78.5806 259.736 78.7885 259.736 79.042V79.9225C259.736 80.1792 259.94 80.3839 260.197 80.3839Z" fill="black"/>
<path d="M251.199 80.3837C251.455 80.3837 251.659 80.1757 251.659 79.9223V79.0417C251.659 78.785 251.452 78.5803 251.199 78.5803C250.943 78.5803 250.738 78.7883 250.738 79.0417V79.9223C250.738 80.1789 250.946 80.3837 251.199 80.3837Z" fill="black"/>
<path d="M249.009 76.7423C249.645 76.3331 250.56 75.6283 251.342 74.4981C252.775 72.4196 252.817 70.2567 252.791 69.4253C252.791 69.4253 253.463 74.4364 260.787 74.1669C262.311 77.4275 267.303 77.119 267.303 77.119C267.514 72.608 264.942 68.5906 261.118 67.2234C258.37 66.2426 255.14 66.6875 252.662 68.5387C248.649 71.5395 248.984 76.4435 249.009 76.7423Z" fill="url(#paint87_linear_1_1615)"/>
<path d="M256.561 85.7029H254.52C254.452 85.7029 254.394 85.6477 254.394 85.5762C254.394 85.5047 254.449 85.4495 254.52 85.4495H256.561C257.005 85.4495 257.42 85.2773 257.735 84.9621C257.784 84.9134 257.865 84.9134 257.913 84.9621C257.962 85.0108 257.962 85.0921 257.913 85.1408C257.553 85.5047 257.073 85.7029 256.561 85.7029Z" fill="url(#paint88_linear_1_1615)"/>
<path d="M256.275 81.0417C256.275 81.0417 257.686 83.9358 256.275 83.9358C254.864 83.9358 256.275 81.0417 256.275 81.0417Z" fill="url(#paint89_linear_1_1615)"/>
<path d="M261.101 75.5986C263.025 75.5986 264.582 77.1608 264.582 79.0834C264.582 81.006 263.021 82.5681 261.101 82.5681C259.178 82.5681 257.617 81.006 257.617 79.0834C257.617 77.1608 259.174 75.5986 261.101 75.5986ZM261.101 82.1816C262.807 82.1816 264.192 80.7949 264.192 79.0866C264.192 77.3783 262.811 75.9916 261.101 75.9916C259.392 75.9916 258.01 77.3783 258.01 79.0866C258.007 80.7949 259.392 82.1816 261.101 82.1816Z" fill="black"/>
<path d="M251.617 75.5986C253.541 75.5986 255.098 77.1608 255.098 79.0834C255.098 81.006 253.538 82.5681 251.617 82.5681C249.694 82.5681 248.134 81.006 248.134 79.0834C248.134 77.1608 249.691 75.5986 251.617 75.5986ZM251.617 82.1816C253.324 82.1816 254.709 80.7949 254.709 79.0866C254.709 77.3783 253.327 75.9916 251.617 75.9916C249.908 75.9916 248.526 77.3783 248.526 79.0866C248.523 80.7949 249.908 82.1816 251.617 82.1816Z" fill="black"/>
<path d="M258.156 78.1139C258.322 77.9547 258.309 77.6817 258.124 77.5453C257.764 77.2788 257.164 76.9507 256.376 76.9507C256.372 76.9507 256.366 76.9507 256.363 76.9507C255.578 76.9539 254.984 77.2788 254.627 77.5453C254.442 77.6817 254.429 77.9547 254.595 78.1139C254.728 78.2406 254.932 78.2601 255.078 78.1497C255.341 77.9514 255.782 77.7077 256.366 77.7077C256.369 77.7077 256.372 77.7077 256.376 77.7077C256.963 77.7077 257.407 77.9514 257.673 78.1497C257.822 78.2601 258.027 78.2439 258.156 78.1139Z" fill="black"/>
<path d="M269.609 95.0362C269.609 95.0362 264.631 94.7861 259.392 94.8186C255.069 94.8446 250.544 95.1401 249.918 95.3837C248.53 95.9228 246.775 97.2024 246.217 99.7063C245.662 102.21 245.325 106.419 245.325 108.426C245.325 109.414 247.174 118.124 247.174 118.124L247.388 127.711H269.768L271.264 105.042L269.609 95.0362Z" fill="url(#paint90_linear_1_1615)"/>
<path d="M262.593 184.074L263.689 208.821L263.968 216.891H268.869L269.012 208.821L269.586 183.957L262.593 184.074Z" fill="url(#paint91_linear_1_1615)"/>
<path d="M263.69 208.821L263.904 215.059H268.87L269.012 208.821H263.69Z" fill="url(#paint92_linear_1_1615)"/>
<path d="M263.093 222.107H273.527V221.425C273.527 220.483 273.093 219.594 272.35 219.012L271.448 218.311L269.356 214.712L269.294 214.605C269.294 214.498 269.278 214.384 269.242 214.264C269.058 213.589 268.354 212.803 267.416 212.803C267.368 212.803 267.322 212.806 267.274 212.809C267.231 212.803 267.186 212.803 267.144 212.803C266.116 212.803 265.25 213.495 264.99 214.443H263.884C263.77 214.576 263.657 214.709 263.543 214.842C263.209 215.579 262.801 216.71 262.671 218.142C262.512 219.873 262.833 221.273 263.093 222.107Z" fill="url(#paint93_linear_1_1615)"/>
<path d="M269.243 214.264C269.278 214.384 269.295 214.498 269.295 214.605L269.356 214.712C269.337 214.556 269.298 214.407 269.243 214.264Z" fill="url(#paint94_linear_1_1615)"/>
<path d="M249.383 183.957L249.126 215.06H254.028L256.373 184.074L249.383 183.957Z" fill="url(#paint95_linear_1_1615)"/>
<path d="M249.175 208.821L249.126 215.059H254.028L254.498 208.821H249.175Z" fill="url(#paint96_linear_1_1615)"/>
<path d="M242.857 182.992L247.184 183.216V184.34H270.842V183.216L275.818 182.992C275.818 182.992 273.891 143.809 273.038 137.48C272.188 131.153 269.931 130.448 269.931 130.448C270.274 130.448 270.216 129.714 270.216 129.714C270.216 129.714 270.216 127.86 270.216 127.396C270.216 126.934 269.921 126.707 269.921 126.707H247.401C247.129 126.707 246.908 126.928 246.905 127.201L246.895 128.951V130.042C246.895 130.185 247.009 130.299 247.151 130.299L247.025 130.357C246.84 130.445 246.71 130.614 246.674 130.815C246.509 131.77 246.003 134.716 245.63 137.48C244.783 143.809 242.857 182.992 242.857 182.992Z" fill="url(#paint97_linear_1_1615)"/>
<path d="M270.842 183.006C270.845 183.006 270.848 183.006 270.852 183.006C270.991 182.999 271.098 182.882 271.095 182.746C271.079 182.333 269.538 141.429 269.301 136.873C269.061 132.225 267.215 130.267 267.138 130.189C267.04 130.088 266.881 130.088 266.781 130.182C266.68 130.28 266.677 130.439 266.774 130.54C266.807 130.572 268.565 132.475 268.795 136.902C269.032 141.455 270.573 182.356 270.589 182.768C270.595 182.898 270.706 183.006 270.842 183.006Z" fill="url(#paint98_linear_1_1615)"/>
<path d="M264.867 184.126C264.87 184.126 264.87 184.126 264.874 184.126C265.013 184.123 265.123 184.009 265.12 183.869L264.007 130.293C264.004 130.153 263.887 130.049 263.751 130.046C263.612 130.049 263.501 130.163 263.505 130.302L264.617 183.879C264.617 184.019 264.731 184.126 264.867 184.126Z" fill="url(#paint99_linear_1_1615)"/>
<path d="M252.837 184.207C252.973 184.207 253.087 184.097 253.09 183.96L254.196 130.302C254.2 130.163 254.089 130.049 253.95 130.046C253.81 130.049 253.697 130.153 253.694 130.293L252.587 183.95C252.584 184.09 252.695 184.204 252.834 184.207C252.834 184.207 252.834 184.207 252.837 184.207Z" fill="url(#paint100_linear_1_1615)"/>
<path d="M247.391 182.927C247.524 182.927 247.638 182.82 247.641 182.684C247.657 182.271 249.198 141.448 249.435 136.895C249.665 132.452 251.439 130.552 251.455 130.533C251.553 130.432 251.55 130.273 251.449 130.176C251.348 130.078 251.19 130.081 251.095 130.182C251.018 130.263 249.175 132.218 248.932 136.866C248.695 141.422 247.154 182.248 247.138 182.661C247.132 182.801 247.242 182.917 247.381 182.921C247.385 182.927 247.388 182.927 247.391 182.927Z" fill="url(#paint101_linear_1_1615)"/>
<path d="M258.877 184.207C259.016 184.207 259.13 184.094 259.13 183.954V130.387C259.13 130.247 259.016 130.134 258.877 130.134C258.737 130.134 258.624 130.247 258.624 130.387V183.957C258.624 184.097 258.737 184.207 258.877 184.207Z" fill="url(#paint102_linear_1_1615)"/>
<path d="M248.419 130.553H268.688C268.827 130.553 268.941 130.439 268.941 130.299C268.941 130.16 268.827 130.046 268.688 130.046H248.419C248.28 130.046 248.166 130.16 248.166 130.299C248.169 130.439 248.28 130.553 248.419 130.553Z" fill="url(#paint103_linear_1_1615)"/>
<path d="M255.627 222.107H239.309C239.309 222.107 238.683 219.749 239.756 219.077C240.833 218.404 247.333 215.105 247.333 215.105C247.258 213.958 248.102 212.948 249.214 212.815C250.366 212.679 251.443 213.523 251.589 214.699C252.442 214.728 253.291 214.757 254.144 214.79C254.608 215.212 255.199 215.995 255.468 217.057C256.12 219.639 255.805 221.389 255.627 222.107Z" fill="url(#paint104_linear_1_1615)"/>
<path d="M255.115 221.299H239.873C239.734 221.299 239.62 221.185 239.62 221.045C239.62 220.905 239.734 220.792 239.873 220.792H255.115C255.254 220.792 255.367 220.905 255.367 221.045C255.367 221.185 255.254 221.299 255.115 221.299Z" fill="url(#paint105_linear_1_1615)"/>
<path d="M250.465 221.185C250.452 221.185 250.436 221.182 250.423 221.179C250.358 221.156 250.323 221.085 250.349 221.016C250.362 220.984 251.552 217.762 255.032 217.583C255.104 217.577 255.162 217.632 255.165 217.703C255.169 217.772 255.117 217.833 255.045 217.837C251.73 218.009 250.595 221.075 250.585 221.104C250.566 221.153 250.517 221.185 250.465 221.185Z" fill="url(#paint106_linear_1_1615)"/>
<path d="M276.91 147.963L276.472 151.12L275.357 152.897L274.396 153.4C274.192 153.507 273.942 153.452 273.796 153.273C273.611 153.039 273.68 152.695 273.942 152.552L274.442 152.28L274.682 147.535L276.91 147.963Z" fill="url(#paint107_linear_1_1615)"/>
<path d="M274.909 147.473L275.198 150.318L274.646 152.659L274.069 153.224C273.839 153.448 273.466 153.429 273.261 153.182C273.089 152.977 273.093 152.679 273.265 152.474L273.608 152.068L273.923 149.905L273.067 147.59L274.909 147.473Z" fill="url(#paint108_linear_1_1615)"/>
<path d="M276.953 138.061C276.953 138.061 277.089 148.015 276.91 147.992C276.732 147.97 273.063 147.619 273.063 147.619C272.817 146.115 272.674 143.764 273.592 141.202C273.819 140.565 274.085 139.993 274.361 139.49C274.218 138.048 274.075 136.609 273.933 135.167L276.726 134.947L276.953 138.061Z" fill="url(#paint109_linear_1_1615)"/>
<path d="M274.358 143.647L273.725 146.375L273.278 148.989C273.235 149.226 273.008 149.386 272.771 149.343C272.34 149.265 272.051 148.853 272.123 148.421L272.444 146.479C272.444 146.479 271.643 142.926 273.871 140.468L274.358 143.647Z" fill="url(#paint110_linear_1_1615)"/>
<path d="M268.892 118.988L270.787 138.961C270.787 138.961 270.835 140.52 272.155 140.458C272.405 141.546 272.554 142.273 272.554 142.273L277.952 141.974L277.796 140.11C277.796 140.11 279.149 139.272 278.986 137.587C278.821 135.901 276.456 120.52 276.028 115.292C275.603 110.06 275.393 95.9747 269.959 95.0134C269.625 94.9549 269.333 94.9777 269.08 95.0686C265.444 96.3514 267.611 111.453 268.892 118.988Z" fill="url(#paint111_linear_1_1615)"/>
<path d="M266.232 221.049L265.996 220.363C265.548 219.058 264.481 218.06 263.151 217.703" stroke="url(#paint112_linear_1_1615)" stroke-width="0.587656" stroke-miterlimit="10" stroke-linecap="round"/>
<path d="M263.475 221.048H272.859" stroke="url(#paint113_linear_1_1615)" stroke-width="1.17531" stroke-miterlimit="10" stroke-linecap="round"/>
<defs>
<linearGradient id="paint0_linear_1_1615" x1="95.8988" y1="213.726" x2="100.406" y2="214.205" gradientUnits="userSpaceOnUse">
<stop stop-color="#2C2C47"/>
<stop offset="1" stop-color="#827250"/>
</linearGradient>
<linearGradient id="paint1_linear_1_1615" x1="95.7488" y1="216.305" x2="110.282" y2="217.848" gradientUnits="userSpaceOnUse">
<stop stop-color="#2B2B60"/>
<stop offset="1" stop-color="#2E5341"/>
</linearGradient>
<linearGradient id="paint2_linear_1_1615" x1="109.526" y1="218.841" x2="105.834" y2="218.477" gradientUnits="userSpaceOnUse">
<stop stop-color="#2A263F"/>
<stop offset="0.5624" stop-color="#353A53"/>
<stop offset="1" stop-color="#3B445E"/>
</linearGradient>
<linearGradient id="paint3_linear_1_1615" x1="99.4527" y1="213.601" x2="99.9792" y2="207.525" gradientUnits="userSpaceOnUse">
<stop stop-color="#FFBB8A"/>
<stop offset="0.4001" stop-color="#FFB989"/>
<stop offset="0.5898" stop-color="#FEB185"/>
<stop offset="0.7351" stop-color="#FDA47E"/>
<stop offset="0.8578" stop-color="#FC9274"/>
<stop offset="0.9652" stop-color="#FA7A68"/>
<stop offset="1" stop-color="#F97163"/>
</linearGradient>
<linearGradient id="paint4_linear_1_1615" x1="99.4474" y1="180.24" x2="105.281" y2="217.865" gradientUnits="userSpaceOnUse">
<stop stop-color="#586AAF"/>
<stop offset="0.0201" stop-color="#596DB1"/>
<stop offset="0.236" stop-color="#6085C0"/>
<stop offset="0.4633" stop-color="#6696CB"/>
<stop offset="0.7079" stop-color="#69A1D1"/>
<stop offset="1" stop-color="#6AA4D3"/>
</linearGradient>
<linearGradient id="paint5_linear_1_1615" x1="113.817" y1="213.23" x2="117.745" y2="210.966" gradientUnits="userSpaceOnUse">
<stop stop-color="#2C2C47"/>
<stop offset="1" stop-color="#827250"/>
</linearGradient>
<linearGradient id="paint6_linear_1_1615" x1="115.211" y1="215.402" x2="127.878" y2="208.103" gradientUnits="userSpaceOnUse">
<stop stop-color="#2B2B60"/>
<stop offset="1" stop-color="#2E5341"/>
</linearGradient>
<linearGradient id="paint7_linear_1_1615" x1="127.843" y1="209.346" x2="124.663" y2="211.241" gradientUnits="userSpaceOnUse">
<stop stop-color="#2A263F"/>
<stop offset="0.5624" stop-color="#353A53"/>
<stop offset="1" stop-color="#3B445E"/>
</linearGradient>
<linearGradient id="paint8_linear_1_1615" x1="116.616" y1="211.033" x2="112.811" y2="204.678" gradientUnits="userSpaceOnUse">
<stop stop-color="#FFBB8A"/>
<stop offset="0.4001" stop-color="#FFB989"/>
<stop offset="0.5898" stop-color="#FEB185"/>
<stop offset="0.7351" stop-color="#FDA47E"/>
<stop offset="0.8578" stop-color="#FC9274"/>
<stop offset="0.9652" stop-color="#FA7A68"/>
<stop offset="1" stop-color="#F97163"/>
</linearGradient>
<linearGradient id="paint9_linear_1_1615" x1="100.364" y1="193.204" x2="145.3" y2="231.124" gradientUnits="userSpaceOnUse">
<stop stop-color="#586AAF"/>
<stop offset="0.0201" stop-color="#596DB1"/>
<stop offset="0.236" stop-color="#6085C0"/>
<stop offset="0.4633" stop-color="#6696CB"/>
<stop offset="0.7079" stop-color="#69A1D1"/>
<stop offset="1" stop-color="#6AA4D3"/>
</linearGradient>
<linearGradient id="paint10_linear_1_1615" x1="42.4032" y1="145.42" x2="80.0625" y2="216.859" gradientUnits="userSpaceOnUse">
<stop stop-color="#586AAF"/>
<stop offset="0.0201" stop-color="#596DB1"/>
<stop offset="0.236" stop-color="#6085C0"/>
<stop offset="0.4633" stop-color="#6696CB"/>
<stop offset="0.7079" stop-color="#69A1D1"/>
<stop offset="1" stop-color="#6AA4D3"/>
</linearGradient>
<linearGradient id="paint11_linear_1_1615" x1="74.8249" y1="160.54" x2="62.7976" y2="173.958" gradientUnits="userSpaceOnUse">
<stop stop-color="#586AAF"/>
<stop offset="0.0201" stop-color="#596DB1"/>
<stop offset="0.236" stop-color="#6085C0"/>
<stop offset="0.4633" stop-color="#6696CB"/>
<stop offset="0.7079" stop-color="#69A1D1"/>
<stop offset="1" stop-color="#6AA4D3"/>
</linearGradient>
<linearGradient id="paint12_linear_1_1615" x1="98.1054" y1="188.459" x2="107.95" y2="246.468" gradientUnits="userSpaceOnUse">
<stop stop-color="#586AAF"/>
<stop offset="0.0201" stop-color="#596DB1"/>
<stop offset="0.236" stop-color="#6085C0"/>
<stop offset="0.4633" stop-color="#6696CB"/>
<stop offset="0.7079" stop-color="#69A1D1"/>
<stop offset="1" stop-color="#6AA4D3"/>
</linearGradient>
<linearGradient id="paint13_linear_1_1615" x1="68.5565" y1="100.809" x2="68.3674" y2="96.5601" gradientUnits="userSpaceOnUse">
<stop stop-color="#F4AE7B"/>
<stop offset="1" stop-color="#F97163"/>
</linearGradient>
<linearGradient id="paint14_linear_1_1615" x1="59.2195" y1="120.985" x2="59.5292" y2="139.325" gradientUnits="userSpaceOnUse">
<stop stop-color="#F5CD3D"/>
<stop offset="1" stop-color="#F39970"/>
</linearGradient>
<linearGradient id="paint15_linear_1_1615" x1="53.1661" y1="115.967" x2="54.5246" y2="140.938" gradientUnits="userSpaceOnUse">
<stop stop-color="#F5CD3D"/>
<stop offset="1" stop-color="#F39970"/>
</linearGradient>
<linearGradient id="paint16_linear_1_1615" x1="69.0173" y1="112.536" x2="69.2318" y2="130.654" gradientUnits="userSpaceOnUse">
<stop stop-color="#F4D04C"/>
<stop offset="1" stop-color="#F39970"/>
</linearGradient>
<linearGradient id="paint17_linear_1_1615" x1="75.4504" y1="123.24" x2="74.8557" y2="106.864" gradientUnits="userSpaceOnUse">
<stop stop-color="#586AAF"/>
<stop offset="0.0201" stop-color="#596DB1"/>
<stop offset="0.236" stop-color="#6085C0"/>
<stop offset="0.4633" stop-color="#6696CB"/>
<stop offset="0.7079" stop-color="#69A1D1"/>
<stop offset="1" stop-color="#6AA4D3"/>
</linearGradient>
<linearGradient id="paint18_linear_1_1615" x1="59.2998" y1="123.234" x2="58.7208" y2="107.289" gradientUnits="userSpaceOnUse">
<stop stop-color="#586AAF"/>
<stop offset="0.0201" stop-color="#596DB1"/>
<stop offset="0.236" stop-color="#6085C0"/>
<stop offset="0.4633" stop-color="#6696CB"/>
<stop offset="0.7079" stop-color="#69A1D1"/>
<stop offset="1" stop-color="#6AA4D3"/>
</linearGradient>
<linearGradient id="paint19_linear_1_1615" x1="68.29" y1="123.721" x2="67.5176" y2="160.747" gradientUnits="userSpaceOnUse">
<stop stop-color="#586AAF"/>
<stop offset="0.0201" stop-color="#596DB1"/>
<stop offset="0.236" stop-color="#6085C0"/>
<stop offset="0.4633" stop-color="#6696CB"/>
<stop offset="0.7079" stop-color="#69A1D1"/>
<stop offset="1" stop-color="#6AA4D3"/>
</linearGradient>
<linearGradient id="paint20_linear_1_1615" x1="70.0586" y1="110.567" x2="70.1745" y2="103.738" gradientUnits="userSpaceOnUse">
<stop stop-color="#FFBD96"/>
<stop offset="0.3974" stop-color="#FFBB95"/>
<stop offset="0.5857" stop-color="#FEB390"/>
<stop offset="0.73" stop-color="#FDA687"/>
<stop offset="0.8519" stop-color="#FC947B"/>
<stop offset="0.9586" stop-color="#FA7C6B"/>
<stop offset="1" stop-color="#F97163"/>
</linearGradient>
<linearGradient id="paint21_linear_1_1615" x1="67.2817" y1="106.828" x2="67.3709" y2="117.455" gradientUnits="userSpaceOnUse">
<stop stop-color="#F5CD3D"/>
<stop offset="1" stop-color="#F39970"/>
</linearGradient>
<linearGradient id="paint22_linear_1_1615" x1="109.832" y1="106.911" x2="107.318" y2="109.281" gradientUnits="userSpaceOnUse">
<stop stop-color="#FFBD96"/>
<stop offset="0.3974" stop-color="#FFBB95"/>
<stop offset="0.5857" stop-color="#FEB390"/>
<stop offset="0.73" stop-color="#FDA687"/>
<stop offset="0.8519" stop-color="#FC947B"/>
<stop offset="0.9586" stop-color="#FA7C6B"/>
<stop offset="1" stop-color="#F97163"/>
</linearGradient>
<linearGradient id="paint23_linear_1_1615" x1="107.211" y1="102.455" x2="96.7597" y2="117.202" gradientUnits="userSpaceOnUse">
<stop offset="0.0218" stop-color="#F97163"/>
<stop offset="0.0285" stop-color="#F97364"/>
<stop offset="0.1473" stop-color="#FB8E76"/>
<stop offset="0.2761" stop-color="#FDA384"/>
<stop offset="0.42" stop-color="#FEB28E"/>
<stop offset="0.5899" stop-color="#FFBA94"/>
<stop offset="0.8504" stop-color="#FFBD96"/>
</linearGradient>
<linearGradient id="paint24_linear_1_1615" x1="107.779" y1="103.55" x2="104.376" y2="107.368" gradientUnits="userSpaceOnUse">
<stop stop-color="#FFBD96"/>
<stop offset="0.3974" stop-color="#FFBB95"/>
<stop offset="0.5857" stop-color="#FEB390"/>
<stop offset="0.73" stop-color="#FDA687"/>
<stop offset="0.8519" stop-color="#FC947B"/>
<stop offset="0.9586" stop-color="#FA7C6B"/>
<stop offset="1" stop-color="#F97163"/>
</linearGradient>
<linearGradient id="paint25_linear_1_1615" x1="108.859" y1="105.429" x2="105.543" y2="108.191" gradientUnits="userSpaceOnUse">
<stop stop-color="#FFBD96"/>
<stop offset="0.3974" stop-color="#FFBB95"/>
<stop offset="0.5857" stop-color="#FEB390"/>
<stop offset="0.73" stop-color="#FDA687"/>
<stop offset="0.8519" stop-color="#FC947B"/>
<stop offset="0.9586" stop-color="#FA7C6B"/>
<stop offset="1" stop-color="#F97163"/>
</linearGradient>
<linearGradient id="paint26_linear_1_1615" x1="106.537" y1="106.681" x2="100.185" y2="115.063" gradientUnits="userSpaceOnUse">
<stop stop-color="#FFBD96"/>
<stop offset="0.4752" stop-color="#FFBB95"/>
<stop offset="0.6464" stop-color="#FEB490"/>
<stop offset="0.7685" stop-color="#FDA988"/>
<stop offset="0.8671" stop-color="#FC987D"/>
<stop offset="0.9506" stop-color="#FA826E"/>
<stop offset="1" stop-color="#F97163"/>
</linearGradient>
<linearGradient id="paint27_linear_1_1615" x1="104.26" y1="105.792" x2="108.179" y2="98.2562" gradientUnits="userSpaceOnUse">
<stop stop-color="#FFBD96"/>
<stop offset="0.3974" stop-color="#FFBB95"/>
<stop offset="0.5857" stop-color="#FEB390"/>
<stop offset="0.73" stop-color="#FDA687"/>
<stop offset="0.8519" stop-color="#FC947B"/>
<stop offset="0.9586" stop-color="#FA7C6B"/>
<stop offset="1" stop-color="#F97163"/>
</linearGradient>
<linearGradient id="paint28_linear_1_1615" x1="93.6193" y1="116.794" x2="93.9492" y2="136.141" gradientUnits="userSpaceOnUse">
<stop stop-color="#F5CD3D"/>
<stop offset="1" stop-color="#F39970"/>
</linearGradient>
<linearGradient id="paint29_linear_1_1615" x1="82.543" y1="115.184" x2="82.9431" y2="137.849" gradientUnits="userSpaceOnUse">
<stop stop-color="#F5CD3D"/>
<stop offset="1" stop-color="#F39970"/>
</linearGradient>
<linearGradient id="paint30_linear_1_1615" x1="71.8332" y1="96.6542" x2="71.5935" y2="82.7103" gradientUnits="userSpaceOnUse">
<stop stop-color="#FFBB8A"/>
<stop offset="0.4001" stop-color="#FFB989"/>
<stop offset="0.5898" stop-color="#FEB185"/>
<stop offset="0.7351" stop-color="#FDA47E"/>
<stop offset="0.8578" stop-color="#FC9274"/>
<stop offset="0.9652" stop-color="#FA7A68"/>
<stop offset="1" stop-color="#F97163"/>
</linearGradient>
<linearGradient id="paint31_linear_1_1615" x1="79.3584" y1="91.15" x2="78.972" y2="102.506" gradientUnits="userSpaceOnUse">
<stop stop-color="#FFBB8A"/>
<stop offset="1" stop-color="#F97163"/>
</linearGradient>
<linearGradient id="paint32_linear_1_1615" x1="64.5174" y1="79.8874" x2="63.8992" y2="119.554" gradientUnits="userSpaceOnUse">
<stop stop-color="#251D26"/>
<stop offset="1" stop-color="#F97163"/>
</linearGradient>
<linearGradient id="paint33_linear_1_1615" x1="78.9831" y1="81.1599" x2="77.8139" y2="111.263" gradientUnits="userSpaceOnUse">
<stop stop-color="#251D26"/>
<stop offset="1" stop-color="#F97163"/>
</linearGradient>
<linearGradient id="paint34_linear_1_1615" x1="143.71" y1="110.989" x2="161.088" y2="132.346" gradientUnits="userSpaceOnUse">
<stop stop-color="#26586C"/>
<stop offset="1" stop-color="#41545B"/>
</linearGradient>
<linearGradient id="paint35_linear_1_1615" x1="146.778" y1="131.69" x2="147.236" y2="155.404" gradientUnits="userSpaceOnUse">
<stop stop-color="#B9D7E4"/>
<stop offset="1" stop-color="#41545B"/>
</linearGradient>
<linearGradient id="paint36_linear_1_1615" x1="144.345" y1="143.914" x2="144.328" y2="145.235" gradientUnits="userSpaceOnUse">
<stop stop-color="#26586C"/>
<stop offset="1" stop-color="#41545B"/>
</linearGradient>
<linearGradient id="paint37_linear_1_1615" x1="142.752" y1="144.104" x2="142.195" y2="148.775" gradientUnits="userSpaceOnUse">
<stop stop-color="#9FCEE0"/>
<stop offset="1" stop-color="#41545B"/>
</linearGradient>
<linearGradient id="paint38_linear_1_1615" x1="148.86" y1="97.496" x2="141.607" y2="134.162" gradientUnits="userSpaceOnUse">
<stop stop-color="#26586C"/>
<stop offset="1" stop-color="#41545B"/>
</linearGradient>
<linearGradient id="paint39_linear_1_1615" x1="175.482" y1="96.2943" x2="122.612" y2="173.216" gradientUnits="userSpaceOnUse">
<stop stop-color="#30343F"/>
<stop offset="1"/>
</linearGradient>
<linearGradient id="paint40_linear_1_1615" x1="163.962" y1="102.293" x2="124.833" y2="130.851" gradientUnits="userSpaceOnUse">
<stop stop-color="#6CCCFF"/>
<stop offset="0.435864" stop-color="#FF8514"/>
<stop offset="0.713131" stop-color="#FD003F"/>
<stop offset="1" stop-color="#BA1A8B"/>
</linearGradient>
<linearGradient id="paint41_linear_1_1615" x1="0.829271" y1="1.02741" x2="0.829363" y2="3.10785" gradientUnits="userSpaceOnUse">
<stop stop-color="#508ED1"/>
<stop offset="1" stop-color="#76B7EB"/>
</linearGradient>
<linearGradient id="paint42_linear_1_1615" x1="2.08024" y1="-1.42608" x2="2.08024" y2="3.10785" gradientUnits="userSpaceOnUse">
<stop stop-color="#6696CB"/>
<stop offset="1" stop-color="#76B7EB"/>
</linearGradient>
<linearGradient id="paint43_linear_1_1615" x1="0.829271" y1="1.02741" x2="0.829363" y2="3.10785" gradientUnits="userSpaceOnUse">
<stop stop-color="#508ED1"/>
<stop offset="1" stop-color="#76B7EB"/>
</linearGradient>
<linearGradient id="paint44_linear_1_1615" x1="2.08024" y1="-1.42608" x2="2.08024" y2="3.10785" gradientUnits="userSpaceOnUse">
<stop stop-color="#6696CB"/>
<stop offset="1" stop-color="#76B7EB"/>
</linearGradient>
<linearGradient id="paint45_linear_1_1615" x1="0.829271" y1="1.02741" x2="0.829363" y2="3.10785" gradientUnits="userSpaceOnUse">
<stop stop-color="#508ED1"/>
<stop offset="1" stop-color="#76B7EB"/>
</linearGradient>
<linearGradient id="paint46_linear_1_1615" x1="2.08024" y1="-1.42608" x2="2.08024" y2="3.10785" gradientUnits="userSpaceOnUse">
<stop stop-color="#6696CB"/>
<stop offset="1" stop-color="#76B7EB"/>
</linearGradient>
<linearGradient id="paint47_linear_1_1615" x1="0.829271" y1="1.02741" x2="0.829363" y2="3.10785" gradientUnits="userSpaceOnUse">
<stop stop-color="#508ED1"/>
<stop offset="1" stop-color="#76B7EB"/>
</linearGradient>
<linearGradient id="paint48_linear_1_1615" x1="2.08024" y1="-1.42608" x2="2.08024" y2="3.10785" gradientUnits="userSpaceOnUse">
<stop stop-color="#6696CB"/>
<stop offset="1" stop-color="#76B7EB"/>
</linearGradient>
<linearGradient id="paint49_linear_1_1615" x1="0.829271" y1="1.02741" x2="0.829363" y2="3.10785" gradientUnits="userSpaceOnUse">
<stop stop-color="#508ED1"/>
<stop offset="1" stop-color="#76B7EB"/>
</linearGradient>
<linearGradient id="paint50_linear_1_1615" x1="2.08024" y1="-1.42608" x2="2.08024" y2="3.10785" gradientUnits="userSpaceOnUse">
<stop stop-color="#6696CB"/>
<stop offset="1" stop-color="#76B7EB"/>
</linearGradient>
<linearGradient id="paint51_linear_1_1615" x1="0.829271" y1="1.02741" x2="0.829363" y2="3.10785" gradientUnits="userSpaceOnUse">
<stop stop-color="#508ED1"/>
<stop offset="1" stop-color="#76B7EB"/>
</linearGradient>
<linearGradient id="paint52_linear_1_1615" x1="2.08024" y1="-1.42608" x2="2.08024" y2="3.10785" gradientUnits="userSpaceOnUse">
<stop stop-color="#6696CB"/>
<stop offset="1" stop-color="#76B7EB"/>
</linearGradient>
<linearGradient id="paint53_linear_1_1615" x1="0.829271" y1="1.02741" x2="0.829363" y2="3.10785" gradientUnits="userSpaceOnUse">
<stop stop-color="#508ED1"/>
<stop offset="1" stop-color="#76B7EB"/>
</linearGradient>
<linearGradient id="paint54_linear_1_1615" x1="2.08024" y1="-1.42608" x2="2.08024" y2="3.10785" gradientUnits="userSpaceOnUse">
<stop stop-color="#6696CB"/>
<stop offset="1" stop-color="#76B7EB"/>
</linearGradient>
<linearGradient id="paint55_linear_1_1615" x1="0.829271" y1="1.02741" x2="0.829363" y2="3.10785" gradientUnits="userSpaceOnUse">
<stop stop-color="#508ED1"/>
<stop offset="1" stop-color="#76B7EB"/>
</linearGradient>
<linearGradient id="paint56_linear_1_1615" x1="2.08024" y1="-1.42608" x2="2.08024" y2="3.10785" gradientUnits="userSpaceOnUse">
<stop stop-color="#6696CB"/>
<stop offset="1" stop-color="#76B7EB"/>
</linearGradient>
<linearGradient id="paint57_linear_1_1615" x1="1.24051" y1="2.33642" x2="1.24051" y2="0" gradientUnits="userSpaceOnUse">
<stop stop-color="#6696CB"/>
<stop offset="1" stop-color="#76B7EB"/>
</linearGradient>
<linearGradient id="paint58_linear_1_1615" x1="1.24051" y1="2.33642" x2="1.24051" y2="0" gradientUnits="userSpaceOnUse">
<stop stop-color="#6696CB"/>
<stop offset="1" stop-color="#76B7EB"/>
</linearGradient>
<linearGradient id="paint59_linear_1_1615" x1="2.60359" y1="0.219761" x2="-1.77558" y2="2.70795" gradientUnits="userSpaceOnUse">
<stop stop-color="#9FCEE0"/>
<stop offset="1" stop-color="#41545B"/>
</linearGradient>
<linearGradient id="paint60_linear_1_1615" x1="1.3977" y1="-0.165989" x2="0.657412" y2="2.06869" gradientUnits="userSpaceOnUse">
<stop stop-color="#26586C"/>
<stop offset="1" stop-color="#41545B"/>
</linearGradient>
<linearGradient id="paint61_linear_1_1615" x1="1.08178" y1="2.03746" x2="1.08178" y2="0" gradientUnits="userSpaceOnUse">
<stop stop-color="#6696CB"/>
<stop offset="1" stop-color="#76B7EB"/>
</linearGradient>
<linearGradient id="paint62_linear_1_1615" x1="9.89291" y1="-2.27491e-08" x2="-16.2427" y2="1.98543e-08" gradientUnits="userSpaceOnUse">
<stop stop-color="#9FCEE0"/>
<stop offset="1" stop-color="#41545B"/>
</linearGradient>
<linearGradient id="paint63_linear_1_1615" x1="24.7422" y1="198.213" x2="40.733" y2="183.289" gradientUnits="userSpaceOnUse">
<stop stop-color="#B2CC6C"/>
<stop offset="1" stop-color="#55973E"/>
</linearGradient>
<linearGradient id="paint64_linear_1_1615" x1="21.1442" y1="208.277" x2="35.6933" y2="185.384" gradientUnits="userSpaceOnUse">
<stop stop-color="#B2CC6C"/>
<stop offset="1" stop-color="#55973E"/>
</linearGradient>
<linearGradient id="paint65_linear_1_1615" x1="30.1416" y1="199.742" x2="19.476" y2="187.7" gradientUnits="userSpaceOnUse">
<stop stop-color="#B2CC6C"/>
<stop offset="1" stop-color="#55973E"/>
</linearGradient>
<linearGradient id="paint66_linear_1_1615" x1="21.7621" y1="201.205" x2="24.9218" y2="188.3" gradientUnits="userSpaceOnUse">
<stop stop-color="#B2CC6C"/>
<stop offset="1" stop-color="#55973E"/>
</linearGradient>
<linearGradient id="paint67_linear_1_1615" x1="32.8015" y1="215.361" x2="57.252" y2="192.529" gradientUnits="userSpaceOnUse">
<stop stop-color="#B2CC6C"/>
<stop offset="1" stop-color="#55973E"/>
</linearGradient>
<linearGradient id="paint68_linear_1_1615" x1="25.0843" y1="192.619" x2="13.1961" y2="216.703" gradientUnits="userSpaceOnUse">
<stop stop-color="#26586C"/>
<stop offset="1" stop-color="#41545B"/>
</linearGradient>
<linearGradient id="paint69_linear_1_1615" x1="231.262" y1="116.972" x2="209.725" y2="103.283" gradientUnits="userSpaceOnUse">
<stop offset="0.2795" stop-color="#FFBB8A"/>
<stop offset="0.7702" stop-color="#F97163"/>
</linearGradient>
<linearGradient id="paint70_linear_1_1615" x1="228.179" y1="116.056" x2="213.909" y2="106.985" gradientUnits="userSpaceOnUse">
<stop stop-color="#FFBB8A"/>
<stop offset="1" stop-color="#F97163"/>
</linearGradient>
<linearGradient id="paint71_linear_1_1615" x1="222.871" y1="111.757" x2="217.434" y2="108.825" gradientUnits="userSpaceOnUse">
<stop stop-color="#FFBB8A"/>
<stop offset="1" stop-color="#F97163"/>
</linearGradient>
<linearGradient id="paint72_linear_1_1615" x1="226.105" y1="115.796" x2="215.477" y2="108.014" gradientUnits="userSpaceOnUse">
<stop stop-color="#FFBB8A"/>
<stop offset="1" stop-color="#F97163"/>
</linearGradient>
<linearGradient id="paint73_linear_1_1615" x1="227.481" y1="117.155" x2="213.211" y2="108.084" gradientUnits="userSpaceOnUse">
<stop offset="0.2795" stop-color="#FFBB8A"/>
<stop offset="0.7702" stop-color="#F97163"/>
</linearGradient>
<linearGradient id="paint74_linear_1_1615" x1="216.871" y1="106.967" x2="225.515" y2="117.027" gradientUnits="userSpaceOnUse">
<stop stop-color="#777C89"/>
<stop offset="0.0346" stop-color="#828692"/>
<stop offset="0.1743" stop-color="#A8ABB3"/>
<stop offset="0.3197" stop-color="#C7CACF"/>
<stop offset="0.4702" stop-color="#E0E1E4"/>
<stop offset="0.6279" stop-color="#F1F2F3"/>
<stop offset="0.7975" stop-color="#FCFCFC"/>
<stop offset="1" stop-color="white"/>
</linearGradient>
<linearGradient id="paint75_linear_1_1615" x1="219.368" y1="101.287" x2="220.063" y2="113.673" gradientUnits="userSpaceOnUse">
<stop stop-color="#777C89"/>
<stop offset="0.0346" stop-color="#828692"/>
<stop offset="0.1743" stop-color="#A8ABB3"/>
<stop offset="0.3197" stop-color="#C7CACF"/>
<stop offset="0.4702" stop-color="#E0E1E4"/>
<stop offset="0.6279" stop-color="#F1F2F3"/>
<stop offset="0.7975" stop-color="#FCFCFC"/>
<stop offset="1" stop-color="white"/>
</linearGradient>
<linearGradient id="paint76_linear_1_1615" x1="197.957" y1="90.9753" x2="237.375" y2="122.14" gradientUnits="userSpaceOnUse">
<stop stop-color="#777C89"/>
<stop offset="0.0376" stop-color="#6D717D"/>
<stop offset="0.1769" stop-color="#4C4F57"/>
<stop offset="0.3218" stop-color="#303238"/>
<stop offset="0.4719" stop-color="#1B1C1F"/>
<stop offset="0.6291" stop-color="#0C0C0E"/>
<stop offset="0.7981" stop-color="#030303"/>
<stop offset="1"/>
</linearGradient>
<linearGradient id="paint77_linear_1_1615" x1="228.208" y1="113.185" x2="219.788" y2="106.221" gradientUnits="userSpaceOnUse">
<stop stop-color="#FFBB8A"/>
<stop offset="1" stop-color="#F97163"/>
</linearGradient>
<linearGradient id="paint78_linear_1_1615" x1="216.833" y1="100.947" x2="217.741" y2="117.105" gradientUnits="userSpaceOnUse">
<stop stop-color="#777C89"/>
<stop offset="0.0346" stop-color="#828692"/>
<stop offset="0.1743" stop-color="#A8ABB3"/>
<stop offset="0.3197" stop-color="#C7CACF"/>
<stop offset="0.4702" stop-color="#E0E1E4"/>
<stop offset="0.6279" stop-color="#F1F2F3"/>
<stop offset="0.7975" stop-color="#FCFCFC"/>
<stop offset="1" stop-color="white"/>
</linearGradient>
<linearGradient id="paint79_linear_1_1615" x1="234.471" y1="124.417" x2="250.58" y2="107.659" gradientUnits="userSpaceOnUse">
<stop offset="0.3675" stop-color="#E887D6"/>
<stop offset="0.4509" stop-color="#E991CA"/>
<stop offset="0.614" stop-color="#EBA0B9"/>
<stop offset="0.7898" stop-color="#EDA8AE"/>
<stop offset="1" stop-color="#EDABAB"/>
</linearGradient>
<linearGradient id="paint80_linear_1_1615" x1="261.522" y1="107.584" x2="260.444" y2="83.5261" gradientUnits="userSpaceOnUse">
<stop stop-color="#829389"/>
<stop offset="0.3283" stop-color="#606865"/>
<stop offset="0.7801" stop-color="#363238"/>
<stop offset="1" stop-color="#251D26"/>
</linearGradient>
<linearGradient id="paint81_linear_1_1615" x1="258.214" y1="92.0815" x2="258.274" y2="89.6877" gradientUnits="userSpaceOnUse">
<stop stop-color="#F4AE7B"/>
<stop offset="1" stop-color="#F97163"/>
</linearGradient>
<linearGradient id="paint82_linear_1_1615" x1="268.168" y1="80.5208" x2="266.395" y2="80.5208" gradientUnits="userSpaceOnUse">
<stop stop-color="#F9BC93"/>
<stop offset="1" stop-color="#F97163"/>
</linearGradient>
<linearGradient id="paint83_linear_1_1615" x1="270.444" y1="81.9256" x2="268.408" y2="78.9356" gradientUnits="userSpaceOnUse">
<stop stop-color="#F9BC93"/>
<stop offset="1" stop-color="#F97163"/>
</linearGradient>
<linearGradient id="paint84_linear_1_1615" x1="258.166" y1="84.881" x2="258.406" y2="70.9372" gradientUnits="userSpaceOnUse">
<stop stop-color="#FFBB8A"/>
<stop offset="0.4001" stop-color="#FFB989"/>
<stop offset="0.5898" stop-color="#FEB185"/>
<stop offset="0.7351" stop-color="#FDA47E"/>
<stop offset="0.8578" stop-color="#FC9274"/>
<stop offset="0.9652" stop-color="#FA7A68"/>
<stop offset="1" stop-color="#F97163"/>
</linearGradient>
<linearGradient id="paint85_linear_1_1615" x1="259.508" y1="78.4628" x2="269.933" y2="98.5363" gradientUnits="userSpaceOnUse">
<stop stop-color="#FFBB8A"/>
<stop offset="1" stop-color="#F97163"/>
</linearGradient>
<linearGradient id="paint86_linear_1_1615" x1="250.642" y1="79.3771" x2="251.028" y2="90.733" gradientUnits="userSpaceOnUse">
<stop stop-color="#FFBB8A"/>
<stop offset="1" stop-color="#F97163"/>
</linearGradient>
<linearGradient id="paint87_linear_1_1615" x1="260.587" y1="103.235" x2="257.711" y2="71.5479" gradientUnits="userSpaceOnUse">
<stop stop-color="#829389"/>
<stop offset="0.3283" stop-color="#606865"/>
<stop offset="0.7801" stop-color="#363238"/>
<stop offset="1" stop-color="#251D26"/>
</linearGradient>
<linearGradient id="paint88_linear_1_1615" x1="252.907" y1="85.2585" x2="254.625" y2="85.2883" gradientUnits="userSpaceOnUse">
<stop stop-color="#FFBB8A"/>
<stop offset="1" stop-color="#F97163"/>
</linearGradient>
<linearGradient id="paint89_linear_1_1615" x1="256.158" y1="80.6804" x2="256.36" y2="85.0347" gradientUnits="userSpaceOnUse">
<stop stop-color="#FFBB8A"/>
<stop offset="1" stop-color="#F97163"/>
</linearGradient>
<linearGradient id="paint90_linear_1_1615" x1="258.738" y1="129.587" x2="258.044" y2="93.9767" gradientUnits="userSpaceOnUse">
<stop offset="0.3675" stop-color="#E887D6"/>
<stop offset="0.4509" stop-color="#E991CA"/>
<stop offset="0.614" stop-color="#EBA0B9"/>
<stop offset="0.7898" stop-color="#EDA8AE"/>
<stop offset="1" stop-color="#EDABAB"/>
</linearGradient>
<linearGradient id="paint91_linear_1_1615" x1="266.214" y1="194.319" x2="266.091" y2="184.145" gradientUnits="userSpaceOnUse">
<stop stop-color="#F4AE7B"/>
<stop offset="1" stop-color="#F97163"/>
</linearGradient>
<linearGradient id="paint92_linear_1_1615" x1="265.178" y1="209.141" x2="271.601" y2="223.138" gradientUnits="userSpaceOnUse">
<stop stop-color="#E887D6"/>
<stop offset="0.1319" stop-color="#E991CA"/>
<stop offset="0.3896" stop-color="#EBA0B9"/>
<stop offset="0.6677" stop-color="#EDA8AE"/>
<stop offset="1" stop-color="#EDABAB"/>
</linearGradient>
<linearGradient id="paint93_linear_1_1615" x1="262.65" y1="217.418" x2="273.591" y2="217.572" gradientUnits="userSpaceOnUse">
<stop stop-color="#2A263F"/>
<stop offset="0.5624" stop-color="#353A53"/>
<stop offset="1" stop-color="#3B445E"/>
</linearGradient>
<linearGradient id="paint94_linear_1_1615" x1="269.239" y1="214.487" x2="269.359" y2="214.489" gradientUnits="userSpaceOnUse">
<stop stop-color="#2A263F"/>
<stop offset="0.5624" stop-color="#353A53"/>
<stop offset="1" stop-color="#3B445E"/>
</linearGradient>
<linearGradient id="paint95_linear_1_1615" x1="252.682" y1="193.904" x2="252.566" y2="184.299" gradientUnits="userSpaceOnUse">
<stop stop-color="#F4AE7B"/>
<stop offset="1" stop-color="#F97163"/>
</linearGradient>
<linearGradient id="paint96_linear_1_1615" x1="252.677" y1="214.547" x2="244.923" y2="191.225" gradientUnits="userSpaceOnUse">
<stop stop-color="#E887D6"/>
<stop offset="0.1319" stop-color="#E991CA"/>
<stop offset="0.3896" stop-color="#EBA0B9"/>
<stop offset="0.6677" stop-color="#EDA8AE"/>
<stop offset="1" stop-color="#EDABAB"/>
</linearGradient>
<linearGradient id="paint97_linear_1_1615" x1="259.517" y1="133.457" x2="259.397" y2="166.374" gradientUnits="userSpaceOnUse">
<stop stop-color="#2A263F"/>
<stop offset="1" stop-color="#5E7CA2"/>
</linearGradient>
<linearGradient id="paint98_linear_1_1615" x1="268.287" y1="179.041" x2="269.486" y2="135.115" gradientUnits="userSpaceOnUse">
<stop stop-color="#2A263F"/>
<stop offset="1" stop-color="#5E7CA2"/>
</linearGradient>
<linearGradient id="paint99_linear_1_1615" x1="263.716" y1="178.916" x2="264.915" y2="134.99" gradientUnits="userSpaceOnUse">
<stop stop-color="#2A263F"/>
<stop offset="1" stop-color="#5E7CA2"/>
</linearGradient>
<linearGradient id="paint100_linear_1_1615" x1="252.805" y1="178.619" x2="254.003" y2="134.692" gradientUnits="userSpaceOnUse">
<stop stop-color="#2A263F"/>
<stop offset="1" stop-color="#5E7CA2"/>
</linearGradient>
<linearGradient id="paint101_linear_1_1615" x1="248.734" y1="178.52" x2="249.933" y2="134.594" gradientUnits="userSpaceOnUse">
<stop stop-color="#2A263F"/>
<stop offset="1" stop-color="#5E7CA2"/>
</linearGradient>
<linearGradient id="paint102_linear_1_1615" x1="258.287" y1="178.789" x2="259.481" y2="135.029" gradientUnits="userSpaceOnUse">
<stop stop-color="#2A263F"/>
<stop offset="1" stop-color="#5E7CA2"/>
</linearGradient>
<linearGradient id="paint103_linear_1_1615" x1="251.286" y1="121.48" x2="255.666" y2="126.776" gradientUnits="userSpaceOnUse">
<stop stop-color="#2A263F"/>
<stop offset="1" stop-color="#5E7CA2"/>
</linearGradient>
<linearGradient id="paint104_linear_1_1615" x1="255.616" y1="217.344" x2="243.67" y2="217.767" gradientUnits="userSpaceOnUse">
<stop stop-color="#2A263F"/>
<stop offset="0.5624" stop-color="#353A53"/>
<stop offset="1" stop-color="#3B445E"/>
</linearGradient>
<linearGradient id="paint105_linear_1_1615" x1="257.514" y1="220.483" x2="236.759" y2="221.647" gradientUnits="userSpaceOnUse">
<stop stop-color="#777C89"/>
<stop offset="0.0346" stop-color="#828692"/>
<stop offset="0.1743" stop-color="#A8ABB3"/>
<stop offset="0.3197" stop-color="#C7CACF"/>
<stop offset="0.4702" stop-color="#E0E1E4"/>
<stop offset="0.6279" stop-color="#F1F2F3"/>
<stop offset="0.7975" stop-color="#FCFCFC"/>
<stop offset="1" stop-color="white"/>
</linearGradient>
<linearGradient id="paint106_linear_1_1615" x1="256.316" y1="221.544" x2="243.463" y2="213.772" gradientUnits="userSpaceOnUse">
<stop stop-color="#777C89"/>
<stop offset="0.0346" stop-color="#828692"/>
<stop offset="0.1743" stop-color="#A8ABB3"/>
<stop offset="0.3197" stop-color="#C7CACF"/>
<stop offset="0.4702" stop-color="#E0E1E4"/>
<stop offset="0.6279" stop-color="#F1F2F3"/>
<stop offset="0.7975" stop-color="#FCFCFC"/>
<stop offset="1" stop-color="white"/>
</linearGradient>
<linearGradient id="paint107_linear_1_1615" x1="273.957" y1="147.001" x2="269.304" y2="134.891" gradientUnits="userSpaceOnUse">
<stop stop-color="#FFBB8A"/>
<stop offset="0.7095" stop-color="#F97163"/>
</linearGradient>
<linearGradient id="paint108_linear_1_1615" x1="272.945" y1="147.389" x2="268.293" y2="135.279" gradientUnits="userSpaceOnUse">
<stop stop-color="#FFBB8A"/>
<stop offset="0.6637" stop-color="#F97163"/>
</linearGradient>
<linearGradient id="paint109_linear_1_1615" x1="276.695" y1="145.972" x2="272.033" y2="133.837" gradientUnits="userSpaceOnUse">
<stop stop-color="#FFBB8A"/>
<stop offset="0.7095" stop-color="#F97163"/>
</linearGradient>
<linearGradient id="paint110_linear_1_1615" x1="272.623" y1="148.214" x2="276.199" y2="127.001" gradientUnits="userSpaceOnUse">
<stop stop-color="#F97163"/>
<stop offset="0.1486" stop-color="#F4AE7B"/>
<stop offset="0.2104" stop-color="#F5A377"/>
<stop offset="0.3658" stop-color="#F78D6E"/>
<stop offset="0.5358" stop-color="#F87D68"/>
<stop offset="0.7298" stop-color="#F97464"/>
<stop offset="1" stop-color="#F97163"/>
</linearGradient>
<linearGradient id="paint111_linear_1_1615" x1="276.626" y1="137.033" x2="266.938" y2="96.7479" gradientUnits="userSpaceOnUse">
<stop stop-color="#E887D6"/>
<stop offset="0.1319" stop-color="#E991CA"/>
<stop offset="0.3896" stop-color="#EBA0B9"/>
<stop offset="0.6677" stop-color="#EDA8AE"/>
<stop offset="1" stop-color="#EDABAB"/>
</linearGradient>
<linearGradient id="paint112_linear_1_1615" x1="264.199" y1="219.672" x2="265.394" y2="218.95" gradientUnits="userSpaceOnUse">
<stop stop-color="#777C89"/>
<stop offset="0.0346" stop-color="#828692"/>
<stop offset="0.1743" stop-color="#A8ABB3"/>
<stop offset="0.3197" stop-color="#C7CACF"/>
<stop offset="0.4702" stop-color="#E0E1E4"/>
<stop offset="0.6279" stop-color="#F1F2F3"/>
<stop offset="0.7975" stop-color="#FCFCFC"/>
<stop offset="1" stop-color="white"/>
</linearGradient>
<linearGradient id="paint113_linear_1_1615" x1="-nan" y1="-nan" x2="-nan" y2="-nan" gradientUnits="userSpaceOnUse">
<stop stop-color="#777C89"/>
<stop offset="0.0346" stop-color="#828692"/>
<stop offset="0.1743" stop-color="#A8ABB3"/>
<stop offset="0.3197" stop-color="#C7CACF"/>
<stop offset="0.4702" stop-color="#E0E1E4"/>
<stop offset="0.6279" stop-color="#F1F2F3"/>
<stop offset="0.7975" stop-color="#FCFCFC"/>
<stop offset="1" stop-color="white"/>
</linearGradient>
</defs>
</svg>
