<svg xmlns="http://www.w3.org/2000/svg" width="124" height="124" viewBox="0 0 124 124" fill="none">
  <g clip-path="url(#clip0_46_23898)">
    <mask id="mask0_46_23898" style="mask-type:luminance" maskUnits="userSpaceOnUse" x="-20" y="-20" width="164" height="164">
      <path d="M143.17 -19.1704H-19.1702V143.17H143.17V-19.1704Z" fill="white"/>
    </mask>
    <g mask="url(#mask0_46_23898)">
      <g opacity="0.254542">
        <path d="M70.2625 23.4874C70.2625 24.9127 69.1071 26.0681 67.6818 26.0681C66.2565 26.0681 65.1011 24.9127 65.1011 23.4874C65.1011 22.0621 66.2565 20.9067 67.6818 20.9067C69.1071 20.9067 70.2625 22.0621 70.2625 23.4874Z" fill="#00B74A"/>
      </g>
      <g opacity="0.590941">
        <path d="M49.951 29.5751L48.4184 30.4599C48.1409 30.6202 47.7862 30.525 47.6259 30.2476L44.8585 25.4543C44.6983 25.1769 44.7934 24.8221 45.0708 24.6619L46.6035 23.777C46.8809 23.6169 47.2357 23.7119 47.3959 23.9893L50.1633 28.7827C50.3236 29.0602 50.2284 29.4149 49.951 29.5751Z" fill="#DF443D"/>
      </g>
      <g opacity="0.590941">
        <path d="M24.1132 39.9914L24.4579 40.1083C24.8488 40.2409 25.2799 40.1726 25.6107 39.9257L25.9025 39.708C26.7356 39.0862 27.9201 39.6897 27.9069 40.7292L27.9022 41.0932C27.8969 41.506 28.095 41.8949 28.432 42.1332L28.7293 42.3434C29.578 42.9437 29.37 44.2565 28.3774 44.5651L28.0297 44.6732C27.6355 44.7957 27.327 45.1044 27.2045 45.4986L27.0963 45.8463C26.7878 46.8389 25.4749 47.0468 24.8746 46.1981L24.6644 45.9009C24.426 45.5639 24.0371 45.3657 23.6244 45.371L23.2603 45.3756C22.2209 45.3889 21.6174 44.2045 22.2391 43.3713L22.4569 43.0796C22.7038 42.7488 22.7721 42.3177 22.6395 41.9267L22.5226 41.582C22.1887 40.5974 23.1286 39.6576 24.1132 39.9914Z" fill="#00B74A"/>
      </g>
      <g opacity="0.590941">
        <path d="M21.6658 58.2673L22.0529 59.9942C22.123 60.3068 21.9264 60.6171 21.6137 60.6871L16.2129 61.8978C15.9003 61.9678 15.5901 61.7712 15.5199 61.4586L15.1329 59.7316C15.0629 59.4191 15.2594 59.1088 15.572 59.0388L20.9729 57.8281C21.2855 57.7581 21.5957 57.9547 21.6658 58.2673Z" fill="#4683F5"/>
      </g>
      <g opacity="0.590941">
        <path d="M27.149 80.3614C27.149 81.7866 25.9936 82.942 24.5684 82.942C23.1431 82.942 21.9878 81.7866 21.9878 80.3614C21.9878 78.9362 23.1431 77.7808 24.5684 77.7808C25.9936 77.7808 27.149 78.9362 27.149 80.3614Z" fill="#F9C033"/>
      </g>
      <g opacity="0.590941">
        <path d="M24.1132 93.0681L24.4579 93.185C24.8488 93.3175 25.2799 93.2493 25.6107 93.0024L25.9025 92.7846C26.7356 92.1629 27.9201 92.7664 27.9069 93.8059L27.9022 94.1699C27.8969 94.5826 28.095 94.9716 28.432 95.2099L28.7293 95.4201C29.578 96.0204 29.37 97.3332 28.3774 97.6418L28.0297 97.7499C27.6355 97.8724 27.327 98.1811 27.2045 98.5753L27.0963 98.9229C26.7878 99.9156 25.4749 100.124 24.8746 99.2748L24.6644 98.9776C24.426 98.6405 24.0371 98.4424 23.6244 98.4476L23.2603 98.4524C22.2209 98.4656 21.6174 97.2812 22.2391 96.4481L22.4569 96.1563C22.7038 95.8254 22.7721 95.3944 22.6395 95.0034L22.5226 94.6587C22.1887 93.6741 23.1286 92.7342 24.1132 93.0681Z" fill="#4782F9"/>
      </g>
      <g opacity="0.590941">
        <path d="M90.5399 37.5316C89.7578 36.5124 89.9999 34.9941 91.0763 34.1681C92.1527 33.3422 93.6821 33.5013 94.4641 34.5206C94.4656 34.5225 94.467 34.5245 94.4685 34.5263" stroke="#00B74A" stroke-width="1.69105" stroke-linecap="round" stroke-linejoin="round"/>
      </g>
      <g opacity="0.590941">
        <path d="M97.4996 51.5915L97.8444 51.7084C98.2353 51.841 98.6665 51.7727 98.9972 51.5258L99.2891 51.308C100.122 50.6863 101.307 51.2898 101.293 52.3293L101.289 52.6933C101.283 53.1061 101.482 53.495 101.819 53.7333L102.116 53.9435C102.965 54.5438 102.757 55.8566 101.764 56.1652L101.416 56.2733C101.022 56.3958 100.713 56.7045 100.591 57.0987L100.483 57.4464C100.174 58.439 98.8614 58.6469 98.2612 57.7982L98.051 57.501C97.8126 57.164 97.4237 56.9658 97.0109 56.9711L96.6469 56.9758C95.6075 56.9889 95.0039 55.8046 95.6257 54.9715L95.8434 54.6797C96.0903 54.3489 96.1586 53.9178 96.026 53.5268L95.909 53.1821C95.5752 52.1975 96.5151 51.2577 97.4996 51.5915Z" fill="#FFBB31"/>
      </g>
      <g opacity="0.590941">
        <path d="M99.9098 82.1753C101.665 82.4064 102.908 84.1215 102.664 85.9747C102.42 87.8279 100.775 89.1627 99.0202 88.9315C99.0168 88.9311 99.0136 88.9307 99.0103 88.9303" stroke="#DE3E3E" stroke-width="1.26828" stroke-linecap="round" stroke-linejoin="round"/>
      </g>
      <g opacity="0.590941">
        <path d="M94.3812 103.947L92.8485 104.832C92.5711 104.992 92.2163 104.897 92.0561 104.619L89.2887 99.826C89.1285 99.5484 89.2236 99.1937 89.501 99.0336L91.0337 98.1486C91.3111 97.9884 91.6659 98.0835 91.826 98.361L94.5935 103.154C94.7536 103.432 94.6586 103.787 94.3812 103.947Z" fill="#4683F5"/>
      </g>
      <g opacity="0.590941">
        <path d="M44.1518 106.744C43.0743 105.339 43.4079 103.247 44.8909 102.11C46.3738 100.972 48.4807 101.191 49.5582 102.595L49.5643 102.603" stroke="#00B74A" stroke-width="1.69105" stroke-linecap="round" stroke-linejoin="round"/>
      </g>
      <g opacity="0.2">
        <path d="M103.286 63.8462C103.286 87.2547 84.3101 106.231 60.9015 106.231C37.4931 106.231 18.5166 87.2547 18.5166 63.8462C18.5166 40.4377 37.4931 21.4614 60.9015 21.4614C84.3101 21.4614 103.286 40.4377 103.286 63.8462Z" fill="#00B74A"/>
      </g>
      <path d="M90.4251 63.8462C90.4251 80.1515 77.207 93.3697 60.9016 93.3697C44.5963 93.3697 31.3781 80.1515 31.3781 63.8462C31.3781 47.5408 44.5963 34.3228 60.9016 34.3228C77.207 34.3228 90.4251 47.5408 90.4251 63.8462Z" fill="#00B74A"/>
      <path d="M47.8687 63.896L56.5238 72.5512L73.9344 55.1406" stroke="white" stroke-width="4.25819" stroke-linecap="round" stroke-linejoin="round"/>
    </g>
  </g>
  <defs>
    <clipPath id="clip0_46_23898">
      <rect width="124" height="124" fill="white"/>
    </clipPath>
  </defs>
</svg>