<svg xmlns="http://www.w3.org/2000/svg" width="48" height="48" viewBox="0 0 48 48" fill="none">
  <g opacity="0.1">
    <path d="M0.015625 48.0001V39.2364C0.0473723 40.2635 0.142067 40.9317 0.424522 41.486C0.798282 42.2195 1.39467 42.8159 2.12822 43.1896C2.96215 43.6145 4.05382 43.6145 6.23718 43.6145H17.3478C18.4395 43.6145 18.9853 43.6145 19.4023 43.827C19.7691 44.0138 20.0673 44.312 20.2542 44.6788C20.4666 45.0957 20.4666 45.6415 20.4666 46.7331V48.0001H0.015625Z" fill="#23415D"/>
    <path d="M47.9837 39.2341V48.0001H27.5326V46.7331C27.5326 45.6415 27.5326 45.0957 27.7451 44.6788C27.9319 44.312 28.2301 44.0138 28.5969 43.827C29.0139 43.6145 29.5597 43.6145 30.6514 43.6145H41.762C43.9454 43.6145 45.0371 43.6145 45.871 43.1896C46.6045 42.8159 47.2009 42.2195 47.5747 41.486C47.8574 40.9313 47.952 40.2625 47.9837 39.2341Z" fill="#23415D"/>
    <path d="M6.82195 31.9197H41.1773V36.7925H30.1153C27.932 36.7925 26.8403 36.7925 26.0064 37.2174C25.2728 37.5912 24.6764 38.1875 24.3027 38.921C24.158 39.205 24.0625 39.519 23.9996 39.8957C23.9367 39.519 23.8412 39.205 23.6965 38.921C23.3228 38.1875 22.7264 37.5912 21.9928 37.2174C21.1589 36.7925 20.0672 36.7925 17.8839 36.7925H6.82195V31.9197Z" fill="#23415D"/>
    <path d="M3.76583e-06 0H6.82234H17.8843C20.0676 0 21.1593 0 21.9932 0.424887C22.7268 0.798628 23.3232 1.39499 23.6969 2.1285C23.8416 2.41252 23.9371 2.72644 24 3.10321C24.0629 2.72644 24.1584 2.41252 24.3031 2.1285C24.6768 1.39499 25.2732 0.798628 26.0068 0.424887C26.8407 0 27.9324 0 30.1157 0H41.1777H48L48 31.941H41.1777L41.1777 6.82199H30.1157C27.9324 6.82199 26.8407 6.82199 26.0068 7.24687C25.2732 7.62061 24.6768 8.21698 24.3031 8.95048C24.1584 9.2345 24.0629 9.54842 24 9.92519C23.9371 9.54842 23.8416 9.2345 23.6969 8.95048C23.3232 8.21698 22.7268 7.62061 21.9932 7.24687C21.1593 6.82199 20.0676 6.82199 17.8843 6.82199H6.82234L6.82233 31.941H0L3.76583e-06 0Z" fill="#23415D"/>
  </g>
</svg>