<svg xmlns="http://www.w3.org/2000/svg" width="20" height="20" viewBox="0 0 20 20" fill="none">
  <path d="M18.5021 3.44828H1.49785C0.670586 3.44828 0 4.11887 0 4.94613V7.42812H20V4.94613C20 4.11887 19.3294 3.44828 18.5021 3.44828Z" fill="#82AFFF"/>
  <path d="M0 15.0539C0 15.8811 0.670586 16.5517 1.49785 16.5517H18.5021C19.3294 16.5517 20 15.8811 20 15.0539V12.5719H0V15.0539Z" fill="#73AF00"/>
  <path d="M20 7.97266H0V12.027H20V7.97266Z" fill="#F5F5F5"/>
  <path d="M0 7.81609V7.97273H20V7.81609V7.42809H0V7.81609Z" fill="#FF4B55"/>
  <path d="M0 12.1839V12.5719H20V12.1839V12.0273H0V12.1839Z" fill="#FF4B55"/>
  <path d="M4.43332 6.72153C3.72738 6.72153 3.15516 6.15067 3.15516 5.44727C3.15516 4.74129 3.72734 4.16785 4.43332 4.16785C4.43605 4.16785 4.43871 4.16785 4.44137 4.16789C4.48293 4.16844 4.4975 4.11325 4.46086 4.0936C4.24348 3.97707 3.99539 3.91114 3.73164 3.91305C2.88695 3.91907 2.20082 4.61903 2.2098 5.46371C2.21863 6.29969 2.90207 6.97637 3.74269 6.97637C4.00281 6.97637 4.24742 6.91055 4.46211 6.79563C4.49863 6.77606 4.48387 6.72086 4.44246 6.72145C4.43934 6.72153 4.43633 6.72153 4.43332 6.72153Z" fill="#F5F5F5"/>
  <path d="M5.43428 6.36914L5.37721 6.54031L5.19678 6.54168C5.17342 6.54184 5.16373 6.57168 5.18252 6.58555L5.32768 6.69274L5.27322 6.86477C5.26619 6.88703 5.29154 6.90547 5.31057 6.89188L5.45736 6.78696L5.60416 6.89188C5.62318 6.90547 5.6485 6.88703 5.6415 6.86477L5.58705 6.69274L5.73217 6.58555C5.75096 6.57168 5.74127 6.54184 5.71791 6.54168L5.53748 6.54031L5.48041 6.36914C5.47303 6.34699 5.4417 6.34699 5.43428 6.36914Z" fill="#F5F5F5"/>
  <path d="M6.70527 6.36914L6.6482 6.54031L6.46777 6.54168C6.44441 6.54184 6.43473 6.57168 6.45352 6.58555L6.59863 6.69274L6.54418 6.86477C6.53715 6.88703 6.5625 6.90547 6.58152 6.89188L6.72832 6.78696L6.87512 6.89188C6.89414 6.90547 6.91945 6.88703 6.91246 6.86477L6.85801 6.69274L7.00313 6.58555C7.02191 6.57168 7.01223 6.54184 6.98887 6.54168L6.80844 6.54031L6.75137 6.36914C6.74398 6.34699 6.71262 6.34699 6.70527 6.36914Z" fill="#F5F5F5"/>
  <path d="M7.97651 6.36914L7.91944 6.54031L7.73901 6.54168C7.71565 6.54184 7.70597 6.57168 7.72476 6.58555L7.86991 6.69274L7.81546 6.86477C7.80843 6.88703 7.83378 6.90547 7.8528 6.89188L7.9996 6.78696L8.1464 6.89188C8.16542 6.90547 8.19073 6.88703 8.18374 6.86477L8.12929 6.69274L8.2744 6.58555C8.29319 6.57168 8.28351 6.54184 8.26015 6.54168L8.07972 6.54031L8.02265 6.36914C8.01526 6.34699 7.9839 6.34699 7.97651 6.36914Z" fill="#F5F5F5"/>
  <path d="M9.24775 6.36914L9.19068 6.54031L9.01025 6.54168C8.9869 6.54184 8.97721 6.57168 8.996 6.58555L9.14111 6.69274L9.08666 6.86477C9.07963 6.88703 9.10498 6.90547 9.124 6.89188L9.2708 6.78696L9.4176 6.89188C9.43662 6.90547 9.46193 6.88703 9.45494 6.86477L9.40049 6.69274L9.54561 6.58555C9.5644 6.57168 9.55471 6.54184 9.53135 6.54168L9.35092 6.54031L9.29385 6.36914C9.2865 6.34699 9.25514 6.34699 9.24775 6.36914Z" fill="#F5F5F5"/>
  <path d="M10.519 6.36914L10.4619 6.54031L10.2815 6.54168C10.2581 6.54184 10.2484 6.57168 10.2672 6.58555L10.4124 6.69274L10.3579 6.86477C10.3509 6.88703 10.3763 6.90547 10.3953 6.89188L10.5421 6.78696L10.6889 6.89188C10.7079 6.90547 10.7332 6.88703 10.7262 6.86477L10.6718 6.69274L10.8169 6.58555C10.8357 6.57168 10.826 6.54184 10.8027 6.54168L10.6222 6.54031L10.5652 6.36914C10.5577 6.34699 10.5264 6.34699 10.519 6.36914Z" fill="#F5F5F5"/>
  <path d="M6.70527 5.18274L6.6482 5.35391L6.46777 5.35528C6.44441 5.35543 6.43473 5.38528 6.45352 5.39915L6.59863 5.50633L6.54418 5.67836C6.53715 5.70063 6.5625 5.71907 6.58152 5.70547L6.72832 5.60055L6.87512 5.70547C6.89414 5.71907 6.91945 5.70063 6.91246 5.67836L6.85801 5.50633L7.00313 5.39915C7.02191 5.38528 7.01223 5.35543 6.98887 5.35528L6.80844 5.35391L6.75137 5.18274C6.74398 5.16051 6.71262 5.16051 6.70527 5.18274Z" fill="#F5F5F5"/>
  <path d="M7.97651 5.18274L7.91944 5.35391L7.73901 5.35528C7.71565 5.35543 7.70597 5.38528 7.72476 5.39915L7.86991 5.50633L7.81546 5.67836C7.80843 5.70063 7.83378 5.71907 7.8528 5.70547L7.9996 5.60055L8.1464 5.70547C8.16542 5.71907 8.19073 5.70063 8.18374 5.67836L8.12929 5.50633L8.2744 5.39915C8.29319 5.38528 8.28351 5.35543 8.26015 5.35528L8.07972 5.35391L8.02265 5.18274C8.01526 5.16051 7.9839 5.16051 7.97651 5.18274Z" fill="#F5F5F5"/>
  <path d="M9.24775 5.18274L9.19068 5.35391L9.01025 5.35528C8.9869 5.35543 8.97721 5.38528 8.996 5.39915L9.14111 5.50633L9.08666 5.67836C9.07963 5.70063 9.10498 5.71907 9.124 5.70547L9.2708 5.60055L9.4176 5.70547C9.43662 5.71907 9.46193 5.70063 9.45494 5.67836L9.40049 5.50633L9.54561 5.39915C9.5644 5.38528 9.55471 5.35543 9.53135 5.35528L9.35092 5.35391L9.29385 5.18274C9.2865 5.16051 9.25514 5.16051 9.24775 5.18274Z" fill="#F5F5F5"/>
  <path d="M10.519 5.18274L10.4619 5.35391L10.2815 5.35528C10.2581 5.35543 10.2484 5.38528 10.2672 5.39915L10.4124 5.50633L10.3579 5.67836C10.3509 5.70063 10.3763 5.71907 10.3953 5.70547L10.5421 5.60055L10.6889 5.70547C10.7079 5.71907 10.7332 5.70063 10.7262 5.67836L10.6718 5.50633L10.8169 5.39915C10.8357 5.38528 10.826 5.35543 10.8027 5.35528L10.6222 5.35391L10.5652 5.18274C10.5577 5.16051 10.5264 5.16051 10.519 5.18274Z" fill="#F5F5F5"/>
  <path d="M7.97651 6.36914L7.91944 6.54031L7.73901 6.54168C7.71565 6.54184 7.70597 6.57168 7.72476 6.58555L7.86991 6.69274L7.81546 6.86477C7.80843 6.88703 7.83378 6.90547 7.8528 6.89188L7.9996 6.78696L8.1464 6.89188C8.16542 6.90547 8.19073 6.88703 8.18374 6.86477L8.12929 6.69274L8.2744 6.58555C8.29319 6.57168 8.28351 6.54184 8.26015 6.54168L8.07972 6.54031L8.02265 6.36914C8.01526 6.34699 7.9839 6.34699 7.97651 6.36914Z" fill="#F5F5F5"/>
  <path d="M7.97651 3.99626L7.91944 4.16743L7.73901 4.1688C7.71565 4.16895 7.70597 4.1988 7.72476 4.21266L7.86991 4.31985L7.81546 4.49188C7.80843 4.51415 7.83378 4.53258 7.8528 4.51899L7.9996 4.41407L8.1464 4.51899C8.16542 4.53258 8.19073 4.51415 8.18374 4.49188L8.12929 4.31985L8.2744 4.21266C8.29319 4.1988 8.28351 4.16895 8.26015 4.1688L8.07972 4.16743L8.02265 3.99626C8.01526 3.97411 7.9839 3.97411 7.97651 3.99626Z" fill="#F5F5F5"/>
  <path d="M9.24775 6.36914L9.19068 6.54031L9.01025 6.54168C8.9869 6.54184 8.97721 6.57168 8.996 6.58555L9.14111 6.69274L9.08666 6.86477C9.07963 6.88703 9.10498 6.90547 9.124 6.89188L9.2708 6.78696L9.4176 6.89188C9.43662 6.90547 9.46193 6.88703 9.45494 6.86477L9.40049 6.69274L9.54561 6.58555C9.5644 6.57168 9.55471 6.54184 9.53135 6.54168L9.35092 6.54031L9.29385 6.36914C9.2865 6.34699 9.25514 6.34699 9.24775 6.36914Z" fill="#F5F5F5"/>
  <path d="M10.519 6.36914L10.4619 6.54031L10.2815 6.54168C10.2581 6.54184 10.2484 6.57168 10.2672 6.58555L10.4124 6.69274L10.3579 6.86477C10.3509 6.88703 10.3763 6.90547 10.3953 6.89188L10.5421 6.78696L10.6889 6.89188C10.7079 6.90547 10.7332 6.88703 10.7262 6.86477L10.6718 6.69274L10.8169 6.58555C10.8357 6.57168 10.826 6.54184 10.8027 6.54168L10.6222 6.54031L10.5652 6.36914C10.5577 6.34699 10.5264 6.34699 10.519 6.36914Z" fill="#F5F5F5"/>
  <path d="M9.24775 3.99626L9.19068 4.16743L9.01025 4.1688C8.9869 4.16895 8.97721 4.1988 8.996 4.21266L9.14111 4.31985L9.08666 4.49188C9.07963 4.51415 9.10498 4.53258 9.124 4.51899L9.2708 4.41407L9.4176 4.51899C9.43662 4.53258 9.46193 4.51415 9.45494 4.49188L9.40049 4.31985L9.54561 4.21266C9.5644 4.1988 9.55471 4.16895 9.53135 4.1688L9.35092 4.16743L9.29385 3.99626C9.2865 3.97411 9.25514 3.97411 9.24775 3.99626Z" fill="#F5F5F5"/>
  <path d="M10.519 3.99626L10.4619 4.16743L10.2815 4.1688C10.2581 4.16895 10.2484 4.1988 10.2672 4.21266L10.4124 4.31985L10.3579 4.49188C10.3509 4.51415 10.3763 4.53258 10.3953 4.51899L10.5421 4.41407L10.6889 4.51899C10.7079 4.53258 10.7332 4.51415 10.7262 4.49188L10.6718 4.31985L10.8169 4.21266C10.8357 4.1988 10.826 4.16895 10.8027 4.1688L10.6222 4.16743L10.5652 3.99626C10.5577 3.97411 10.5264 3.97411 10.519 3.99626Z" fill="#F5F5F5"/>
</svg>