<svg width="222" height="52" viewBox="0 0 222 52" fill="none" xmlns="http://www.w3.org/2000/svg">
<path d="M0.015625 52V42.616C0.0487999 43.7158 0.147753 44.4313 0.442909 45.0248C0.833476 45.8103 1.45669 46.4489 2.22322 46.849C3.09465 47.304 4.23541 47.304 6.51694 47.304H18.1272C19.268 47.304 19.8384 47.304 20.2741 47.5315C20.6574 47.7316 20.969 48.0509 21.1642 48.4436C21.3862 48.89 21.3862 49.4745 21.3862 50.6434V52H0.015625Z" fill="#46A0DC"/>
<path d="M50.1407 42.6136V52H28.77V50.6434C28.77 49.4745 28.77 48.89 28.992 48.4436C29.1873 48.0509 29.4989 47.7316 29.8821 47.5315C30.3178 47.304 30.8882 47.304 32.029 47.304H43.6393C45.9208 47.304 47.0616 47.304 47.933 46.849C48.6995 46.4489 49.3227 45.8103 49.7133 45.0248C50.0087 44.4308 50.1076 43.7147 50.1407 42.6136Z" fill="#46A0DC"/>
<path d="M7.12801 34.7814H43.0282V39.9991H31.4689C29.1873 39.9991 28.0466 39.9991 27.1751 40.4541C26.4086 40.8543 25.7854 41.4929 25.3948 42.2783C25.2436 42.5824 25.1439 42.9186 25.0781 43.322C25.0124 42.9186 24.9126 42.5824 24.7614 42.2783C24.3708 41.4929 23.7476 40.8543 22.9811 40.4541C22.1097 39.9991 20.9689 39.9991 18.6874 39.9991H7.12801V34.7814Z" fill="#46A0DC"/>
<path d="M3.93517e-06 0.602348H7.12912H18.6885C20.97 0.602348 22.1108 0.602348 22.9822 1.05731C23.7487 1.45751 24.3719 2.09608 24.7625 2.88151C24.9137 3.18563 25.0135 3.52178 25.0792 3.92521C25.145 3.52178 25.2447 3.18563 25.3959 2.88151C25.7865 2.09608 26.4097 1.45751 27.1762 1.05731C28.0477 0.602348 29.1884 0.602348 31.47 0.602348H43.0293H50.1584L50.1584 34.8042H43.0293L43.0293 7.90722H31.47C29.1884 7.90722 28.0477 7.90722 27.1762 8.36218C26.4097 8.76238 25.7865 9.40095 25.3959 10.1864C25.2447 10.4905 25.145 10.8266 25.0792 11.2301C25.0135 10.8266 24.9137 10.4905 24.7625 10.1864C24.3719 9.40095 23.7487 8.76238 22.9822 8.36218C22.1108 7.90722 20.97 7.90722 18.6885 7.90722H7.12912L7.12912 34.8042H0L3.93517e-06 0.602348Z" fill="#46A0DC"/>
<path d="M69.4609 28.6773H75.7326V0.5623H69.4609V28.6773Z" fill="#31475D"/>
<path d="M107.807 14.6198C107.807 10.4829 106.435 7.02875 103.652 4.21725C100.869 1.40575 97.4982 0 93.5392 0C89.5802 0 86.2092 1.40575 83.4261 4.21725C80.6431 7.02875 79.2711 10.4829 79.2711 14.6198C79.2711 18.7567 80.6431 22.2109 83.4261 25.0224C86.2092 27.8339 89.5802 29.2396 93.5392 29.2396C95.7735 29.2396 97.9294 28.7175 99.9677 27.7134L102.908 30.8864L107.415 26.7896L104.671 23.8174C106.749 21.1666 107.807 18.1141 107.807 14.6198ZM93.5392 22.974C91.2657 22.974 89.345 22.2109 87.8163 20.6445C86.2876 19.078 85.5428 17.0698 85.5428 14.6198C85.5428 12.1698 86.2876 10.1616 87.8163 8.59516C89.345 7.02875 91.2657 6.26563 93.5392 6.26563C95.8127 6.26563 97.6942 7.02875 99.2229 8.59516C100.752 10.1616 101.536 12.1698 101.536 14.6198C101.536 16.2665 101.144 17.7526 100.399 19.1584L97.0356 15.4311L92.5278 19.5278L95.4599 22.7732C94.7543 22.8937 94.1272 22.974 93.5392 22.974Z" fill="#31475D"/>
<path d="M108 0.5623V6.7476H115.056V28.6773H121.328V6.7476H128.383V0.5623H108Z" fill="#31475D"/>
<path d="M131.129 28.6773H137.4V0.5623H131.129V28.6773Z" fill="#31475D"/>
<path d="M142.115 0.5623V28.6773H153.09C156.893 28.6773 160.028 27.3519 162.576 24.6609C165.124 21.9699 166.418 18.5961 166.418 14.6198C166.418 10.6435 165.124 7.30991 162.576 4.6189C160.028 1.92789 156.893 0.5623 153.09 0.5623H142.115ZM148.387 22.492V6.7476H153.09C155.246 6.7476 157.01 7.47056 158.343 8.91648C159.715 10.3222 160.381 12.2501 160.381 14.6198C160.381 16.9895 159.715 18.9174 158.343 20.3633C157.01 21.7691 155.246 22.492 153.09 22.492H148.387Z" fill="#31475D"/>
<path d="M193.149 25.0224C195.932 22.2109 197.304 18.7567 197.304 14.6198C197.304 10.4829 195.932 7.02875 193.149 4.21725C190.366 1.40575 186.995 0 183.036 0C179.077 0 175.706 1.40575 172.923 4.21725C170.14 7.02875 168.768 10.4829 168.768 14.6198C168.768 18.7567 170.14 22.2109 172.923 25.0224C175.706 27.8339 179.077 29.2396 183.036 29.2396C186.995 29.2396 190.366 27.8339 193.149 25.0224ZM177.313 20.6445C175.784 19.078 175.04 17.0698 175.04 14.6198C175.04 12.1698 175.784 10.1616 177.313 8.59516C178.842 7.02875 180.763 6.26563 183.036 6.26563C185.31 6.26563 187.191 7.02875 188.72 8.59516C190.249 10.1616 191.032 12.1698 191.032 14.6198C191.032 17.0698 190.249 19.078 188.72 20.6445C187.191 22.2109 185.31 22.974 183.036 22.974C180.763 22.974 178.842 22.2109 177.313 20.6445Z" fill="#31475D"/>
<path d="M222.002 28.6773L216.162 18.3551C219.18 16.7485 221.218 13.6157 221.218 10.2017C221.218 7.51073 220.317 5.26153 218.474 3.3738C216.632 1.48608 214.437 0.5623 211.811 0.5623H200.835V28.6773H207.107V19.4395H210.086L215.26 28.6773H222.002ZM211.811 6.58695C213.535 6.58695 214.947 8.15336 214.947 10.2017C214.947 12.2501 213.535 13.8165 211.811 13.8165H207.107V6.58695H211.811Z" fill="#31475D"/>
<path d="M71.1831 42.7939C71.1831 42.0772 71.8338 41.6772 72.6308 41.6772C73.4928 41.6772 74.0784 42.0272 74.3712 42.7439L75.5586 42.0606C75.0381 40.9772 73.9483 40.3272 72.6308 40.3272C71.8012 40.3272 71.1181 40.5606 70.565 41.0272C70.0283 41.4939 69.7518 42.0939 69.7518 42.8106C69.7518 44.5772 71.4109 45.0106 72.6958 45.3606C73.5904 45.5772 74.3061 45.9439 74.3061 46.5939C74.3061 47.3772 73.623 47.7272 72.6958 47.7272C71.7036 47.7272 70.9392 47.2272 70.6789 46.4272L69.459 47.1439C69.9307 48.3272 71.1181 49.0939 72.6958 49.0939C73.5904 49.0939 74.3061 48.8605 74.8754 48.4105C75.4447 47.9605 75.7375 47.3439 75.7375 46.5939C75.7538 44.8106 74.0621 44.3272 72.7934 44.0439C71.8988 43.7939 71.1831 43.4439 71.1831 42.7939Z" fill="#31475D"/>
<path d="M81.9023 40.3272C80.5522 40.3272 79.5275 40.8772 78.8281 41.9772V40.5439H77.413V51.9999H78.8281V47.4439C79.5275 48.5439 80.5522 49.0939 81.9023 49.0939C83.0409 49.0939 84.0168 48.6772 84.8138 47.8272C85.6108 46.9772 86.0175 45.9272 86.0175 44.7106C86.0175 43.4939 85.6108 42.4606 84.8138 41.6106C84.0168 40.7606 83.0409 40.3272 81.9023 40.3272ZM81.7234 47.6939C80.8938 47.6939 80.2107 47.4105 79.6576 46.8439C79.1046 46.2605 78.8281 45.5606 78.8281 44.7106C78.8281 43.8606 79.1046 43.1606 79.6576 42.5939C80.2107 42.0106 80.8938 41.7272 81.7234 41.7272C82.5366 41.7272 83.2198 42.0106 83.7728 42.5939C84.3258 43.1606 84.6024 43.8606 84.6024 44.7106C84.6024 45.5606 84.3258 46.2605 83.7728 46.8439C83.2198 47.4105 82.5366 47.6939 81.7234 47.6939Z" fill="#31475D"/>
<path d="M95.5135 45.3772C95.546 45.1606 95.5623 44.9439 95.5623 44.7272C95.5623 43.5106 95.1882 42.4772 94.4237 41.6272C93.6755 40.7606 92.6996 40.3272 91.5122 40.3272C90.2597 40.3272 89.235 40.7439 88.438 41.5772C87.641 42.4106 87.2506 43.4606 87.2506 44.7106C87.2506 45.9772 87.6572 47.0272 88.4543 47.8605C89.2675 48.6772 90.3248 49.0939 91.6098 49.0939C93.2038 49.0939 94.3912 48.4605 95.1882 47.2105L93.9845 46.5105C93.4966 47.3272 92.7158 47.7272 91.6423 47.7272C90.0971 47.7272 88.9748 46.8605 88.6982 45.3772H95.5135ZM91.5122 41.6939C92.8134 41.6939 93.887 42.5272 94.1309 44.1106H88.6982C88.9422 42.6439 89.9995 41.6939 91.5122 41.6939Z" fill="#31475D"/>
<path d="M100.996 49.0939C102.573 49.0939 103.956 48.2439 104.655 46.9272L103.452 46.2105C102.996 47.0939 102.085 47.6605 100.996 47.6605C100.182 47.6605 99.4991 47.3772 98.9461 46.8105C98.4093 46.2439 98.1328 45.5439 98.1328 44.7106C98.1328 43.8606 98.4093 43.1606 98.9461 42.5939C99.4991 42.0272 100.182 41.7439 100.996 41.7439C102.085 41.7439 102.996 42.3272 103.403 43.2106L104.59 42.5106C103.956 41.1772 102.606 40.3272 100.996 40.3272C99.7756 40.3272 98.7509 40.7439 97.9376 41.5939C97.1243 42.4272 96.7177 43.4606 96.7177 44.7106C96.7177 45.9606 97.1243 46.9939 97.9376 47.8439C98.7509 48.6772 99.7756 49.0939 100.996 49.0939Z" fill="#31475D"/>
<path d="M106.768 39.0273C107.289 39.0273 107.712 38.5939 107.712 38.0606C107.712 37.5273 107.289 37.0773 106.768 37.0773C106.231 37.0773 105.808 37.5273 105.808 38.0606C105.808 38.5939 106.231 39.0273 106.768 39.0273ZM107.468 48.8772V40.5439H106.052V48.8772H107.468Z" fill="#31475D"/>
<path d="M116.36 41.9772C115.661 40.8772 114.636 40.3272 113.286 40.3272C112.148 40.3272 111.172 40.7606 110.375 41.6106C109.578 42.4606 109.171 43.4939 109.171 44.7106C109.171 45.9272 109.578 46.9772 110.375 47.8272C111.172 48.6772 112.148 49.0939 113.286 49.0939C114.636 49.0939 115.661 48.5439 116.36 47.4439V48.8772H117.775V40.5439H116.36V41.9772ZM113.465 47.6939C112.652 47.6939 111.969 47.4105 111.416 46.8439C110.863 46.2605 110.586 45.5606 110.586 44.7106C110.586 43.8606 110.863 43.1606 111.416 42.5939C111.969 42.0106 112.652 41.7272 113.465 41.7272C114.295 41.7272 114.978 42.0106 115.531 42.5939C116.084 43.1606 116.36 43.8606 116.36 44.7106C116.36 45.5606 116.084 46.2605 115.531 46.8439C114.978 47.4105 114.295 47.6939 113.465 47.6939Z" fill="#31475D"/>
<path d="M121.335 48.8772V36.7106H119.92V48.8772H121.335Z" fill="#31475D"/>
<path d="M128.78 42.7939C128.78 42.0772 129.43 41.6772 130.227 41.6772C131.09 41.6772 131.675 42.0272 131.968 42.7439L133.155 42.0606C132.635 40.9772 131.545 40.3272 130.227 40.3272C129.398 40.3272 128.715 40.5606 128.162 41.0272C127.625 41.4939 127.348 42.0939 127.348 42.8106C127.348 44.5772 129.008 45.0106 130.292 45.3606C131.187 45.5772 131.903 45.9439 131.903 46.5939C131.903 47.3772 131.22 47.7272 130.292 47.7272C129.3 47.7272 128.536 47.2272 128.276 46.4272L127.056 47.1439C127.527 48.3272 128.715 49.0939 130.292 49.0939C131.187 49.0939 131.903 48.8605 132.472 48.4105C133.041 47.9605 133.334 47.3439 133.334 46.5939C133.35 44.8106 131.659 44.3272 130.39 44.0439C129.495 43.7939 128.78 43.4439 128.78 42.7939Z" fill="#31475D"/>
<path d="M138.61 49.0939C140.187 49.0939 141.57 48.2439 142.269 46.9272L141.066 46.2105C140.61 47.0939 139.699 47.6605 138.61 47.6605C137.796 47.6605 137.113 47.3772 136.56 46.8105C136.023 46.2439 135.747 45.5439 135.747 44.7106C135.747 43.8606 136.023 43.1606 136.56 42.5939C137.113 42.0272 137.796 41.7439 138.61 41.7439C139.699 41.7439 140.61 42.3272 141.017 43.2106L142.204 42.5106C141.57 41.1772 140.22 40.3272 138.61 40.3272C137.39 40.3272 136.365 40.7439 135.552 41.5939C134.738 42.4272 134.332 43.4606 134.332 44.7106C134.332 45.9606 134.738 46.9939 135.552 47.8439C136.365 48.6772 137.39 49.0939 138.61 49.0939Z" fill="#31475D"/>
<path d="M147.717 40.3272C146.529 40.3272 145.651 40.7939 145.082 41.7439V37.2106H143.667V48.8772H145.082V44.4606C145.082 42.5939 146.025 41.7106 147.44 41.7106C148.693 41.7106 149.457 42.4939 149.457 43.8439V48.8772H150.872V43.7606C150.872 41.6439 149.62 40.3272 147.717 40.3272Z" fill="#31475D"/>
<path d="M159.712 47.8272C160.541 46.9772 160.964 45.9439 160.964 44.7106C160.964 43.4772 160.541 42.4439 159.712 41.5939C158.882 40.7439 157.858 40.3272 156.67 40.3272C155.483 40.3272 154.458 40.7439 153.629 41.5939C152.799 42.4439 152.392 43.4772 152.392 44.7106C152.392 45.9439 152.799 46.9772 153.629 47.8272C154.458 48.6772 155.483 49.0939 156.67 49.0939C157.858 49.0939 158.882 48.6772 159.712 47.8272ZM156.67 47.6772C155.873 47.6772 155.19 47.3939 154.637 46.8272C154.084 46.2605 153.807 45.5606 153.807 44.7106C153.807 43.8606 154.084 43.1606 154.637 42.5939C155.19 42.0272 155.873 41.7439 156.67 41.7439C157.483 41.7439 158.167 42.0272 158.72 42.5939C159.273 43.1606 159.549 43.8606 159.549 44.7106C159.549 45.5606 159.273 46.2605 158.72 46.8272C158.167 47.3939 157.483 47.6772 156.67 47.6772Z" fill="#31475D"/>
<path d="M169.497 47.8272C170.326 46.9772 170.749 45.9439 170.749 44.7106C170.749 43.4772 170.326 42.4439 169.497 41.5939C168.667 40.7439 167.642 40.3272 166.455 40.3272C165.268 40.3272 164.243 40.7439 163.413 41.5939C162.584 42.4439 162.177 43.4772 162.177 44.7106C162.177 45.9439 162.584 46.9772 163.413 47.8272C164.243 48.6772 165.268 49.0939 166.455 49.0939C167.642 49.0939 168.667 48.6772 169.497 47.8272ZM166.455 47.6772C165.658 47.6772 164.975 47.3939 164.422 46.8272C163.869 46.2605 163.592 45.5606 163.592 44.7106C163.592 43.8606 163.869 43.1606 164.422 42.5939C164.975 42.0272 165.658 41.7439 166.455 41.7439C167.268 41.7439 167.951 42.0272 168.504 42.5939C169.057 43.1606 169.334 43.8606 169.334 44.7106C169.334 45.5606 169.057 46.2605 168.504 46.8272C167.951 47.3939 167.268 47.6772 166.455 47.6772Z" fill="#31475D"/>
<path d="M173.832 48.8772V36.7106H172.417V48.8772H173.832Z" fill="#31475D"/>
</svg>
